SplineFontDB: 3.0
FontName: Amatic-Bold
FullName: Amatic Bold
FamilyName: Amatic
Weight: Bold
Copyright: Copyright (c) 2011-12 by vernon adams. All rights reserved.
Version: 2.001
FONDName: Amatic
ItalicAngle: 0
UnderlinePosition: -204
UnderlineWidth: 102
Ascent: 1638
Descent: 410
UFOAscent: 2048
UFODescent: -53
LayerCount: 2
Layer: 0 0 "Back"  1
Layer: 1 0 "Fore"  0
OS2Version: 0
OS2_WeightWidthSlopeOnly: 0
OS2_UseTypoMetrics: 0
CreationTime: 1383543579
ModificationTime: 1383544643
PfmFamily: 0
TTFWeight: 700
TTFWidth: 3
LineGap: 0
VLineGap: 0
OS2TypoAscent: 2048
OS2TypoAOffset: 0
OS2TypoDescent: -160
OS2TypoDOffset: 0
OS2TypoLinegap: 0
OS2WinAscent: 2048
OS2WinAOffset: 0
OS2WinDescent: 160
OS2WinDOffset: 0
HheadAscent: 0
HheadAOffset: 1
HheadDescent: 0
HheadDOffset: 1
OS2SubXSize: 1331
OS2SubYSize: 1229
OS2SubXOff: 0
OS2SubYOff: 154
OS2SupXSize: 1331
OS2SupYSize: 1229
OS2SupXOff: 0
OS2SupYOff: 717
OS2StrikeYSize: 102
OS2StrikeYPos: 614
OS2Vendor: 'newt'
Lookup: 258 0 0 "kernHorizontalKerninginLatinloo"  {"kernHorizontalKerninginLatinloo per glyph data 0"  "kernHorizontalKerninginLatinloo kerning class 1"  } ['kern' ('latn' <'dflt' > 'DFLT' <'dflt' > ) ]
MarkAttachClasses: 1
DEI: 91125
KernClass2: 32 23 "kernHorizontalKerninginLatinloo kerning class 1" 
 73 A Aacute Abreve Acircumflex Adieresis Agrave Amacron Aogonek Aring Atilde
 1 B
 8 D Dcaron
 1 F
 13 J Jcircumflex
 14 K Kcommaaccent
 28 L Lacute Lcaron Lcommaaccent
 35 N Nacute Ncaron Ncommaaccent Ntilde
 73 O Oacute Obreve Ocircumflex Odieresis Ograve Ohungarumlaut Omacron Otilde
 1 P
 28 R Racute Rcaron Rcommaaccent
 29 T Tcaron Tcommaaccent uni021A
 80 U Uacute Ubreve Ucircumflex Udieresis Ugrave Uhungarumlaut Umacron Uogonek Uring
 1 V
 1 W
 18 Y Yacute Ydieresis
 73 a aacute abreve acircumflex adieresis agrave amacron aogonek aring atilde
 1 b
 8 d dcaron
 1 f
 32 g gbreve gcommaaccent gdotaccent
 14 k kcommaaccent
 28 l lacute lcaron lcommaaccent
 1 m

StartChar: A
Encoding: 65 65 1
Width: 846
VWidth: 0
GlyphClass: 2
Flags: W
PickledData: "(dp1
S'org.pippin.gimp.org.kernagic'
p2
(dp3
S'lstem'
p4
I0
ssS'com.fontlab.hintData'
p5
(dp6
S'vhints'
p7
((dp8
S'position'
p9
I462
sS'width'
p10
I90
s(dp11
g9
I464
sg10
I131
stp12
ss."
HStem: 1 21G<607 650.5>
VStem: 562 90<450.499 873.604> 564 131<3.51562 337.44>
LayerCount: 2
Fore
SplineSet
572 1525 m 1xa0
 572 1370 652 897 652 710 c 0xc0
 652 521 695 284 695 70 c 0
 695 24 674 1 627 1 c 0
 587 1 564 13 564 54 c 2
 564 321 l 1
 520 351 381 369 325 373 c 1
 274 286 282 117 224 23 c 1
 192 23 143 26 134 64 c 1
 205 167 353 1543 506 1543 c 0
 528 1543 554 1539 572 1525 c 1xa0
494 1236 m 0
 494 1243 494 1249 495 1254 c 1
 447 1204 342 549 338 464 c 1
 397 448 459 441 520 441 c 0
 533 441 550 444 562 447 c 1
 552 576 494 1110 494 1236 c 0
EndSplineSet
EndChar

StartChar: AE
Encoding: 198 198 2
Width: 1026
VWidth: 0
GlyphClass: 2
Flags: W
PickledData: "(dp1
S'org.pippin.gimp.org.kernagic'
p2
(dp3
S'lstem'
p4
I0
ssS'com.fontlab.hintData'
p5
(dp6
S'vhints'
p7
((dp8
S'position'
p9
I461
sS'width'
p10
I95
stp11
sS'hhints'
p12
((dp13
g9
I-12
sg10
I94
s(dp14
g9
I621
sg10
I114
s(dp15
g9
I621
sg10
I95
s(dp16
g9
I1450
sg10
I104
stp17
ss."
HStem: -43 21G<547 581.5> -12 94<629.304 852.438> 621 114<626.342 782> 621 95<624 781.844> 1450 104<616 810>
VStem: 535 95<84.7385 622 716 1283>
LayerCount: 2
Fore
SplineSet
527 706 m 1xcc
 529 855 535 1004 535 1153 c 0
 535 1196 535 1240 533 1283 c 1
 474 1087 416 889 374 688 c 1
 425 691 477 695 527 706 c 1xcc
522 2 m 1
 524 3 l 1
 532 86 541 169 541 253 c 0
 541 380 531 506 531 633 c 1
 472 628 411 630 354 611 c 1
 253 226 l 2
 240 178 225 1 158 1 c 0
 135 1 118 27 118 48 c 0
 118 288 384 1103 470 1380 c 0
 487 1437 509 1544 586 1544 c 0
 639 1544 691 1554 744 1554 c 0
 781 1554 831 1546 831 1498 c 2
 831 1492 l 1
 810 1450 l 1
 745 1450 680 1447 616 1440 c 1
 618 1349 630 1258 630 1166 c 0
 630 1016 624 866 624 716 c 1xdc
 674 720 722 735 772 735 c 2
 782 735 l 1
 824 687 l 1
 824 629 757 621 711 621 c 2
 702 621 l 1xec
 623 622 l 1
 624 442 629 262 629 82 c 1
 705 83 780 103 856 103 c 0
 885 103 924 87 924 53 c 0
 924 -8 760 -12 680 -12 c 2
 648 -12 l 2
 618 -12 596 -38 567 -43 c 1
 522 2 l 1
EndSplineSet
EndChar

StartChar: B
Encoding: 66 66 12
Width: 774
VWidth: 0
GlyphClass: 2
Flags: W
PickledData: "(dp1
S'org.pippin.gimp.org.kernagic'
p2
(dp3
S'lstem'
p4
I0
ssS'com.fontlab.hintData'
p5
(dp6
S'vhints'
p7
((dp8
S'position'
p9
I74
sS'width'
p10
I111
s(dp11
g9
I78
sg10
I124
s(dp12
g9
I361
sg10
I100
s(dp13
g9
I421
sg10
I106
stp14
sS'hhints'
p15
((dp16
g9
I1421
sg10
I116
stp17
ss."
HStem: -17 21G<263.5 418> 1421 116<222 412.953>
VStem: 182 111<323.336 769 888 1417.84> 186 124<90 758.406> 469 100<1048.52 1361.62> 529 106<207.794 624.204>
LayerCount: 2
Fore
SplineSet
322 1421 m 0xe8
 293 1421 293 1376 293 1357 c 0
 293 1201 300 1044 301 888 c 1
 394 909 438 1095 469 1173 c 1
 469 1246 l 2
 469 1321 404 1421 322 1421 c 0xe8
529 369 m 0xd4
 529 717 373 769 373 769 c 1
 300 769 l 1
 308 543 310 316 310 90 c 1
 451 112 529 232 529 369 c 0xd4
635 374 m 0
 635 282 546 -17 290 -17 c 2
 282 -17 l 2
 245 -17 186 -15 186 34 c 0xd4
 186 202 196 370 196 538 c 0
 196 815 182 1093 182 1370 c 2
 182 1382 l 2
 182 1440 185 1537 259 1537 c 0
 459 1537 569 1392 569 1201 c 0xe8
 569 1075 492 924 403 859 c 1
 585 737 635 537 635 374 c 0
EndSplineSet
EndChar

StartChar: C
Encoding: 67 67 13
Width: 918
VWidth: 0
GlyphClass: 2
Flags: W
PickledData: "(dp1
S'org.pippin.gimp.org.kernagic'
p2
(dp3
S'lstem'
p4
I0
ssS'com.fontlab.hintData'
p5
(dp6
S'vhints'
p7
((dp8
S'position'
p9
I61
sS'width'
p10
I109
stp11
sS'hhints'
p12
((dp13
g9
I-33
sg10
I126
s(dp14
g9
I1443
sg10
I122
stp15
ss."
HStem: -33 126<412.284 615.162> 1443 122<355.958 523>
VStem: 184 109<367.053 996.751 1001.2 1380.85>
LayerCount: 2
Fore
SplineSet
680 166 m 0
 699 166 721 154 740 135 c 1
 740 4 595 -33 489 -33 c 0
 202 -33 174 425 174 792 c 0
 174 882 176 966 176 1037 c 0
 176 1100 178 1164 190 1226 c 1
 186 1248 184 1270 184 1290 c 0
 184 1463 333 1565 510 1565 c 0
 565 1565 653 1531 653 1465 c 0
 653 1434 624 1419 596 1419 c 0
 576 1419 534 1426 523 1444 c 1
 523 1443 l 1
 495 1443 l 1
 495 1448 l 1
 298 1448 293 1294 293 1140 c 0
 293 1093 299 1046 299 999 c 0
 299 951 281 904 281 856 c 2
 281 807 l 2
 281 549 288 93 516 93 c 0
 583 93 627 166 680 166 c 0
EndSplineSet
EndChar

StartChar: D
Encoding: 68 68 19
Width: 882
VWidth: 0
GlyphClass: 2
Flags: W
PickledData: "(dp1
S'org.pippin.gimp.org.kernagic'
p2
(dp3
S'lstem'
p4
I0
ssS'com.fontlab.hintData'
p5
(dp6
S'vhints'
p7
((dp8
S'position'
p9
I36
sS'width'
p10
I126
s(dp11
g9
I113
sg10
I98
s(dp12
g9
I488
sg10
I105
stp13
sS'hhints'
p14
((dp15
g9
I1429
sg10
I123
stp16
ss."
HStem: -5 21G<253 399.5> 1429 123<269.344 408.709>
VStem: 142 126<1210.77 1429> 219 98<117.54 740.066> 594 105<498.981 1173.84>
LayerCount: 2
Fore
SplineSet
317 310 m 2xd8
 317 114 l 1xd8
 534 254 594 615 594 854 c 0
 594 1061 550 1429 268 1429 c 1
 268 1427 l 1xe8
 269 1054 317 683 317 310 c 2xd8
274 -5 m 0
 232 -5 174 14 174 65 c 1
 219 112 219 244 219 306 c 0xd8
 219 533 181 758 181 982 c 0
 181 1055 187 1131 187 1206 c 0
 187 1308 142 1400 142 1481 c 0xe8
 142 1548 241 1552 299 1552 c 2
 330 1552 l 2
 693 1552 699 1023 699 868 c 2
 699 773 l 1
 688 754 699 733 699 711 c 0
 699 503 525 -5 274 -5 c 0
EndSplineSet
EndChar

StartChar: Dcroat
Encoding: 272 272 21
Width: 918
VWidth: 0
GlyphClass: 2
Flags: W
PickledData: "(dp1
S'org.pippin.gimp.org.kernagic'
p2
(dp3
S'lstem'
p4
I0
ssS'com.fontlab.hintData'
p5
(dp6
S'vhints'
p7
((dp8
S'position'
p9
I36
sS'width'
p10
I126
s(dp11
g9
I75
sg10
I113
s(dp12
g9
I113
sg10
I98
s(dp13
g9
I488
sg10
I105
stp14
sS'hhints'
p15
((dp16
g9
I746
sg10
I101
s(dp17
g9
I1429
sg10
I123
stp18
ss."
HStem: -5 21G<296 442.5> 746 101<79.324 228 344 517.058> 1429 123<312.344 451.709>
VStem: 185 126<1210.77 1429> 224 113<312.89 742 847 1299.82> 262 98<117.54 735.25> 637 105<498.981 1173.84>
LayerCount: 2
Fore
SplineSet
520 791 m 0xea
 520 754 484 746 454 746 c 0
 438 746 395 743 344 742 c 1
 353 598 360 454 360 310 c 2
 360 114 l 1xe6
 577 254 637 615 637 854 c 0
 637 1061 593 1429 311 1429 c 1
 311 1427 l 1xf2
 312 1233 324 1040 337 847 c 1
 348 847 l 2
 435 847 520 831 520 791 c 0xea
317 -5 m 0
 275 -5 217 14 217 65 c 1
 262 112 262 244 262 306 c 0xe6
 262 453 246 599 235 744 c 1
 152 748 78 761 78 798 c 0
 78 839 139 842 168 842 c 0
 178 842 200 842 228 843 c 1
 225 889 224 936 224 982 c 0xea
 224 1055 230 1131 230 1206 c 0
 230 1308 185 1400 185 1481 c 0xf2
 185 1548 284 1552 342 1552 c 2
 373 1552 l 2
 736 1552 742 1023 742 868 c 2
 742 773 l 1
 731 754 742 733 742 711 c 0
 742 503 568 -5 317 -5 c 0
EndSplineSet
EndChar

StartChar: E
Encoding: 69 69 22
Width: 738
VWidth: 0
GlyphClass: 2
Flags: W
PickledData: "(dp1
S'org.pippin.gimp.org.kernagic'
p2
(dp3
S'lstem'
p4
I0
ssS'com.fontlab.hintData'
p5
(dp6
S'vhints'
p7
((dp8
S'position'
p9
I62
sS'width'
p10
I123
s(dp11
g9
I90
sg10
I110
stp12
sS'hhints'
p13
((dp14
g9
I-12
sg10
I117
s(dp15
g9
I750
sg10
I120
s(dp16
g9
I1423
sg10
I128
stp17
ss."
HStem: -12 117<320 538.995> 750 120<321.468 464.494> 1423 128<306.633 473.19>
VStem: 182 123<1091.3 1425> 210 110<105 751.998 852 1418.7>
LayerCount: 2
Fore
SplineSet
551 50 m 1xe8
 520 -11 435 -12 376 -12 c 2
 312 -12 l 2
 264 -12 210 -10 210 55 c 2
 210 1245 l 2xe8
 210 1316 182 1383 182 1454 c 2
 182 1461 l 1
 197 1486 211 1513 233 1533 c 1
 284 1533 334 1551 385 1551 c 0
 421 1551 479 1527 479 1484 c 0
 479 1432 428 1423 386 1423 c 0
 366 1423 347 1425 327 1425 c 0
 320 1425 312 1425 305 1424 c 1xf0
 305 1311 321 1199 321 1086 c 0
 321 1008 312 930 311 852 c 1
 343 858 374 870 407 870 c 0
 437 870 467 844 467 813 c 0
 467 782 447 750 413 750 c 0
 400 750 381 752 362 752 c 0
 341 752 330 749 320 737 c 1
 320 105 l 1
 355 107 399 111 434 111 c 0
 470 111 551 108 551 57 c 2
 551 50 l 1xe8
EndSplineSet
EndChar

StartChar: Eng
Encoding: 330 330 30
Width: 972
VWidth: 0
GlyphClass: 2
Flags: W
PickledData: "(dp1
S'org.pippin.gimp.org.kernagic'
p2
(dp3
S'lstem'
p4
I0
ssS'com.fontlab.hintData'
p5
(dp6
S'vhints'
p7
((dp8
S'position'
p9
I67
sS'width'
p10
I104
s(dp11
g9
I83
sg10
I117
s(dp12
g9
I548
sg10
I122
s(dp13
g9
I548
sg10
I97
stp14
sS'hhints'
p15
((dp16
g9
I1544
sg10
I20
stp17
ss."
HStem: -2 21G<231 259.5> 1544 20G<222.5 303>
VStem: 182 104<374.035 1298> 198 117<2.04901 498.154> 663 122<1049.69 1592.95> 663 97<-191.525 127.537 225 1503.11>
LayerCount: 2
Fore
SplineSet
657 -113 m 0xc4
 657 -65 658 -17 658 32 c 1
 565 234 389 887 286 1298 c 1
 286 626 l 2xe4
 286 431 315 237 315 42 c 0
 315 16 276 -2 243 -2 c 0
 219 -2 198 7 198 30 c 0xd0
 198 65 208 109 208 177 c 0
 208 371 182 688 182 812 c 2
 182 1073 l 2
 182 1198 196 1324 196 1449 c 2
 196 1462 l 2
 196 1508 204 1564 241 1564 c 0
 365 1564 654 228 655 225 c 1
 655 463 663 701 663 939 c 2xe4
 663 1545 l 1
 671 1580 697 1596 730 1596 c 0
 775 1596 785 1553 785 1516 c 2
 785 1504 l 1xc8
 776 1485 760 1465 760 1444 c 2
 760 42 l 2
 760 -271 735 -236 549 -388 c 1
 509 -388 475 -369 475 -325 c 0
 475 -226 657 -240 657 -113 c 0xc4
EndSplineSet
EndChar

StartChar: Eth
Encoding: 208 208 32
Width: 900
VWidth: 0
GlyphClass: 2
Flags: W
PickledData: "(dp1
S'org.pippin.gimp.org.kernagic'
p2
(dp3
S'lstem'
p4
I0
ssS'com.fontlab.hintData'
p5
(dp6
S'vhints'
p7
((dp8
S'position'
p9
I36
sS'width'
p10
I126
s(dp11
g9
I113
sg10
I98
s(dp12
g9
I488
sg10
I105
stp13
sS'hhints'
p14
((dp15
g9
I795
sg10
I119
s(dp16
g9
I819
sg10
I121
s(dp17
g9
I1429
sg10
I123
stp18
ss."
HStem: -5 21G<285 431.5> 795 119<96.6752 213.224> 819 121<330.954 518> 1429 123<301.344 440.709>
VStem: 174 126<1210.77 1429> 251 98<117.54 740.123> 626 105<498.981 1173.84>
LayerCount: 2
Fore
SplineSet
306 -5 m 0xda
 264 -5 206 14 206 65 c 1
 251 112 251 244 251 306 c 0xd6
 251 472 231 637 220 802 c 1
 196 798 171 795 146 795 c 0
 113 795 94 824 94 854 c 0
 94 906 172 914 214 914 c 1
 213 937 213 959 213 982 c 0
 213 1055 219 1131 219 1206 c 0
 219 1308 174 1400 174 1481 c 0
 174 1548 273 1552 331 1552 c 2
 362 1552 l 2
 725 1552 731 1023 731 868 c 2
 731 773 l 1
 720 754 731 733 731 711 c 0
 731 503 557 -5 306 -5 c 0xda
328 814 m 1
 339 646 349 478 349 310 c 2
 349 114 l 1xb6
 566 254 626 615 626 854 c 0
 626 1061 582 1429 300 1429 c 1
 300 1427 l 2
 300 1259 310 1091 321 924 c 1
 376 931 430 940 485 940 c 0
 527 940 550 896 552 860 c 1
 518 819 l 1xba
 455 819 391 818 328 814 c 1
EndSplineSet
EndChar

StartChar: Euro
Encoding: 8364 8364 33
Width: 918
VWidth: 0
GlyphClass: 2
Flags: W
PickledData: "(dp1
S'org.pippin.gimp.org.kernagic'
p2
(dp3
S'lstem'
p4
I0
ssS'com.fontlab.hintData'
p5
(dp6
S'vhints'
p7
((dp8
S'position'
p9
I53
sS'width'
p10
I117
stp11
sS'hhints'
p12
((dp13
g9
I-33
sg10
I126
s(dp14
g9
I654
sg10
I70
s(dp15
g9
I808
sg10
I69
s(dp16
g9
I1448
sg10
I117
stp17
ss."
HStem: -33 126<398.718 645.667> 654 70<109.121 197 307 502.492> 808 69<102.124 192 296 496.618> 1448 117<373.488 624.609>
VStem: 190 117<263.621 653 725 808 879 1378.71>
LayerCount: 2
Fore
SplineSet
505 700 m 0
 505 657 408 652 347 652 c 0
 330 652 315 653 307 653 c 1
 313 578 342 209 376 160 c 0
 410 111 473 93 530 93 c 0
 580 93 629 113 662 152 c 1
 684 152 706 155 727 162 c 1
 754 135 l 1
 754 4 609 -33 503 -33 c 0
 193 -33 213 450 201 654 c 1
 122 657 l 1
 114 664 109 677 109 687 c 0
 109 721 151 724 181 724 c 2
 197 724 l 1
 193 808 l 1
 121 808 l 1
 107 813 102 833 102 845 c 0
 102 876 121 877 147 877 c 2
 192 877 l 1
 192 930 190 984 190 1038 c 0
 190 1101 193 1164 204 1226 c 1
 200 1248 198 1269 198 1289 c 0
 198 1462 346 1565 524 1565 c 0
 580 1565 667 1531 667 1465 c 0
 667 1434 638 1419 610 1419 c 0
 573 1419 535 1448 509 1448 c 0
 312 1448 307 1294 307 1140 c 0
 307 1047 306 972 296 879 c 1
 305 879 331 880 361 880 c 0
 420 880 498 876 498 852 c 0
 498 841 492 828 484 821 c 1
 422 814 359 813 296 811 c 1
 301 725 l 1
 364 726 428 726 491 731 c 1
 499 724 505 711 505 700 c 0
EndSplineSet
EndChar

StartChar: F
Encoding: 70 70 34
Width: 702
VWidth: 0
GlyphClass: 2
Flags: W
PickledData: "(dp1
S'org.pippin.gimp.org.kernagic'
p2
(dp3
S'lstem'
p4
I0
ssS'com.fontlab.hintData'
p5
(dp6
S'vhints'
p7
((dp8
S'position'
p9
I101
sS'width'
p10
I128
stp11
sS'hhints'
p12
((dp13
g9
I1442
sg10
I112
stp14
ss."
HStem: -2 21G<267.5 316> 1442 112<297.645 455.99>
VStem: 236 128<1.18661 80.5789 81.1882 562.815>
LayerCount: 2
Fore
SplineSet
360 81 m 1
 363 72 364 64 364 56 c 0
 364 21 337 -2 295 -2 c 0
 240 -2 236 90 236 129 c 0
 236 283 206 1390 174 1440 c 1
 174 1550 289 1554 372 1554 c 0
 424 1554 459 1544 459 1484 c 0
 459 1453 429 1440 402 1440 c 0
 393 1440 373 1442 352 1442 c 0
 324 1442 295 1438 295 1419 c 0
 295 1235 324 1053 326 869 c 1
 364 876 401 891 440 891 c 0
 472 891 496 858 496 828 c 0
 496 762 371 764 326 761 c 1
 326 538 365 317 365 94 c 0
 365 90 361 85 360 81 c 1
EndSplineSet
EndChar

StartChar: G
Encoding: 71 71 35
Width: 914
VWidth: 0
GlyphClass: 2
Flags: W
PickledData: "(dp1
S'org.pippin.gimp.org.kernagic'
p2
(dp3
S'lstem'
p4
I0
ssS'com.fontlab.hintData'
p5
(dp6
S'vhints'
p7
((dp8
S'position'
p9
I52
sS'width'
p10
I108
s(dp11
g9
I562
sg10
I118
stp12
sS'hhints'
p13
((dp14
g9
I-54
sg10
I105
s(dp15
g9
I363
sg10
I126
s(dp16
g9
I1495
sg10
I96
stp17
ss."
HStem: -54 105<416.519 644.517> 363 126<507.634 663.907> 1495 96<416.607 608.387>
VStem: 175 108<266.283 1188.12> 685 118<-37.3857 4 91.7473 368.48>
LayerCount: 2
Fore
SplineSet
685 2 m 1
 685 4 l 1
 636 -18 590 -54 534 -54 c 0
 184 -54 175 464 175 711 c 0
 175 753 174 805 174 862 c 0
 174 1158 200 1591 525 1591 c 0
 563 1591 610 1580 610 1533 c 0
 610 1503 584 1485 556 1485 c 0
 536 1485 517 1495 497 1495 c 0
 289 1495 284 927 284 744 c 0
 284 709 283 670 283 617 c 0
 283 400 301 51 530 51 c 0
 596 51 644 84 681 137 c 1
 680 190 672 329 648 371 c 1
 626 369 596 363 568 363 c 0
 531 363 498 374 498 421 c 0
 498 477 635 489 675 489 c 0
 736 489 762 434 762 380 c 0
 762 257 803 138 803 15 c 0
 803 -14 784 -41 753 -41 c 0
 724 -41 696 -26 685 2 c 1
EndSplineSet
EndChar

StartChar: H
Encoding: 72 72 40
Width: 810
VWidth: 0
GlyphClass: 2
Flags: W
PickledData: "(dp1
S'org.pippin.gimp.org.kernagic'
p2
(dp3
S'lstem'
p4
I0
ssS'com.fontlab.hintData'
p5
(dp6
S'vhints'
p7
((dp8
S'position'
p9
I54
sS'width'
p10
I127
s(dp11
g9
I54
sg10
I112
s(dp12
g9
I361
sg10
I100
s(dp13
g9
I388
sg10
I112
stp14
sS'hhints'
p15
((dp16
g9
I769
sg10
I55
stp17
ss."
HStem: -31 21G<540.5 578.5> 769 55<302.784 488.968> 1530 20G<481 530>
VStem: 174 127<753 1510> 174 112<1076.3 1540.01> 481 100<970.722 1500> 508 112<-28.184 485.08>
LayerCount: 2
Fore
SplineSet
174 1510 m 0xf2
 174 1537 189 1547 209 1547 c 0
 236 1547 270 1529 281 1514 c 1
 276 1462 274 1411 274 1360 c 0
 274 1220 288 1079 288 939 c 0
 288 914 286 888 286 862 c 0
 286 844 287 827 290 809 c 1
 357 811 422 822 489 824 c 1
 488 1048 481 1272 481 1496 c 2
 481 1550 l 1
 579 1550 581 1469 581 1393 c 0xec
 581 943 620 491 620 43 c 0
 620 10 597 -31 560 -31 c 0
 521 -31 508 4 508 37 c 0
 508 278 503 519 490 759 c 1
 468 763 445 769 422 769 c 0
 381 769 339 769 301 753 c 1
 302 521 335 291 335 59 c 0
 335 34 319 5 291 5 c 0
 176 5 174 1319 174 1510 c 0xf2
EndSplineSet
EndChar

StartChar: Hbar
Encoding: 294 294 41
Width: 810
VWidth: 0
GlyphClass: 2
Flags: W
PickledData: "(dp1
S'org.pippin.gimp.org.kernagic'
p2
(dp3
S'lstem'
p4
I0
ssS'com.fontlab.hintData'
p5
(dp6
S'vhints'
p7
((dp8
S'position'
p9
I53
sS'width'
p10
I108
s(dp11
g9
I91
sg10
I90
s(dp12
g9
I353
sg10
I108
s(dp13
g9
I388
sg10
I112
stp14
sS'hhints'
p15
((dp16
g9
I769
sg10
I55
s(dp17
g9
I1265
sg10
I74
s(dp18
g9
I1534
sg10
I20
stp19
ss."
HStem: -31 21G<543.5 581.5> 769 55<305.784 491.968> 1265 74<279 476> 1534 20G<223 241>
VStem: 176 108<820.567 1261 1335 1552.74> 214 90<330.198 765.094> 476 108<830.891 1262 1337 1541.14> 511 112<-28.184 480.323>
LayerCount: 2
Fore
SplineSet
394 1265 m 0xf0
 355 1265 315 1262 279 1261 c 1
 283 1153 291 1046 291 939 c 0
 291 914 289 888 289 862 c 0
 289 844 290 827 293 809 c 1
 360 811 425 822 492 824 c 1
 491 971 483 1119 478 1266 c 1
 454 1265 424 1265 394 1265 c 0xf0
474 1496 m 1
 473 1511 l 1
 473 1541 479 1544 493 1544 c 2
 500 1544 l 2
 533 1544 584 1542 584 1493 c 2
 584 1314 l 1xfa
 599 1307 608 1297 608 1284 c 0
 608 1265 598 1262 585 1262 c 1
 591 855 623 448 623 43 c 0
 623 10 600 -31 563 -31 c 0
 524 -31 511 4 511 37 c 0
 511 278 506 519 493 759 c 1
 471 763 448 769 425 769 c 0
 384 769 342 769 304 753 c 1
 305 521 338 291 338 59 c 0
 338 34 322 5 294 5 c 0
 264 5 253 16 238 41 c 0
 213 83 220 514 214 602 c 0xf5
 198 824 185 1046 180 1269 c 1
 171 1274 166 1281 166 1291 c 0
 166 1303 171 1311 179 1318 c 1
 177 1385 176 1453 176 1520 c 0
 176 1540 215 1554 231 1554 c 0
 251 1554 284 1536 284 1515 c 0
 284 1467 277 1411 277 1360 c 2
 277 1335 l 1
 305 1336 350 1339 400 1339 c 0
 425 1339 451 1338 476 1337 c 1xfa
 474 1390 474 1443 474 1496 c 1
EndSplineSet
EndChar

StartChar: I
Encoding: 73 73 43
Width: 702
VWidth: 0
GlyphClass: 2
Flags: W
PickledData: "(dp1
S'org.pippin.gimp.org.kernagic'
p2
(dp3
S'lstem'
p4
I0
ssS'com.fontlab.hintData'
p5
(dp6
S'vhints'
p7
((dp8
S'position'
p9
I133
sS'width'
p10
I93
s(dp11
g9
I171
sg10
I105
stp12
sS'hhints'
p13
((dp14
g9
I3
sg10
I110
s(dp15
g9
I1442
sg10
I111
stp16
ss."
HStem: 3 110<154.078 254.436 390 466> 1442 111<341.531 461.693>
VStem: 247 93<970.339 1427.6> 285 105<124.343 601.922>
LayerCount: 2
Fore
SplineSet
466 8 m 1xd0
 446 8 388 3 327 3 c 0
 241 3 150 13 150 64 c 0
 150 101 180 113 212 113 c 0
 229 113 243 110 255 110 c 0
 274 110 285 118 285 158 c 0xd0
 285 474 247 789 247 1105 c 0
 247 1175 251 1244 251 1314 c 0
 251 1352 250 1390 246 1428 c 1
 231 1423 213 1419 198 1419 c 0
 171 1419 150 1430 150 1468 c 0
 150 1540 351 1553 403 1553 c 0
 434 1553 463 1529 463 1497 c 0
 463 1470 445 1442 415 1442 c 0
 401 1442 389 1443 379 1443 c 0
 355 1443 340 1437 340 1401 c 0xe0
 340 1001 390 603 390 203 c 2
 390 124 l 1
 404 126 418 127 432 127 c 0
 477 127 517 113 517 55 c 2
 517 43 l 1
 466 8 l 1xd0
EndSplineSet
EndChar

StartChar: J
Encoding: 74 74 54
Width: 720
VWidth: 0
GlyphClass: 2
Flags: W
PickledData: "(dp1
S'org.pippin.gimp.org.kernagic'
p2
(dp3
S'lstem'
p4
I55
ssS'com.fontlab.hintData'
p5
(dp6
S'vhints'
p7
((dp8
S'position'
p9
I218
sS'width'
p10
I110
stp11
sS'hhints'
p12
((dp13
g9
I1445
sg10
I108
stp14
ss."
HStem: 1445 108<443 561.112>
VStem: 394 110<27.05 763.282>
LayerCount: 2
Fore
SplineSet
340 1445 m 1
 311 1439 281 1429 251 1429 c 0
 223 1429 199 1453 199 1481 c 0
 199 1553 395 1553 444 1553 c 2
 470 1553 l 2
 512 1553 562 1548 562 1497 c 0
 562 1453 512 1444 477 1444 c 0
 475 1444 473 1445 471 1445 c 2
 443 1445 l 1
 443 1429 l 2
 443 1323 467 1218 467 1112 c 0
 467 846 504 581 504 315 c 0
 504 260 503 207 503 152 c 0
 503 0 440 -147 305 -194 c 1
 265 -194 231 -175 231 -131 c 0
 231 -94 281 -61 311 -48 c 1
 339 -12 393 102 393 241 c 0
 393 334 394 429 394 525 c 0
 394 836 388 1155 340 1445 c 1
EndSplineSet
EndChar

StartChar: K
Encoding: 75 75 56
Width: 864
VWidth: 0
GlyphClass: 2
Flags: W
PickledData: "(dp1
S'org.pippin.gimp.org.kernagic'
p2
(dp3
S'lstem'
p4
I0
ssS'com.fontlab.hintData'
p5
(dp6
S'vhints'
p7
((dp8
S'position'
p9
I70
sS'width'
p10
I130
s(dp11
g9
I97
sg10
I90
s(dp12
g9
I507
sg10
I113
stp13
ss."
HStem: -27 20G<205 268 651 675>
VStem: 174 130<-1.98825 573.75 1057.8 1534.1> 201 90<228.75 830.353 954 1368.44> 611 113<-44.5786 161.312>
LayerCount: 2
Fore
SplineSet
174 1476 m 0xd0
 174 1509 197 1541 232 1541 c 0
 306 1541 308 1426 308 1375 c 0
 308 1235 302 1094 299 954 c 1
 338 1045 536 1596 606 1596 c 0
 636 1596 664 1574 664 1542 c 0
 664 1497 453 1108 427 991 c 1
 427 955 l 1
 463 864 724 48 724 11 c 0
 724 -23 691 -48 659 -48 c 0
 643 -48 627 -41 611 -40 c 1
 556 272 493 590 361 880 c 1
 307 776 291 769 291 650 c 0xb0
 291 523 304 397 304 270 c 2
 304 102 l 2
 304 78 302 -7 234 -7 c 0
 176 -7 174 67 174 108 c 0xd0
 174 292 201 476 201 660 c 0xb0
 201 754 204 905 204 1049 c 0
 204 1238 174 1347 174 1476 c 0xd0
EndSplineSet
EndChar

StartChar: L
Encoding: 76 76 58
Width: 622
VWidth: 0
GlyphClass: 2
Flags: W
PickledData: "(dp1
S'org.pippin.gimp.org.kernagic'
p2
(dp3
S'lstem'
p4
I0
ssS'com.fontlab.hintData'
p5
(dp6
S'vhints'
p7
((dp8
S'position'
p9
I58
sS'width'
p10
I112
s(dp11
g9
I86
sg10
I315
s(dp12
g9
I99
sg10
I102
stp13
sS'hhints'
p14
((dp15
g9
I-4
sg10
I119
s(dp16
g9
I1551
sg10
I20
stp17
ss."
HStem: -23 21G<262 289.5> -4 119<325.815 441.391 442.424 522.461> 1551 20G<219.5 248.5>
VStem: 182 112<1092.36 1568.47> 210 315<3.61108 114.295> 223 102<115 568.643>
LayerCount: 2
Fore
SplineSet
325 115 m 1x64
 481 115 l 1
 503 100 525 83 525 54 c 0
 525 25 504 -4 473 -4 c 0x68
 463 -4 451 1 442 3 c 1
 429 0 416 -1 403 -1 c 0
 381 -1 359 2 337 2 c 1
 323 -15 300 -23 279 -23 c 0
 245 -23 210 7 210 42 c 0xa8
 210 73 223 101 223 132 c 0xa4
 223 598 182 1063 182 1529 c 0
 182 1556 207 1571 232 1571 c 0
 265 1571 294 1546 294 1512 c 0xb0
 294 1266 315 1019 315 775 c 0
 315 758 318 742 318 725 c 0
 318 720 318 715 317 710 c 2
 317 701 l 1
 325 523 325 345 325 167 c 2
 325 115 l 1x64
EndSplineSet
EndChar

StartChar: Lslash
Encoding: 321 321 63
Width: 756
VWidth: 0
GlyphClass: 2
Flags: W
PickledData: "(dp1
S'org.pippin.gimp.org.kernagic'
p2
(dp3
S'lstem'
p4
I0
ssS'com.fontlab.hintData'
p5
(dp6
S'vhints'
p7
((dp8
S'position'
p9
I58
sS'width'
p10
I112
s(dp11
g9
I81
sg10
I113
s(dp12
g9
I99
sg10
I102
stp13
sS'hhints'
p14
((dp15
g9
I2
sg10
I113
s(dp16
g9
I754
sg10
I119
s(dp17
g9
I1551
sg10
I20
stp18
ss."
HStem: 2 113<373 489.391 490.424 570.461> 754 119<144.631 247.469> 1551 20G<267.5 296.5>
VStem: 230 112<1078.08 1568.47> 253 113<320.812 768 904 1323.92> 271 102<115 569.25>
LayerCount: 2
Fore
SplineSet
576 897 m 0xf0
 576 842 471 813 363 797 c 1
 363 795 l 2
 363 773 366 752 366 730 c 0xe8
 366 723 366 717 365 710 c 1
 365 701 l 1
 373 523 373 345 373 167 c 2
 373 115 l 1
 529 115 l 1
 551 100 573 83 573 54 c 0
 573 25 552 -4 521 -4 c 0
 511 -4 499 1 490 3 c 1
 477 0 464 -1 451 -1 c 0
 429 -1 407 2 385 2 c 0
 368 2 342 5 317 5 c 0
 288 5 258 22 258 42 c 0
 258 73 271 101 271 132 c 0xe4
 271 344 262 556 253 768 c 1xe8
 229 757 210 754 201 754 c 0
 168 754 134 774 134 803 c 0
 134 838 187 860 248 873 c 1
 239 1092 230 1310 230 1529 c 0
 230 1556 255 1571 280 1571 c 0
 313 1571 342 1546 342 1512 c 0
 342 1309 357 1106 362 904 c 1
 442 939 510 949 538 949 c 0
 556 949 576 929 576 897 c 0xf0
EndSplineSet
EndChar

StartChar: M
Encoding: 77 77 64
Width: 1044
VWidth: 0
GlyphClass: 2
Flags: W
PickledData: "(dp1
S'org.pippin.gimp.org.kernagic'
p2
(dp3
S'lstem'
p4
I0
ssS'com.fontlab.hintData'
p5
(dp6
S'vhints'
p7
((dp8
S'position'
p9
I73
sS'width'
p10
I121
s(dp11
g9
I76
sg10
I101
s(dp12
g9
I332
sg10
I164
s(dp13
g9
I598
sg10
I121
s(dp14
g9
I630
sg10
I126
stp15
sS'hhints'
p16
((dp17
g9
I1534
sg10
I20
stp18
ss."
HStem: -54 21G<772 802> 1534 20G<209.375 299.5>
VStem: 182 121<16.6875 543.446> 185 101<490.852 1172> 441 164<244.953 518.477> 707 121<1167.81 1581.83> 739 126<-38.3795 525.911>
LayerCount: 2
Fore
SplineSet
707 1517 m 1xdc
 707 1529 l 1
 713 1565 745 1587 780 1587 c 0
 806 1587 828 1560 828 1535 c 0xdc
 828 1045 865 557 865 67 c 0
 865 -2 820 -54 784 -54 c 0
 760 -54 739 -30 739 27 c 0
 739 314 731 602 731 889 c 2
 731 993 l 1
 696 801 631 605 605 414 c 1
 605 401 l 1
 594 347 592 222 514 222 c 0
 441 222 441 364 441 413 c 0
 441 660 344 931 290 1172 c 1
 288 1090 286 1007 286 925 c 0xda
 286 644 303 364 303 83 c 0
 303 54 292 27 272 6 c 1
 194 6 182 68 182 132 c 0xe8
 182 243 192 353 192 464 c 0
 192 729 185 993 185 1257 c 0
 185 1346 186 1434 188 1522 c 1
 245 1554 l 1
 354 1546 498 674 529 528 c 1
 597 850 688 1188 707 1517 c 1xdc
EndSplineSet
EndChar

StartChar: N
Encoding: 78 78 65
Width: 972
VWidth: 0
GlyphClass: 2
Flags: W
PickledData: "(dp1
S'org.pippin.gimp.org.kernagic'
p2
(dp3
S'lstem'
p4
I0
ssS'com.fontlab.hintData'
p5
(dp6
S'vhints'
p7
((dp8
S'position'
p9
I67
sS'width'
p10
I104
s(dp11
g9
I83
sg10
I117
s(dp12
g9
I548
sg10
I122
s(dp13
g9
I548
sg10
I97
stp14
sS'hhints'
p15
((dp16
g9
I1544
sg10
I20
stp17
ss."
HStem: -9 7G<231 259.5 668.5 719> 1544 20G<222.5 303>
VStem: 182 104<374.035 1298> 198 117<2.04901 498.154> 663 122<982.93 1592.95> 663 97<225 1432.23>
LayerCount: 2
Fore
SplineSet
655 225 m 1xe0
 655 463 663 701 663 939 c 2xe4
 663 1545 l 1
 671 1580 697 1596 730 1596 c 0
 775 1596 785 1553 785 1516 c 2
 785 1504 l 1xc8
 776 1485 773 1465 773 1444 c 0
 773 1193 760 939 760 687 c 2
 760 61 l 2
 760 25 737 -30 701 -30 c 0
 636 -30 409 808 286 1298 c 1
 286 626 l 2xe4
 286 431 315 237 315 42 c 0
 315 16 276 -2 243 -2 c 0
 219 -2 198 7 198 30 c 0xd0
 198 65 208 109 208 177 c 0
 208 371 182 688 182 812 c 2
 182 1073 l 2
 182 1198 196 1324 196 1449 c 2
 196 1462 l 2
 196 1508 204 1564 241 1564 c 0
 365 1564 654 228 655 225 c 1xe0
EndSplineSet
EndChar

StartChar: O
Encoding: 79 79 70
Width: 900
VWidth: 0
GlyphClass: 2
Flags: W
PickledData: "(dp1
S'org.pippin.gimp.org.kernagic'
p2
(dp3
S'lstem'
p4
I0
ssS'com.fontlab.hintData'
p5
(dp6
S'vhints'
p7
((dp8
S'position'
p9
I57
sS'width'
p10
I92
s(dp11
g9
I489
sg10
I93
stp12
sS'hhints'
p13
((dp14
g9
I-57
sg10
I112
s(dp15
g9
I1477
sg10
I108
stp16
ss."
HStem: -57 112<424.904 543.87> 1477 108<356.292 490.121>
VStem: 186 95<421.177 1289.3> 621 93<219.953 1083.58>
LayerCount: 2
Fore
SplineSet
405 1585 m 0
 698 1585 714 1071 714 736 c 0
 714 693 714 653 714 618 c 0
 714 531 697 446 696 359 c 1
 696 350 l 1
 686 306 683 261 683 215 c 0
 683 113 607 -57 487 -57 c 0
 215 -57 189 609 189 799 c 0
 189 863 186 948 186 1038 c 0
 186 1290 211 1585 405 1585 c 0
415 1477 m 0
 283 1477 281 979 281 861 c 2
 281 852 l 2
 281 720 326 55 491 55 c 0
 609 55 621 561 621 653 c 0
 621 797 616 1477 415 1477 c 0
EndSplineSet
EndChar

StartChar: OE
Encoding: 338 338 71
Width: 1260
VWidth: 0
GlyphClass: 2
Flags: W
PickledData: "(dp1
S'org.pippin.gimp.org.kernagic'
p2
(dp3
S'lstem'
p4
I0
ssS'com.fontlab.hintData'
p5
(dp6
S'vhints'
p7
((dp8
S'position'
p9
I51
sS'width'
p10
I94
s(dp11
g9
I647
sg10
I96
s(dp12
g9
I688
sg10
I100
stp13
sS'hhints'
p14
((dp15
g9
I-16
sg10
I101
s(dp16
g9
I9
sg10
I103
s(dp17
g9
I758
sg10
I96
s(dp18
g9
I1433
sg10
I92
s(dp19
g9
I1449
sg10
I102
stp20
ss."
HStem: -16 101<911 1044 1048 1190> 9 103<471.847 799.349> 758 96<897.423 1079.83> 1433 92<866 1142.83> 1449 102<401.804 729.043>
VStem: 174 94<376.712 1233.77> 770 96<1024.51 1406.6> 811 100<131.148 600.328>
LayerCount: 2
Fore
SplineSet
1044 87 m 1x35
 1048 85 l 1
 1077 85 l 2
 1131 85 1213 80 1213 25 c 2
 1213 18 l 1
 1190 -16 l 1xb5
 1082 -16 974 -22 866 -22 c 0
 840 -22 792 -6 792 26 c 1
 793 33 l 1
 758 22 722 9 684 9 c 0
 206 9 174 438 174 809 c 0
 174 1032 176 1551 495 1551 c 0x6e
 588 1551 691 1546 772 1494 c 1
 802 1537 l 1
 833 1537 863 1525 894 1525 c 2
 1046 1525 l 2
 1063 1525 1080 1528 1097 1529 c 1
 1119 1517 1144 1498 1144 1470 c 0
 1144 1439 1110 1426 1084 1426 c 0
 1011 1426 939 1432 866 1433 c 1x36
 866 1294 894 1157 894 1018 c 0
 894 983 890 948 890 913 c 0
 890 894 891 875 895 856 c 1
 957 854 l 1
 966 854 l 2
 983 854 998 855 1011 855 c 0
 1036 855 1056 850 1081 818 c 1
 1081 780 1067 754 1025 754 c 0
 991 754 959 758 925 758 c 0
 916 758 906 758 897 757 c 1
 897 531 910 306 911 80 c 1
 955 83 1000 87 1044 87 c 1x35
268 751 m 1
 300 689 280 241 380 232 c 1
 442 158 534 112 631 112 c 0
 664 112 811 122 811 168 c 0x6d
 811 569 776 970 770 1371 c 1
 712 1436 609 1449 527 1449 c 0x6e
 295 1449 268 1127 268 957 c 0
 268 911 269 865 269 820 c 0
 269 797 269 774 268 751 c 1
EndSplineSet
EndChar

StartChar: Oslash
Encoding: 216 216 79
Width: 900
VWidth: 0
GlyphClass: 2
Flags: W
PickledData: "(dp1
S'org.pippin.gimp.org.kernagic'
p2
(dp3
S'lstem'
p4
I0
ssS'com.fontlab.hintData'
p5
(dp6
S'vhints'
p7
((dp8
S'position'
p9
I100
sS'width'
p10
I95
s(dp11
g9
I535
sg10
I94
stp12
sS'hhints'
p13
((dp14
g9
I-57
sg10
I112
s(dp15
g9
I1477
sg10
I108
stp16
ss."
HStem: -57 112<410.91 531.87> 1477 108<344.292 483.064>
VStem: 174 95<422.125 1289.3> 609 94<219.953 1086.5>
LayerCount: 2
Fore
SplineSet
403 1477 m 0
 271 1477 269 979 269 861 c 2
 269 852 l 2
 269 785 281 581 314 396 c 1
 496 1415 l 1
 471 1454 440 1477 403 1477 c 0
545 1299 m 1
 350 239 l 1
 381 132 423 55 479 55 c 0
 597 55 609 561 609 653 c 0
 609 749 607 1087 545 1299 c 1
324 47 m 1
 252 -280 l 1
 207 -224 l 1
 269 143 l 1
 188 355 177 676 177 799 c 0
 177 863 174 948 174 1039 c 0
 174 1291 199 1585 393 1585 c 0
 442 1585 484 1571 519 1545 c 1
 564 1799 l 1
 643 1799 l 1
 579 1481 l 1
 694 1313 703 976 703 734 c 0
 703 692 702 653 702 618 c 0
 702 531 685 446 684 359 c 1
 684 350 l 1
 674 306 671 261 671 215 c 0
 671 113 595 -57 475 -57 c 0
 407 -57 365 -18 324 47 c 1
EndSplineSet
EndChar

StartChar: P
Encoding: 80 80 81
Width: 738
VWidth: 0
GlyphClass: 2
Flags: W
PickledData: "(dp1
S'org.pippin.gimp.org.kernagic'
p2
(dp3
S'lstem'
p4
I0
ssS'com.fontlab.hintData'
p5
(dp6
S'vhints'
p7
((dp8
S'position'
p9
I86
sS'width'
p10
I117
s(dp11
g9
I338
sg10
I105
stp12
sS'hhints'
p13
((dp14
g9
I1546
sg10
I20
stp15
ss."
HStem: -11 21G<240 283.5> 1546 20G<229 350.5>
VStem: 209 117<-7.11743 522.509> 461 105<960.641 1341.58>
LayerCount: 2
Fore
SplineSet
219 789 m 0
 219 1059 207 1327 166 1520 c 1
 184 1546 213 1566 245 1566 c 0
 456 1566 566 1365 566 1175 c 0
 566 983 484 805 310 712 c 1
 311 499 326 287 326 74 c 0
 326 30 309 -11 258 -11 c 0
 222 -11 209 29 209 58 c 0
 209 260 219 526 219 789 c 0
461 1158 m 2
 461 1159 l 2
 461 1334 418 1362 281 1459 c 1
 282 1243 304 1027 305 811 c 1
 409 909 461 1014 461 1158 c 2
EndSplineSet
EndChar

StartChar: Q
Encoding: 81 81 82
Width: 918
VWidth: 0
GlyphClass: 2
Flags: W
PickledData: "(dp1
S'org.pippin.gimp.org.kernagic'
p2
(dp3
S'lstem'
p4
I0
ssS'com.fontlab.hintData'
p5
(dp6
S'vhints'
p7
((dp8
S'position'
p9
I56
sS'width'
p10
I101
s(dp11
g9
I481
sg10
I112
stp12
sS'hhints'
p13
((dp14
g9
I-282
sg10
I113
s(dp15
g9
I1474
sg10
I102
stp16
ss."
HStem: -282 113<638.751 773.104> 1474 102<361.359 497.997>
VStem: 182 101<265.806 1091.4> 607 112<218.948 1315.06>
LayerCount: 2
Fore
SplineSet
399 1474 m 0
 292 1474 283 775 283 653 c 0
 283 522 297 95 474 80 c 1
 474 82 l 1
 484 99 510 108 530 108 c 1
 530 107 l 1
 590 162 607 252 607 327 c 2
 607 793 l 2
 607 818 607 847 607 878 c 0
 607 1109 596 1474 399 1474 c 0
719 659 m 2
 719 567 l 2
 719 369 712 236 593 70 c 1
 603 27 624 -169 680 -169 c 2
 688 -169 l 2
 724 -169 776 -171 776 -219 c 0
 776 -270 726 -282 685 -282 c 0
 654 -282 626 -268 600 -253 c 1
 600 -252 l 1
 502 -207 505 -69 486 20 c 1
 402 20 l 1
 208 149 182 359 182 574 c 0
 182 685 192 797 192 908 c 0
 192 943 190 994 190 1052 c 0
 190 1265 212 1576 416 1576 c 0
 694 1576 721 1186 721 868 c 0
 721 792 719 721 719 659 c 2
EndSplineSet
EndChar

StartChar: R
Encoding: 82 82 83
Width: 756
VWidth: 0
GlyphClass: 2
Flags: W
PickledData: "(dp1
S'org.pippin.gimp.org.kernagic'
p2
(dp3
S'lstem'
p4
I0
ssS'com.fontlab.hintData'
p5
(dp6
S'vhints'
p7
((dp8
S'position'
p9
I86
sS'width'
p10
I101
s(dp11
g9
I390
sg10
I124
stp12
sS'hhints'
p13
((dp14
g9
I1537
sg10
I20
stp15
ss."
HStem: -13 21G<226.5 267.5 559 601.5> 1537 20G<227.5 340.5>
VStem: 198 101<-12.2296 859 951 1463> 397 113<1024.35 1412.26> 502 124<-12.75 200.897>
LayerCount: 2
Fore
SplineSet
299 859 m 1xe8
 299 52 l 2
 299 17 293 -13 242 -13 c 0
 211 -13 190 12 190 44 c 2
 190 60 l 2
 190 460 198 861 198 1261 c 2
 198 1513 l 2
 198 1541 203 1557 252 1557 c 0
 429 1557 510 1370 510 1217 c 0xf0
 510 1097 458 985 415 876 c 1
 418 648 555 299 626 76 c 1
 626 71 l 2
 626 35 627 -21 576 -21 c 0
 542 -21 519 8 502 34 c 1
 502 41 l 1
 486 299 365 598 299 859 c 1xe8
395 1207 m 2
 396 1214 397 1223 397 1234 c 0
 397 1308 364 1451 303 1463 c 1
 302 1324 292 1184 292 1045 c 0
 292 1014 292 982 294 951 c 1
 319 975 342 1002 363 1030 c 1
 395 1207 l 2
EndSplineSet
EndChar

StartChar: S
Encoding: 83 83 87
Width: 774
VWidth: 0
GlyphClass: 2
Flags: W
PickledData: "(dp1
S'org.pippin.gimp.org.kernagic'
p2
(dp3
S'lstem'
p4
I0
ssS'com.fontlab.hintData'
p5
(dp6
S'vhints'
p7
((dp8
S'position'
p9
I63
sS'width'
p10
I117
s(dp11
g9
I356
sg10
I121
stp12
sS'hhints'
p13
((dp14
g9
I-45
sg10
I93
s(dp15
g9
I1456
sg10
I118
stp16
ss."
HStem: -45 93<186.799 394.393> 1456 118<418.082 497>
VStem: 183 117<1065.35 1430.07> 476 121<153.265 580.714>
LayerCount: 2
Fore
SplineSet
300 1290 m 0
 300 939 597 751 597 342 c 0
 597 179 509 -45 317 -45 c 0
 277 -45 158 -31 158 24 c 0
 158 52 172 79 204 79 c 0
 248 79 285 48 317 48 c 0
 430 48 476 268 476 355 c 0
 476 690 183 940 183 1275 c 0
 183 1408 257 1574 411 1574 c 0
 459 1574 513 1545 532 1500 c 1
 497 1456 l 1
 469 1456 440 1460 417 1476 c 1
 335 1468 300 1360 300 1290 c 0
EndSplineSet
EndChar

StartChar: T
Encoding: 84 84 93
Width: 720
VWidth: 0
GlyphClass: 2
Flags: W
PickledData: "(dp1
S'org.pippin.gimp.org.kernagic'
p2
(dp3
S'lstem'
p4
I109
ssS'com.fontlab.hintData'
p5
(dp6
S'vhints'
p7
((dp8
S'position'
p9
I215
sS'width'
p10
I102
s(dp11
g9
I227
sg10
I125
s(dp12
g9
I243
sg10
I92
stp13
sS'hhints'
p14
((dp15
g9
I1438
sg10
I112
stp16
ss."
HStem: -14 21G<391.5 443.5> 1438 112<431.328 584.91>
VStem: 339 102<615.456 1421.31> 351 125<-9.7756 410.891> 367 92<94.1094 844.58>
LayerCount: 2
Fore
SplineSet
441 925 m 0xe0
 441 765 459 615 459 454 c 0xc8
 459 331 476 209 476 86 c 0
 476 46 470 -14 417 -14 c 0
 366 -14 351 48 351 89 c 0xd0
 351 198 367 307 367 416 c 0xc8
 367 629 339 841 339 1054 c 0
 339 1093 342 1163 342 1233 c 0
 342 1311 338 1389 323 1424 c 1
 286 1422 249 1413 212 1413 c 0
 180 1413 145 1433 145 1469 c 0
 145 1539 464 1550 521 1550 c 0
 553 1550 587 1526 587 1492 c 0
 587 1457 557 1438 525 1438 c 0
 500 1438 476 1442 452 1442 c 0
 445 1442 438 1442 431 1441 c 1
 441 1357 445 1273 445 1189 c 0
 445 1102 441 1013 441 925 c 0xe0
EndSplineSet
EndChar

StartChar: Thorn
Encoding: 222 222 97
Width: 756
VWidth: 0
GlyphClass: 2
Flags: W
PickledData: "(dp1
S'org.pippin.gimp.org.kernagic'
p2
(dp3
S'lstem'
p4
I0
ssS'com.fontlab.hintData'
p5
(dp6
S'vhints'
p7
((dp8
S'position'
p9
I62
sS'width'
p10
I121
s(dp11
g9
I86
sg10
I117
s(dp12
g9
I337
sg10
I106
stp13
ss."
HStem: -11 21G<237 280.5> 1528 20G<213.5 263>
VStem: 182 121<851.734 1249 1343.84 1542.6> 206 117<-7.63279 495.298> 457 106<748.682 1145.59>
LayerCount: 2
Fore
SplineSet
457 948 m 0xc8
 457 1117 433 1147 304 1249 c 1
 298 1249 l 1
 298 1033 302 817 302 601 c 1
 406 699 457 804 457 948 c 0xc8
184 1297 m 1
 182 1487 l 2
 182 1522 194 1548 233 1548 c 0
 293 1548 303 1483 303 1424 c 0xe8
 303 1396 301 1370 301 1353 c 1
 482 1327 563 1128 563 965 c 0
 563 773 481 595 307 502 c 1
 308 359 323 217 323 74 c 0
 323 29 306 -11 255 -11 c 0
 219 -11 206 29 206 58 c 0xd8
 206 471 184 884 184 1297 c 1
EndSplineSet
EndChar

StartChar: U
Encoding: 85 85 98
Width: 936
VWidth: 0
GlyphClass: 2
Flags: W
PickledData: "(dp1
S'org.pippin.gimp.org.kernagic'
p2
(dp3
S'lstem'
p4
I0
ssS'com.fontlab.hintData'
p5
(dp6
S'vhints'
p7
((dp8
S'position'
p9
I52
sS'width'
p10
I120
s(dp11
g9
I476
sg10
I127
s(dp12
g9
I521
sg10
I104
stp13
sS'hhints'
p14
((dp15
g9
I-37
sg10
I72
stp16
ss."
HStem: -37 72<479.646 611.67>
VStem: 171 120<937.81 1476.3> 595 127<1339.97 1497> 640 104<51.85 725.598>
LayerCount: 2
Fore
SplineSet
173 1435 m 1xd0
 163 1446 158 1462 158 1477 c 0
 158 1509 184 1540 217 1540 c 0
 285 1540 291 1443 291 1394 c 0
 291 1157 310 919 310 682 c 1
 328 641 339 492 339 444 c 0
 339 335 414 35 555 35 c 0
 639 35 640 160 640 219 c 2
 640 619 l 2xd0
 640 748 614 876 614 1005 c 2
 614 1019 l 2
 614 1059 610 1098 610 1138 c 0
 610 1255 595 1372 595 1489 c 0
 595 1525 640 1545 672 1545 c 1
 722 1497 l 1
 722 1463 l 1xe0
 721 1421 707 1380 707 1338 c 0
 707 989 744 663 744 288 c 0
 744 137 724 -37 542 -37 c 0
 203 -37 171 607 171 1115 c 0
 171 1232 173 1342 173 1435 c 1xd0
EndSplineSet
EndChar

StartChar: V
Encoding: 86 86 109
Width: 810
VWidth: 0
GlyphClass: 2
Flags: W
PickledData: "(dp1
S'org.pippin.gimp.org.kernagic'
p2
(dp3
S'lstem'
p4
I0
ssS'com.fontlab.hintData'
p5
(dp6
S'hhints'
p7
((dp8
S'position'
p9
I1543
sS'width'
p10
I20
stp11
ss."
HStem: -34 21G<436 476.5> 1543 20G<170 219 613.5 666.391>
LayerCount: 2
Fore
SplineSet
183 1563 m 0
 255 1563 398 490 429 339 c 1
 474 733 554 1130 554 1528 c 1
 573 1552 598 1569 629 1569 c 1
 672 1546 l 1
 651 1356 508 -34 445 -34 c 0
 427 -34 409 -26 397 -12 c 1
 307 359 200 1167 126 1523 c 1
 134 1549 157 1563 183 1563 c 0
EndSplineSet
EndChar

StartChar: W
Encoding: 87 87 110
Width: 1026
VWidth: 0
GlyphClass: 2
Flags: W
PickledData: "(dp1
S'org.pippin.gimp.org.kernagic'
p2
(dp3
S'lstem'
p4
I0
ssS'com.fontlab.hintData'
p5
(dp6
S'vhints'
p7
((dp8
S'position'
p9
I218
sS'width'
p10
I134
s(dp11
g9
I357
sg10
I127
s(dp12
g9
I736
sg10
I116
stp13
sS'hhints'
p14
((dp15
g9
I1368
sg10
I20
stp16
ss."
HStem: -29 22G<309 359.5 643.5 709.5>
VStem: 270 134<-20.5019 482.15> 409 127<944.213 1384.59> 788 116<1063.91 1535.2>
LayerCount: 2
Fore
SplineSet
749 43 m 0
 749 5 731 -28 688 -28 c 0
 599 -28 501 788 482 893 c 1
 442 606 404 318 404 28 c 0
 404 -2 374 -29 345 -29 c 0
 273 -29 270 76 270 127 c 0
 270 250 110 1413 78 1491 c 1
 92 1517 118 1540 149 1540 c 0
 259 1540 310 645 331 503 c 1
 353 694 409 1115 409 1286 c 2
 409 1325 l 2
 409 1353 434 1388 463 1388 c 0
 502 1388 536 1374 536 1328 c 2
 536 1297 l 1
 537 1011 639 740 685 461 c 1
 720 809 788 1155 788 1506 c 0
 788 1561 799 1592 862 1592 c 0
 892 1592 925 1569 925 1536 c 0
 925 1519 916 1501 904 1489 c 1
 904 1011 749 523 749 43 c 0
EndSplineSet
EndChar

StartChar: X
Encoding: 88 88 115
Width: 756
VWidth: 0
GlyphClass: 2
Flags: W
PickledData: "(dp1
S'org.pippin.gimp.org.kernagic'
p2
(dp3
S'lstem'
p4
I0
ssS'com.typemytype.robofont.layerData'
p5
(dp6
sS'com.fontlab.hintData'
p7
(dp8
S'vhints'
p9
((dp10
S'position'
p11
I210
sS'width'
p12
I116
s(dp13
g11
I350
sg12
I116
stp14
ss."
HStem: -13 21G<194.5 213.5> 1530 20G<528.5 555>
VStem: 323 116<628.762 979.955>
LayerCount: 2
Fore
SplineSet
389 987 m 1
 433 1194 458 1329 478 1415 c 0
 501 1518 515 1550 542 1550 c 0
 568 1550 592 1536 592 1505 c 0
 592 1481 584 1439 572 1386 c 0
 531 1204 439 899 439 796 c 0
 439 765 529 323 545 248 c 0
 559 182 579 134 579 80 c 0
 579 50 573 26 543 26 c 0
 512 26 490 40 483 75 c 0
 451 238 414 481 380 628 c 1
 321 367 283 195 256 97 c 0
 236 21 221 -13 206 -13 c 0
 183 -13 150 2 150 26 c 0
 150 28 150 31 151 33 c 0
 203 237 251 430 283 578 c 0
 308 690 323 775 323 819 c 0
 323 868 319 900 280 1078 c 0
 262 1159 237 1271 202 1428 c 0
 199 1442 197 1455 197 1465 c 0
 197 1508 222 1520 243 1520 c 0
 293 1520 302 1428 360 1134 c 0
 368 1089 378 1041 389 987 c 1
EndSplineSet
EndChar

StartChar: Y
Encoding: 89 89 116
Width: 702
VWidth: 0
GlyphClass: 2
Flags: W
PickledData: "(dp1
S'org.pippin.gimp.org.kernagic'
p2
(dp3
S'lstem'
p4
I0
ssS'com.fontlab.hintData'
p5
(dp6
S'vhints'
p7
((dp8
S'position'
p9
I25
sS'width'
p10
I393
s(dp11
g9
I183
sg10
I131
s(dp12
g9
I212
sg10
I120
stp13
ss."
HStem: -25 21G<383.5 414> 1529 20G<199.5 246.5>
VStem: 158 393<1287 1534> 316 131<426.621 996.203> 345 120<-21.125 880.662>
LayerCount: 2
Fore
SplineSet
373 1006 m 1xe0
 389 1088 399 1539 497 1539 c 0
 511 1539 551 1539 551 1517 c 0xe0
 551 1287 453 1062 453 828 c 0
 453 804 446 781 447 757 c 1
 447 726 l 2xd0
 447 545 458 364 458 183 c 0
 458 151 465 119 465 87 c 0
 465 85 465 83 465 81 c 2
 465 35 l 2
 465 -2 431 -25 397 -25 c 0
 370 -25 345 -3 345 25 c 0xc8
 345 157 355 289 355 421 c 0
 355 541 316 656 316 776 c 0xd0
 316 1025 158 1267 158 1513 c 0
 158 1534 189 1549 210 1549 c 0
 283 1549 348 1093 373 1006 c 1xe0
EndSplineSet
EndChar

StartChar: Z
Encoding: 90 90 121
Width: 702
VWidth: 0
GlyphClass: 2
Flags: W
PickledData: "(dp1
S'org.pippin.gimp.org.kernagic'
p2
(dp3
S'lstem'
p4
I0
ssS'com.fontlab.hintData'
p5
(dp6
S'vhints'
p7
((dp8
S'position'
p9
I34
sS'width'
p10
I354
stp11
sS'hhints'
p12
((dp13
g9
I-19
sg10
I104
s(dp14
g9
I1441
sg10
I102
s(dp15
g9
I1544
sg10
I20
stp16
ss."
HStem: -19 104<293 477> 1441 102<200.976 412.319> 1530 34G<213 222.5 432 480>
VStem: 166 354
LayerCount: 2
Fore
SplineSet
293 85 m 1xb0
 316 86 359 93 401 93 c 0
 456 93 509 81 509 30 c 2
 509 21 l 1
 477 -11 l 1
 393 -11 308 -19 224 -19 c 0
 193 -19 176 5 166 31 c 1
 269 197 399 1235 413 1451 c 1
 388 1449 341 1441 296 1441 c 0
 239 1441 185 1453 185 1506 c 2
 185 1515 l 1
 213 1549 l 1
 213 1550 l 1
 232 1545 251 1543 271 1543 c 0xd0
 335 1543 400 1564 464 1564 c 0
 496 1564 520 1536 520 1505 c 0
 520 1051 398 494 293 85 c 1xb0
EndSplineSet
EndChar

StartChar: a
Encoding: 97 97 125
Width: 810
VWidth: 0
GlyphClass: 2
Flags: W
PickledData: "(dp1
S'org.pippin.gimp.org.kernagic'
p2
(dp3
S'lstem'
p4
I0
ssS'com.fontlab.hintData'
p5
(dp6
S'vhints'
p7
((dp8
S'position'
p9
I405
sS'width'
p10
I113
s(dp11
g9
I454
sg10
I125
stp12
sS'hhints'
p13
((dp14
g9
I1353
sg10
I20
stp15
ss."
HStem: -11 21G<184 244 612.5 648.5> 1353 20G<369.5 473> 1353 20G<369.5 473>
VStem: 497 113<376.172 858> 546 125<-14.1442 301.879>
LayerCount: 2
Fore
SplineSet
503 375 m 1x90
 498 400 497 425 497 451 c 0
 497 680 462 907 442 1134 c 1
 399 897 340 551 322 408 c 1
 357 385 459 378 503 375 c 1x90
516 302 m 1
 314 332 l 1
 270 174 289 -11 199 -11 c 0
 169 -11 134 11 134 44 c 0
 134 49 138 57 139 62 c 0
 226 397 299 759 344 1100 c 0
 353 1169 351 1317 388 1373 c 1
 457 1373 l 2
 489 1373 527 1359 527 1321 c 0
 527 1016 610 693 610 416 c 0xd0
 610 376 632 330 632 290 c 0
 632 239 671 99 671 41 c 2
 671 39 l 2
 671 15 660 -10 637 -19 c 1
 588 -19 546 -10 546 49 c 0xc8
 546 136 516 302 516 302 c 1
EndSplineSet
EndChar

StartChar: acute
Encoding: 180 180 129
Width: 702
VWidth: 0
GlyphClass: 2
Flags: W
PickledData: "(dp1
S'org.pippin.gimp.org.kernagic'
p2
(dp3
S'lstem'
p4
I0
ssS'com.fontlab.hintData'
p5
(dp6
S'vhints'
p7
((dp8
S'position'
p9
I41
sS'width'
p10
I363
stp11
sS'hhints'
p12
((dp13
g9
I1291
sg10
I286
stp14
ss."
HStem: 1291 286
VStem: 198 363
LayerCount: 2
Fore
SplineSet
209 1339 m 0
 293 1417 429 1528 477 1573 c 1
 483 1575 488 1577 494 1577 c 0
 528 1577 561 1534 561 1500 c 0
 561 1487 556 1475 546 1468 c 0
 486 1424 324 1335 248 1295 c 0
 242 1292 237 1291 231 1291 c 0
 214 1291 198 1303 198 1318 c 0
 198 1325 201 1332 209 1339 c 0
EndSplineSet
EndChar

StartChar: ae
Encoding: 230 230 131
Width: 1026
VWidth: 0
GlyphClass: 2
Flags: W
PickledData: "(dp1
S'org.pippin.gimp.org.kernagic'
p2
(dp3
S'lstem'
p4
I0
ssS'com.fontlab.hintData'
p5
(dp6
S'vhints'
p7
((dp8
S'position'
p9
I44
sS'width'
p10
I135
s(dp11
g9
I461
sg10
I95
stp12
sS'hhints'
p13
((dp14
g9
I-14
sg10
I96
s(dp15
g9
I597
sg10
I88
s(dp16
g9
I597
sg10
I79
s(dp17
g9
I1240
sg10
I114
stp18
ss."
HStem: -14 96<629 852.438> 1 21G<146.5 192> 597 88<626.484 782> 597 79<376.391 527 624 779.516> 1240 114<618.091 810>
VStem: 118 135<47.1433 274.97> 535 95<84.3766 593 676 1083>
LayerCount: 2
Fore
SplineSet
567 -13 m 0xae
 551 -13 525 -1 525 19 c 0
 525 96 541 175 541 253 c 0
 541 366 531 480 531 593 c 1
 472 588 411 590 354 571 c 1
 253 226 l 2
 239 177 226 1 158 1 c 0
 135 1 118 27 118 48 c 0
 118 246 390 949 470 1180 c 0
 493 1247 501 1332 586 1344 c 0
 639 1351 690 1354 744 1354 c 0
 781 1354 831 1345 831 1298 c 2
 831 1292 l 1
 810 1250 l 1
 746 1240 681 1240 616 1240 c 1
 618 1149 630 1058 630 966 c 0
 630 869 624 773 624 676 c 1x5e
 677 678 729 685 782 685 c 1
 824 647 l 1
 824 602 765 597 724 597 c 2
 702 597 l 1
 623 598 l 1
 624 426 629 254 629 82 c 1
 705 83 780 103 856 103 c 0
 885 103 924 87 924 53 c 0
 924 -7 755 -14 647 -14 c 0
 611 -14 581 -13 567 -13 c 0xae
527 666 m 1
 529 762 535 857 535 953 c 0
 535 996 535 1040 533 1083 c 1
 475 940 414 797 374 648 c 1
 425 650 477 655 527 666 c 1
EndSplineSet
EndChar

StartChar: ampersand
Encoding: 38 38 135
Width: 990
VWidth: 0
GlyphClass: 2
Flags: W
PickledData: "(dp1
S'org.pippin.gimp.org.kernagic'
p2
(dp3
S'lstem'
p4
I0
ssS'com.fontlab.hintData'
p5
(dp6
S'vhints'
p7
((dp8
S'position'
p9
I48
sS'width'
p10
I95
s(dp11
g9
I216
sg10
I93
s(dp12
g9
I462
sg10
I92
s(dp13
g9
I605
sg10
I92
stp14
sS'hhints'
p15
((dp16
g9
I18
sg10
I85
s(dp17
g9
I19
sg10
I93
s(dp18
g9
I613
sg10
I83
s(dp19
g9
I1450
sg10
I94
stp20
ss."
HStem: 18 85<289.174 535.243> 19 93<688.066 880> 613 83<625.417 655.758> 1450 94<366.299 472.344>
VStem: 102 95<202.653 646.229> 270 93<993 1449.02> 516 92<1156.94 1407.3> 659 92<290.853 609>
LayerCount: 2
Fore
SplineSet
363 1291 m 2x3f
 363 1199 366 1108 366 1016 c 2
 366 993 l 1
 424 1065 516 1213 516 1291 c 0
 516 1334 466 1450 415 1450 c 0
 397 1450 379 1436 363 1400 c 1
 363 1291 l 2x3f
857 722 m 1
 885 716 915 701 915 668 c 0
 915 621 846 612 808 612 c 0
 806 612 804 613 802 613 c 2
 751 613 l 1
 751 516 750 285 667 175 c 1
 701 140 747 112 797 112 c 0
 825 112 852 118 880 118 c 1
 918 87 l 1
 918 26 863 19 814 19 c 0x7f
 740 19 675 53 616 96 c 1
 544 47 473 18 385 18 c 0xbf
 219 18 102 202 102 354 c 0
 102 600 175 733 284 945 c 1
 283 1039 270 1132 270 1226 c 2
 270 1396 l 2
 270 1502 329 1544 398 1544 c 0
 494 1544 608 1463 608 1360 c 0
 608 1188 546 1065 442 944 c 1
 427 917 390 876 390 846 c 0
 390 734 519 318 595 238 c 1
 645 352 659 477 659 600 c 2
 659 609 l 1
 636 609 634 624 625 644 c 1
 625 696 l 1
 681 696 806 705 857 722 c 1
305 789 m 1
 230 671 197 528 197 389 c 0
 197 262 251 103 403 103 c 0xbf
 444 103 524 128 553 158 c 1
 422 347 345 546 305 789 c 1
EndSplineSet
EndChar

StartChar: asciicircum
Encoding: 94 94 138
Width: 594
VWidth: 0
GlyphClass: 2
Flags: W
PickledData: "(dp1
S'org.pippin.gimp.org.kernagic'
p2
(dp3
S'lstem'
p4
I0
ssS'com.fontlab.hintData'
p5
(dp6
S'vhints'
p7
((dp8
S'position'
p9
I73
sS'width'
p10
I137
stp11
sS'hhints'
p12
((dp13
g9
I1515
sg10
I141
stp14
ss."
HStem: 1515 141<260.964 385.062>
VStem: 254 137<1519.19 1649.41>
LayerCount: 2
Fore
SplineSet
254 1575 m 0
 254 1612 274 1656 317 1656 c 0
 357 1656 391 1623 391 1583 c 0
 391 1546 365 1515 327 1515 c 0
 290 1515 254 1534 254 1575 c 0
EndSplineSet
EndChar

StartChar: asciitilde
Encoding: 126 126 139
Width: 972
VWidth: 0
GlyphClass: 2
Flags: W
PickledData: "(dp1
S'org.pippin.gimp.org.kernagic'
p2
(dp3
S'lstem'
p4
I0
ssS'com.fontlab.hintData'
p5
(dp6
S'vhints'
p7
((dp8
S'position'
p9
I9
sS'width'
p10
I647
stp11
sS'hhints'
p12
((dp13
g9
I1038
sg10
I103
s(dp14
g9
I1125
sg10
I99
stp15
ss."
HStem: 1038 103<475.059 693.589> 1125 99<260.794 400.523>
VStem: 158 647<1099 1139>
LayerCount: 2
Fore
SplineSet
738 1223 m 0xa0
 785 1223 805 1194 805 1170 c 0
 805 1099 744 1038 673 1038 c 0xa0
 389 1038 365 1121 285 1125 c 1
 237 1107 286 1065 232 1046 c 1
 195 1046 158 1063 158 1105 c 0
 158 1167 211 1224 306 1224 c 0x60
 404 1224 565 1141 649 1141 c 0
 708 1141 678 1223 738 1223 c 0xa0
EndSplineSet
EndChar

StartChar: asterisk
Encoding: 42 42 140
Width: 954
VWidth: 0
GlyphClass: 2
Flags: W
PickledData: "(dp1
S'org.pippin.gimp.org.kernagic'
p2
(dp3
S'lstem'
p4
I0
ssS'com.fontlab.hintData'
p5
(dp6
S'vhints'
p7
((dp8
S'position'
p9
I598
sS'width'
p10
I130
stp11
sS'hhints'
p12
((dp13
g9
I1096
sg10
I100
s(dp14
g9
I1547
sg10
I20
stp15
ss."
HStem: 1096 100<69.3595 358 517.452 845.298> 1547 20G<546 596.5>
VStem: 531 130<711.147 821>
LayerCount: 2
Fore
SplineSet
516 1194 m 1
 547 1190 577 1189 608 1189 c 0
 635 1189 692 1199 743 1199 c 0
 798 1199 847 1187 847 1137 c 0
 847 1096 811 1085 776 1085 c 0
 687 1085 598 1094 509 1094 c 1
 539 1015 661 819 661 752 c 0
 661 723 638 700 609 700 c 0
 552 700 533 776 531 821 c 1
 444 1011 l 1
 404 910 367 782 310 690 c 1
 261 690 l 1
 217 736 l 1
 216 745 l 1
 221 817 343 1012 372 1096 c 1
 147 1096 l 2
 142 1096 136 1096 131 1096 c 0
 94 1096 69 1099 69 1150 c 0
 69 1175 89 1196 115 1196 c 2
 358 1196 l 1
 331 1250 222 1455 222 1501 c 0
 222 1531 251 1547 278 1547 c 0
 334 1547 404 1307 429 1258 c 1
 449 1317 510 1567 582 1567 c 0
 611 1567 639 1542 639 1512 c 0
 639 1444 546 1268 516 1194 c 1
EndSplineSet
EndChar

StartChar: at
Encoding: 64 64 141
Width: 1260
VWidth: 0
GlyphClass: 2
Flags: W
PickledData: "(dp1
S'org.pippin.gimp.org.kernagic'
p2
(dp3
S'lstem'
p4
I0
ssS'com.fontlab.hintData'
p5
(dp6
S'vhints'
p7
((dp8
S'position'
p9
I15
sS'width'
p10
I121
s(dp11
g9
I258
sg10
I107
s(dp12
g9
I638
sg10
I150
s(dp13
g9
I870
sg10
I115
stp14
sS'hhints'
p15
((dp16
g9
I-120
sg10
I89
s(dp17
g9
I306
sg10
I104
s(dp18
g9
I1246
sg10
I105
s(dp19
g9
I1612
sg10
I107
stp20
ss."
HStem: -120 89<460.984 788.746> 306 104<571.615 704.731> 1246 105<568.078 686.3> 1612 107<433.251 757.104>
VStem: 150 121<496.455 1393.42> 393 107<509.431 1147.44> 773 150<556 973.661> 1005 115<518.392 1215.27>
LayerCount: 2
Fore
SplineSet
565 -120 m 0
 152 -120 150 685 150 956 c 0
 150 1262 158 1719 613 1719 c 0
 1041 1719 1120 1150 1120 767 c 0
 1120 645 1116 406 944 406 c 0
 905 406 869 459 841 519 c 1
 797 398 713 306 622 306 c 0
 395 306 393 661 393 851 c 0
 393 1047 397 1351 626 1351 c 0
 894 1351 894 818 923 565 c 1
 923 556 l 1
 952 510 l 1
 1000 536 1005 723 1005 776 c 0
 1005 1092 948 1612 603 1612 c 0
 287 1612 271 1300 271 1050 c 0
 271 1010 271 970 271 930 c 0
 271 688 279 -31 569 -31 c 0
 865 -31 929 150 1011 150 c 0
 1023 150 1029 142 1029 130 c 0
 1029 72 879 -120 565 -120 c 0
626 1246 m 0
 544 1246 500 1035 500 825 c 0
 500 617 544 410 638 410 c 0
 700 410 773 550 773 605 c 2
 773 759 l 2
 773 875 747 1246 626 1246 c 0
EndSplineSet
EndChar

StartChar: b
Encoding: 98 98 143
Width: 702
VWidth: 0
GlyphClass: 2
Flags: W
PickledData: "(dp1
S'org.pippin.gimp.org.kernagic'
p2
(dp3
S'lstem'
p4
I0
ssS'com.fontlab.hintData'
p5
(dp6
S'vhints'
p7
((dp8
S'position'
p9
I65
sS'width'
p10
I116
s(dp11
g9
I83
sg10
I111
s(dp12
g9
I302
sg10
I117
s(dp13
g9
I321
sg10
I110
stp14
sS'hhints'
p15
((dp16
g9
I1363
sg10
I20
stp17
ss."
HStem: -20 21G<215 356> 1363 20G<238 364.5>
VStem: 182 116<85.8323 544.253> 200 111<94.8423 185.859 188.111 643 763 1286.02> 419 117<798.795 1243.82> 438 110<153.277 572.671>
LayerCount: 2
Fore
SplineSet
311 1068 m 2xd8
 311 763 l 1
 413 766 419 939 419 1012 c 0
 419 1076 420 1278 335 1288 c 1
 316 1247 311 1128 311 1068 c 2xd8
305 333 m 0
 305 278 298 231 298 186 c 0
 298 183 300 179 300 176 c 2
 300 84 l 1
 399 107 438 217 438 308 c 0xe4
 438 400 429 619 314 643 c 1
 307 540 305 436 305 333 c 0
453 705 m 1
 542 620 548 475 548 360 c 0
 548 167 466 -20 246 -20 c 0
 184 -20 182 42 182 88 c 0xe4
 182 234 202 378 202 524 c 0
 202 740 211 957 211 1173 c 0
 211 1208 202 1244 200 1279 c 1
 200 1290 l 2
 200 1338 209 1383 267 1383 c 0
 462 1383 536 1212 536 1028 c 0xd8
 536 883 514 791 453 705 c 1
EndSplineSet
EndChar

StartChar: backslash
Encoding: 92 92 144
Width: 756
VWidth: 0
GlyphClass: 2
Flags: W
PickledData: "(dp1
S'org.pippin.gimp.org.kernagic'
p2
(dp3
S'lstem'
p4
I0
ssS'com.fontlab.hintData'
p5
(dp6
S'vhints'
p7
((dp8
S'position'
p9
I36
sS'width'
p10
I441
stp11
sS'hhints'
p12
((dp13
g9
I1535
sg10
I20
stp14
ss."
HStem: 1535 20G<183 256.5>
VStem: 142 441
LayerCount: 2
Fore
SplineSet
583 31 m 0
 583 6 558 -17 537 -30 c 1
 537 -31 l 1
 415 -31 221 1145 184 1312 c 0
 170 1376 142 1439 142 1505 c 0
 142 1535 169 1555 197 1555 c 0
 316 1555 583 127 583 31 c 0
EndSplineSet
EndChar

StartChar: bar
Encoding: 124 124 145
Width: 576
VWidth: 0
GlyphClass: 2
Flags: W
PickledData: "(dp1
S'org.pippin.gimp.org.kernagic'
p2
(dp3
S'lstem'
p4
I0
ssS'com.fontlab.hintData'
p5
(dp6
S'vhints'
p7
((dp8
S'position'
p9
I143
sS'width'
p10
I103
stp11
sS'hhints'
p12
((dp13
g9
I1564
sg10
I20
stp14
ss."
HStem: 1564 20G<269 306>
VStem: 236 103<-78.9622 1583.27>
LayerCount: 2
Fore
SplineSet
236 114 m 0
 236 580 222 1045 222 1510 c 0
 222 1556 245 1584 293 1584 c 0
 319 1584 335 1556 335 1533 c 0
 335 1148 339 763 339 379 c 2
 339 -29 l 2
 339 -57 315 -80 287 -80 c 0
 235 -80 236 82 236 114 c 0
EndSplineSet
EndChar

StartChar: braceleft
Encoding: 123 123 146
Width: 774
VWidth: 0
GlyphClass: 2
Flags: W
PickledData: "(dp1
S'org.pippin.gimp.org.kernagic'
p2
(dp3
S'lstem'
p4
I0
ssS'com.fontlab.hintData'
p5
(dp6
S'vhints'
p7
((dp8
S'position'
p9
I240
sS'width'
p10
I96
stp11
sS'hhints'
p12
((dp13
g9
I-48
sg10
I87
s(dp14
g9
I1408
sg10
I87
stp15
ss."
HStem: -48 87<364.595 562.656> 1408 87<372.527 562.704>
VStem: 249 96<52.3438 712.803 825.053 1225.19 1226.84 1387.13>
LayerCount: 2
Fore
SplineSet
452 -48 m 0
 287 -48 249 52 249 198 c 2
 249 621 l 2
 249 785 110 673 110 766 c 0
 110 866 249 754 249 916 c 0
 249 958 239 1054 239 1130 c 0
 239 1173 242 1209 252 1226 c 1
 249 1244 247 1262 247 1280 c 0
 247 1399 315 1495 452 1495 c 0
 486 1495 595 1482 595 1435 c 0
 595 1404 565 1389 538 1389 c 0
 503 1389 472 1408 437 1408 c 0
 339 1408 339 1222 339 1157 c 0
 339 1106 347 1024 347 947 c 0
 347 875 340 806 311 768 c 1
 343 728 345 672 345 622 c 2
 345 182 l 2
 345 118 355 39 437 39 c 0
 479 39 516 62 558 62 c 0
 570 62 575 25 575 16 c 0
 575 -36 490 -48 452 -48 c 0
EndSplineSet
EndChar

StartChar: braceright
Encoding: 125 125 147
Width: 774
VWidth: 0
GlyphClass: 2
Flags: W
PickledData: "(dp1
S'org.pippin.gimp.org.kernagic'
p2
(dp3
S'lstem'
p4
I0
ssS'com.fontlab.hintData'
p5
(dp6
S'vhints'
p7
((dp8
S'position'
p9
I347
sS'width'
p10
I100
stp11
sS'hhints'
p12
((dp13
g9
I-48
sg10
I87
s(dp14
g9
I1408
sg10
I87
stp15
ss."
HStem: -48 87<214.296 404.191> 1408 87<214.344 399.918>
VStem: 428 100<56.5012 220.11 221.724 674.84 782.323 1389.25>
LayerCount: 2
Fore
SplineSet
325 1495 m 0
 488 1495 526 1394 527 1249 c 2
 528 876 l 2
 528 712 657 821 657 731 c 0
 657 630 528 745 528 581 c 0
 528 538 536 421 536 330 c 0
 536 279 534 236 525 221 c 1
 528 202 529 184 529 166 c 0
 529 47 462 -48 325 -48 c 0
 291 -48 182 -35 182 12 c 0
 182 43 212 58 239 58 c 0
 274 58 305 39 340 39 c 0
 437 39 438 224 438 289 c 0
 438 346 428 443 428 534 c 0
 428 615 436 691 466 729 c 1
 434 770 429 825 429 875 c 0
 429 915 439 1021 439 1127 c 0
 439 1267 422 1408 340 1408 c 0
 298 1408 261 1385 219 1385 c 0
 207 1385 202 1422 202 1431 c 0
 202 1483 287 1495 325 1495 c 0
EndSplineSet
EndChar

StartChar: bracketleft
Encoding: 91 91 148
Width: 702
VWidth: 0
GlyphClass: 2
Flags: W
PickledData: "(dp1
S'org.pippin.gimp.org.kernagic'
p2
(dp3
S'lstem'
p4
I0
ssS'com.fontlab.hintData'
p5
(dp6
S'vhints'
p7
((dp8
S'position'
p9
I42
sS'width'
p10
I110
s(dp11
g9
I138
sg10
I94
stp12
sS'hhints'
p13
((dp14
g9
I-112
sg10
I118
s(dp15
g9
I1478
sg10
I99
stp16
ss."
HStem: -112 118<280.822 469.416> 1478 99<355.942 557.141>
VStem: 166 110<6 414.613> 262 94<1053.75 1478>
LayerCount: 2
Fore
SplineSet
276 48 m 2xe0
 276 6 l 1
 297 6 l 2
 361 6 479 2 479 -68 c 0
 479 -103 440 -112 413 -112 c 0
 362 -112 166 -108 166 -35 c 0xe0
 166 134 209 301 209 470 c 0
 209 808 262 1142 262 1480 c 0
 262 1495 260 1508 260 1519 c 0
 260 1548 267 1563 301 1577 c 1
 379 1577 l 2
 421 1577 565 1572 565 1511 c 0
 565 1481 535 1465 509 1465 c 0
 470 1465 433 1478 394 1478 c 0
 381 1478 356 1478 356 1458 c 0xd0
 356 987 276 502 276 48 c 2xe0
EndSplineSet
EndChar

StartChar: bracketright
Encoding: 93 93 149
Width: 828
VWidth: 0
GlyphClass: 2
Flags: W
PickledData: "(dp1
S'org.pippin.gimp.org.kernagic'
p2
(dp3
S'lstem'
p4
I0
ssS'com.fontlab.hintData'
p5
(dp6
S'vhints'
p7
((dp8
S'position'
p9
I240
sS'width'
p10
I96
s(dp11
g9
I321
sg10
I112
stp12
sS'hhints'
p13
((dp14
g9
I-112
sg10
I118
s(dp15
g9
I1465
sg10
I112
stp16
ss."
HStem: -112 118<350.106 539.631> 1465 112<262.184 462>
VStem: 462 96<1056.06 1476> 543 112<6 415.954>
LayerCount: 2
Fore
SplineSet
407 -112 m 0xd0
 378 -112 340 -103 340 -68 c 0
 340 11 491 5 543 6 c 1
 543 48 l 1xd0
 530 519 462 986 462 1458 c 2
 462 1476 l 1
 417 1475 373 1465 328 1465 c 0
 297 1465 254 1471 254 1511 c 0
 254 1573 404 1577 447 1577 c 0
 463 1577 477 1578 489 1578 c 0
 538 1578 558 1569 558 1481 c 0xe0
 558 1156 614 835 614 510 c 0
 614 327 655 148 655 -35 c 0
 655 -108 458 -112 407 -112 c 0xd0
EndSplineSet
EndChar

StartChar: breve
Encoding: 728 728 150
Width: 738
VWidth: 0
GlyphClass: 2
Flags: W
PickledData: "(dp1
S'org.pippin.gimp.org.kernagic'
p2
(dp3
S'lstem'
p4
I0
ssS'com.fontlab.hintData'
p5
(dp6
S'vhints'
p7
((dp8
S'position'
p9
I350
sS'width'
p10
I108
stp11
sS'hhints'
p12
((dp13
g9
I867
sg10
I95
stp14
ss."
HStem: 867 95<308.333 415.178>
VStem: 426 108<965.474 1048 1048.34 1131.85>
LayerCount: 2
Fore
SplineSet
534 1032 m 1
 534 1031 l 1
 497 945 471 867 362 867 c 0
 235 867 190 992 190 1100 c 2
 190 1110 l 1
 228 1142 l 1
 299 1142 280 1001 336 962 c 1
 380 962 l 2
 401 962 426 1025 426 1043 c 0
 426 1088 426 1133 484 1133 c 0
 512 1133 538 1110 538 1081 c 0
 538 1075 532 1055 530 1048 c 1
 534 1032 l 1
EndSplineSet
EndChar

StartChar: brokenbar
Encoding: 166 166 151
Width: 576
VWidth: 0
GlyphClass: 2
Flags: W
PickledData: "(dp1
S'org.pippin.gimp.org.kernagic'
p2
(dp3
S'lstem'
p4
I0
ssS'com.fontlab.hintData'
p5
(dp6
S'vhints'
p7
((dp8
S'position'
p9
I104
sS'width'
p10
I116
stp11
sS'hhints'
p12
((dp13
g9
I1564
sg10
I20
stp14
ss."
HStem: 1564 20G<269 312>
VStem: 222 116<-75.4689 692.678 831.432 1580.46>
LayerCount: 2
Fore
SplineSet
230 1020 m 0
 230 1183 222 1348 222 1510 c 0
 222 1556 245 1584 293 1584 c 0
 331 1584 338 1481 338 1393 c 0
 338 1346 336 1304 336 1285 c 2
 333 877 l 2
 333 849 309 826 281 826 c 0
 229 826 230 988 230 1020 c 0
275 695 m 0
 321 695 336 662 336 621 c 2
 338 -16 l 2
 338 -50 326 -80 287 -80 c 0
 259 -80 235 -57 235 -29 c 2
 232 339 l 1
 233 644 l 2
 233 668 249 695 275 695 c 0
EndSplineSet
EndChar

StartChar: bullet
Encoding: 8226 8226 152
Width: 774
VWidth: 0
GlyphClass: 2
Flags: W
PickledData: "(dp1
S'org.pippin.gimp.org.kernagic'
p2
(dp3
S'lstem'
p4
I0
ssS'com.fontlab.hintData'
p5
(dp6
S'vhints'
p7
((dp8
S'position'
p9
I105
sS'width'
p10
I432
stp11
sS'hhints'
p12
((dp13
g9
I485
sg10
I526
stp14
ss."
HStem: 485 526<281.976 497.586>
VStem: 166 432<600.125 881.034>
LayerCount: 2
Fore
SplineSet
166 727 m 0
 166 814 205 878 235 920 c 1
 248 947 332 1011 362 1011 c 0
 552 1011 598 866 598 779 c 0
 598 694 561 485 371 485 c 0
 257 485 167 595 167 665 c 0
 167 687 166 705 166 727 c 0
EndSplineSet
EndChar

StartChar: c
Encoding: 99 99 153
Width: 774
VWidth: 0
GlyphClass: 2
Flags: W
PickledData: "(dp1
S'org.pippin.gimp.org.kernagic'
p2
(dp3
S'lstem'
p4
I0
ssS'com.fontlab.hintData'
p5
(dp6
S'vhints'
p7
((dp8
S'position'
p9
I46
sS'width'
p10
I131
stp11
sS'hhints'
p12
((dp13
g9
I-29
sg10
I108
s(dp14
g9
I1258
sg10
I106
stp15
ss."
HStem: -29 108<373.051 560.709> 1258 106<386.907 586.139>
VStem: 174 131<151.668 1129.34>
LayerCount: 2
Fore
SplineSet
524 1364 m 0
 569 1364 587 1338 587 1312 c 0
 587 1286 569 1260 543 1258 c 1
 447 1258 l 2
 327 1258 305 913 305 827 c 2
 305 817 l 2
 305 685 296 554 296 422 c 0
 296 286 308 79 490 79 c 0
 506 79 522 86 534 97 c 1
 562 97 596 85 596 52 c 0
 596 -9 544 -29 483 -29 c 0
 418 -29 342 -6 311 14 c 0
 183 97 175 359 175 495 c 0
 175 527 174 569 174 615 c 2
 174 664 l 2
 174 1005 182 1364 524 1364 c 0
EndSplineSet
EndChar

StartChar: caron
Encoding: 711 711 155
Width: 702
VWidth: 0
GlyphClass: 2
Flags: W
PickledData: "(dp1
S'org.pippin.gimp.org.kernagic'
p2
(dp3
S'lstem'
p4
I0
ssS'com.fontlab.hintData'
p5
(dp6
S'vhints'
p7
((dp8
S'position'
p9
I94
sS'width'
p10
I310
stp11
sS'hhints'
p12
((dp13
g9
I928
sg10
I428
s(dp14
g9
I1336
sg10
I20
stp15
ss."
HStem: 928 428 1336 20G<226.5 265.5>
VStem: 190 310<1310 1339>
LayerCount: 2
Fore
SplineSet
190 1317 m 0xa0
 190 1339 214 1356 239 1356 c 0x60
 292 1356 348 1105 367 1051 c 1
 384 1148 387 1363 457 1363 c 0
 480 1363 500 1347 500 1320 c 0
 500 1310 487 1298 485 1289 c 1
 485 1252 l 2
 485 1240 427 1050 427 994 c 0
 427 960 414 928 375 928 c 0
 316 928 190 1253 190 1317 c 0xa0
EndSplineSet
EndChar

StartChar: cedilla
Encoding: 184 184 160
Width: 648
VWidth: 0
GlyphClass: 2
Flags: W
PickledData: "(dp1
S'org.pippin.gimp.org.kernagic'
p2
(dp3
S'lstem'
p4
I0
ssS'com.fontlab.hintData'
p5
(dp6
S'vhints'
p7
((dp8
S'position'
p9
I91
sS'width'
p10
I49
s(dp11
g9
I262
sg10
I87
stp12
sS'hhints'
p13
((dp14
g9
I-484
sg10
I81
s(dp15
g9
I-219
sg10
I128
stp16
ss."
HStem: -484 81<216.615 379.234> -219 128<273.59 380.731>
VStem: 223 49<-93.9224 18> 394 87<-394.919 -233.138>
LayerCount: 2
Fore
SplineSet
317 -403 m 0
 369 -403 394 -356 394 -304 c 0
 394 -264 360 -219 296 -219 c 0
 260 -219 217 -218 214 -207 c 1
 214 -151 223 -99 223 -41 c 0
 223 -20 223 -2 229 18 c 1
 285 18 l 1
 278 -18 274 -54 272 -91 c 1
 429 -112 481 -216 481 -318 c 0
 481 -397 397 -484 312 -484 c 0
 261 -484 190 -467 190 -425 c 0
 190 -400 212 -381 236 -381 c 0
 266 -381 288 -403 317 -403 c 0
EndSplineSet
EndChar

StartChar: cent
Encoding: 162 162 161
Width: 846
VWidth: 0
GlyphClass: 2
Flags: W
PickledData: "(dp1
S'org.pippin.gimp.org.kernagic'
p2
(dp3
S'lstem'
p4
I0
ssS'com.fontlab.hintData'
p5
(dp6
S'vhints'
p7
((dp8
S'position'
p9
I54
sS'width'
p10
I99
s(dp11
g9
I206
sg10
I84
s(dp12
g9
I288
sg10
I95
stp13
ss."
HStem: -20 21G<424.286 468>
VStem: 174 99<495.254 1082.04> 326 84<1255.8 1443.47> 408 95<12.8484 64.2493 67.1562 299.781 424.184 820.127>
LayerCount: 2
Fore
SplineSet
338 1125 m 1xc0
 286 1049 273 882 273 790 c 0
 273 699 277 444 396 424 c 1
 395 656 383 897 338 1125 c 1xc0
404 203 m 1
 401 202 l 1
 401 239 409 276 409 313 c 1
 177 402 174 560 174 777 c 0
 174 943 179 1156 337 1254 c 1
 333 1292 326 1330 326 1368 c 0
 326 1403 332 1456 378 1456 c 2
 385 1456 l 1
 415 1436 l 1
 412 1414 410 1393 410 1371 c 0xe0
 410 1332 415 1293 420 1254 c 1
 479 1236 597 1218 604 1140 c 1
 602 1140 l 1
 602 1135 l 2
 602 1114 584 1084 560 1084 c 0
 528 1084 503 1112 492 1140 c 1
 434 1169 l 1
 429 1169 l 1
 434 921 490 676 490 428 c 0
 490 420 488 411 488 403 c 0
 488 399 489 395 490 391 c 1
 568 395 603 452 642 511 c 1
 683 511 701 492 701 451 c 0
 701 373 563 307 497 301 c 1
 493 275 489 249 489 222 c 0
 489 157 503 93 503 28 c 0
 503 2 481 -20 455 -20 c 2
 446 -20 l 1
 408 15 l 1xd0
 411 32 412 49 412 65 c 0
 412 111 404 157 404 203 c 1
EndSplineSet
EndChar

StartChar: circumflex
Encoding: 710 710 162
Width: 702
VWidth: 0
GlyphClass: 2
Flags: W
PickledData: "(dp1
S'org.pippin.gimp.org.kernagic'
p2
(dp3
S'lstem'
p4
I0
ssS'com.fontlab.hintData'
p5
(dp6
S'vhints'
p7
((dp8
S'position'
p9
I89
sS'width'
p10
I337
stp11
sS'hhints'
p12
((dp13
g9
I903
sg10
I416
stp14
ss."
HStem: 903 416
VStem: 182 337<930 951>
LayerCount: 2
Fore
SplineSet
263 931 m 2
 259 922 248 917 234 917 c 0
 211 917 182 930 182 957 c 0
 182 963 183 969 186 976 c 0
 293 1232 308 1319 383 1319 c 0
 435 1319 469 1126 516 964 c 0
 518 957 519 951 519 946 c 0
 519 916 493 903 472 903 c 0
 459 903 449 908 446 917 c 2
 366 1193 l 1
 263 931 l 2
EndSplineSet
EndChar

StartChar: colon
Encoding: 58 58 163
Width: 612
VWidth: 0
GlyphClass: 2
Flags: W
PickledData: "(dp1
S'org.pippin.gimp.org.kernagic'
p2
(dp3
S'lstem'
p4
I0
ssS'com.fontlab.hintData'
p5
(dp6
S'vhints'
p7
((dp8
S'position'
p9
I138
sS'width'
p10
I149
s(dp11
g9
I159
sg10
I149
stp12
sS'hhints'
p13
((dp14
g9
I177
sg10
I152
s(dp15
g9
I951
sg10
I152
stp16
ss."
HStem: 177 152<222.707 354.981> 951 152<243.913 375.769>
VStem: 214 149<183.964 320.635> 235 149<958.168 1094.59>
LayerCount: 2
Fore
SplineSet
214 250 m 0xe0
 214 291 250 329 291 329 c 0
 330 329 363 290 363 252 c 0
 363 206 328 177 283 177 c 0
 245 177 214 213 214 250 c 0xe0
235 1024 m 0xd0
 235 1064 270 1103 311 1103 c 0
 350 1103 384 1064 384 1026 c 0
 384 979 348 951 303 951 c 0
 265 951 235 987 235 1024 c 0xd0
EndSplineSet
EndChar

StartChar: comma
Encoding: 44 44 164
Width: 702
VWidth: 0
GlyphClass: 2
Flags: W
PickledData: "(dp1
S'org.pippin.gimp.org.kernagic'
p2
(dp3
S'lstem'
p4
I0
ssS'com.fontlab.hintData'
p5
(dp6
S'vhints'
p7
((dp8
S'position'
p9
I102
sS'width'
p10
I242
stp11
sS'hhints'
p12
((dp13
g9
I-202
sg10
I387
stp14
ss."
HStem: -202 387<367.342 389>
VStem: 254 242
LayerCount: 2
Fore
SplineSet
425 185 m 0
 475 185 496 141 496 77 c 0
 496 -15 389 -202 284 -202 c 0
 268 -202 254 -192 254 -175 c 0
 254 -163 260 -146 279 -130 c 1
 359 -36 326 185 425 185 c 0
EndSplineSet
EndChar

StartChar: commaaccent
Encoding: 65538 -1 165
Width: 684
VWidth: 0
GlyphClass: 2
Flags: W
PickledData: "(dp1
S'org.pippin.gimp.org.kernagic'
p2
(dp3
S'lstem'
p4
I0
ssS'com.fontlab.hintData'
p5
(dp6
S'vhints'
p7
((dp8
S'position'
p9
I117
sS'width'
p10
I241
stp11
sS'hhints'
p12
((dp13
g9
I-550
sg10
I376
stp14
ss."
HStem: -550 376<320 322>
VStem: 254 241
LayerCount: 2
Fore
SplineSet
288 -550 m 0
 264 -550 254 -544 254 -527 c 1
 254 -527 320 -174 439 -174 c 1
 453 -185 495 -183 495 -215 c 0
 495 -317 322 -550 288 -550 c 0
EndSplineSet
EndChar

StartChar: copyright
Encoding: 169 169 166
Width: 1296
VWidth: 0
GlyphClass: 2
Flags: W
PickledData: "(dp1
S'org.pippin.gimp.org.kernagic'
p2
(dp3
S'lstem'
p4
I0
ssS'com.fontlab.hintData'
p5
(dp6
S'vhints'
p7
((dp8
S'position'
p9
I98
sS'width'
p10
I118
s(dp11
g9
I311
sg10
I120
s(dp12
g9
I997
sg10
I114
stp13
sS'hhints'
p14
((dp15
g9
I-20
sg10
I101
s(dp16
g9
I225
sg10
I107
s(dp17
g9
I1387
sg10
I112
s(dp18
g9
I1713
sg10
I99
stp19
ss."
HStem: -20 101<430.421 793.015> 225 107<556.462 745.959> 1387 112<566.265 705.495> 1713 99<468.635 699.106>
VStem: 134 118<484.855 1345.77> 347 120<464.637 909.452> 1033 114<484.553 1133.97>
LayerCount: 2
Fore
SplineSet
134 924 m 0
 134 1208 184 1812 575 1812 c 0
 1037 1812 1147 1105 1147 757 c 0
 1147 403 1064 -20 624 -20 c 0
 179 -20 166 311 146 660 c 0
 141 748 134 836 134 924 c 0
251 940 m 1
 252 940 l 1
 252 825 264 710 271 595 c 0
 285 366 297 81 598 81 c 0
 855 81 957 234 1012 464 c 1
 1010 470 1009 476 1009 483 c 0
 1009 516 1033 558 1033 589 c 2
 1033 894 l 2
 1033 971 1008 1046 994 1121 c 0
 955 1328 896 1528 717 1658 c 0
 683 1683 644 1713 599 1713 c 0
 293 1713 251 1160 251 940 c 1
477 911 m 1
 476 911 l 1
 468 878 467 844 467 809 c 2
 467 758 l 2
 467 629 480 332 654 332 c 0
 752 332 770 440 836 440 c 0
 873 440 890 404 890 372 c 0
 890 283 738 225 664 225 c 0
 593 225 536 265 472 291 c 1
 360 504 347 570 347 813 c 2
 347 825 l 2
 347 1028 350 1499 630 1499 c 0
 732 1499 871 1380 871 1275 c 0
 871 1247 850 1223 821 1223 c 0
 721 1223 729 1387 639 1387 c 0
 486 1387 485 1026 473 921 c 1
 477 911 l 1
EndSplineSet
EndChar

StartChar: currency
Encoding: 164 164 167
Width: 1008
VWidth: 0
GlyphClass: 2
Flags: W
PickledData: "(dp1
S'org.pippin.gimp.org.kernagic'
p2
(dp3
S'lstem'
p4
I0
ssS'com.fontlab.hintData'
p5
(dp6
S'vhints'
p7
((dp8
S'position'
p9
I137
sS'width'
p10
I110
s(dp11
g9
I678
sg10
I119
stp12
sS'hhints'
p13
((dp14
g9
I205
sg10
I100
s(dp15
g9
I1181
sg10
I104
stp16
ss."
HStem: 205 100<367.476 597.537> 1181 104<413.717 602.602>
VStem: 180 110<431.034 695.578 696 988.906> 721 119<200.822 251 545.8 959.329>
LayerCount: 2
Fore
SplineSet
722 251 m 1
 722 248 l 1
 697 293 l 1
 632 235 545 205 458 205 c 0
 389 205 324 243 276 290 c 1
 259 253 239 201 190 201 c 0
 146 201 126 236 126 276 c 0
 126 315 191 360 212 392 c 1
 183 446 180 507 180 567 c 0
 180 692 184 977 252 1078 c 1
 229 1119 155 1160 155 1209 c 0
 155 1235 178 1255 203 1255 c 0
 255 1255 284 1209 311 1172 c 1
 338 1202 399 1285 441 1285 c 0
 520 1285 597 1259 663 1216 c 1
 697 1260 724 1351 792 1351 c 2
 802 1351 l 1
 845 1304 l 1
 841 1241 750 1165 750 1141 c 0
 750 1019 840 902 840 772 c 0
 840 643 773 525 773 396 c 0
 773 335 850 308 850 247 c 0
 850 219 828 195 800 195 c 0
 765 195 726 212 722 251 c 1
290 696 m 1
 293 696 l 1
 294 687 295 678 295 669 c 0
 295 641 290 614 290 585 c 0
 290 527 297 462 344 421 c 1
 344 332 417 305 494 305 c 0
 684 305 721 640 721 779 c 0
 721 840 696 1027 660 1071 c 1
 631 1077 611 1103 608 1132 c 1
 578 1165 529 1181 485 1181 c 0
 459 1181 394 1121 378 1100 c 1
 393 1086 l 1
 393 1055 387 1009 346 1009 c 0
 321 1009 290 774 290 696 c 1
EndSplineSet
EndChar

StartChar: d
Encoding: 100 100 168
Width: 846
VWidth: 0
GlyphClass: 2
Flags: W
PickledData: "(dp1
S'org.pippin.gimp.org.kernagic'
p2
(dp3
S'lstem'
p4
I0
ssS'com.fontlab.hintData'
p5
(dp6
S'vhints'
p7
((dp8
S'position'
p9
I73
sS'width'
p10
I143
s(dp11
g9
I79
sg10
I106
s(dp12
g9
I438
sg10
I104
stp13
sS'hhints'
p14
((dp15
g9
I-12
sg10
I104
stp16
ss."
HStem: -12 104<327 428.714> 1333 20G<221 363>
VStem: 184 143<97.25 621.219> 190 106<607.109 1254.72> 549 104<274.022 1031.9>
LayerCount: 2
Fore
SplineSet
166 1286 m 0xd8
 166 1322 204 1353 238 1353 c 0
 488 1353 657 1054 657 808 c 0
 657 778 653 741 653 705 c 2
 653 592 l 2
 653 340 637 119 384 -12 c 1
 236 -12 l 2
 186 -12 184 190 184 256 c 0xe8
 184 471 190 686 190 901 c 0
 190 1027 166 1184 166 1286 c 0xd8
327 141 m 2
 327 92 l 1xe8
 531 92 549 480 549 612 c 0
 549 784 543 1231 311 1258 c 1
 298 1188 296 1116 296 1045 c 0xd8
 296 743 327 443 327 141 c 2
EndSplineSet
EndChar

StartChar: dagger
Encoding: 8224 8224 169
Width: 900
VWidth: 0
GlyphClass: 2
Flags: W
PickledData: "(dp1
S'org.pippin.gimp.org.kernagic'
p2
(dp3
S'lstem'
p4
I0
ssS'com.fontlab.hintData'
p5
(dp6
S'vhints'
p7
((dp8
S'position'
p9
I341
sS'width'
p10
I127
s(dp11
g9
I367
sg10
I133
stp12
sS'hhints'
p13
((dp14
g9
I590
sg10
I118
stp15
ss."
HStem: 590 118<160.388 359 486.023 727.701>
VStem: 359 127<129.528 598.902 701.11 963.367> 385 133<-94.5156 378.248>
LayerCount: 2
Fore
SplineSet
372 385 m 0xa0
 372 451 359 518 359 584 c 2
 359 599 l 1
 331 599 285 590 245 590 c 0
 198 590 158 602 158 655 c 0
 158 682 175 708 204 708 c 0
 244 708 285 701 325 701 c 0
 341 701 356 702 372 705 c 1
 370 755 360 805 360 855 c 0
 360 900 367 968 426 968 c 0
 458 968 478 942 478 909 c 2
 478 884 l 2
 478 853 478 701 484 701 c 0
 513 701 570 709 624 709 c 0
 679 709 730 697 730 647 c 0
 730 615 704 591 672 591 c 0
 631 591 592 602 551 602 c 0
 517 602 486 598 486 596 c 0xc0
 486 331 518 173 518 -42 c 0
 518 -78 483 -98 451 -98 c 0
 422 -98 385 -79 385 -46 c 0
 385 94 372 241 372 385 c 0xa0
EndSplineSet
EndChar

StartChar: daggerdbl
Encoding: 8225 8225 170
Width: 900
VWidth: 0
GlyphClass: 2
Flags: W
PickledData: "(dp1
S'org.pippin.gimp.org.kernagic'
p2
(dp3
S'lstem'
p4
I0
ssS'com.fontlab.hintData'
p5
(dp6
S'vhints'
p7
((dp8
S'position'
p9
I354
sS'width'
p10
I114
s(dp11
g9
I367
sg10
I133
stp12
sS'hhints'
p13
((dp14
g9
I171
sg10
I99
s(dp15
g9
I602
sg10
I99
stp16
ss."
HStem: 171 99<171.461 372 506.464 742.089> 602 99<158.461 359 486.406 729.089>
VStem: 372 114<275.692 598.902 701.11 965.679> 385 133<-94.5156 149.906>
LayerCount: 2
Fore
SplineSet
372 385 m 0xe0
 372 451 359 518 359 584 c 2
 359 599 l 1
 331 599 285 590 245 590 c 0
 198 590 158 602 158 655 c 0
 158 682 175 708 204 708 c 0
 244 708 285 701 325 701 c 0
 341 701 356 702 372 705 c 1
 370 755 360 805 360 855 c 0
 360 900 367 968 426 968 c 0
 458 968 478 942 478 909 c 2
 478 884 l 1
 479 853 478 701 505 701 c 0
 530 701 578 709 624 709 c 0
 679 709 730 697 730 647 c 0
 730 615 704 591 672 591 c 0
 631 591 592 602 551 602 c 0
 517 602 486 598 486 596 c 0xe0
 486 546 502 270 518 270 c 0
 543 270 591 278 637 278 c 0
 692 278 743 266 743 216 c 0
 743 184 717 160 685 160 c 0
 644 160 605 171 564 171 c 0
 530 171 499 169 499 162 c 0
 499 94 518 26 518 -42 c 0
 518 -78 483 -98 451 -98 c 0
 422 -98 385 -79 385 -46 c 0xd0
 385 20 372 87 372 153 c 2
 372 168 l 1xe0
 344 168 298 159 258 159 c 0
 211 159 171 171 171 224 c 0
 171 251 188 277 217 277 c 0
 257 277 298 270 338 270 c 0
 354 270 369 271 385 274 c 1xd0
 384 310 372 352 372 385 c 0xe0
EndSplineSet
EndChar

StartChar: dcroat
Encoding: 273 273 172
Width: 882
VWidth: 0
GlyphClass: 2
Flags: W
PickledData: "(dp1
S'org.pippin.gimp.org.kernagic'
p2
(dp3
S'lstem'
p4
I0
ssS'com.fontlab.hintData'
p5
(dp6
S'vhints'
p7
((dp8
S'position'
p9
I73
sS'width'
p10
I143
s(dp11
g9
I79
sg10
I106
s(dp12
g9
I438
sg10
I104
stp13
sS'hhints'
p14
((dp15
g9
I-12
sg10
I104
s(dp16
g9
I673
sg10
I78
stp17
ss."
HStem: -12 104<369 470.714> 673 78<94.4035 229.868 349 483.981> 1333 20G<263 405>
VStem: 226 143<97.25 622.219> 232 106<232.266 672 755 1254.72> 591 104<274.022 1031.9>
LayerCount: 2
Fore
SplineSet
232 901 m 0xec
 232 1027 208 1184 208 1286 c 0
 208 1322 246 1353 280 1353 c 0
 530 1353 699 1054 699 808 c 0
 699 778 695 741 695 705 c 2
 695 592 l 2
 695 340 679 119 426 -12 c 1
 278 -12 l 2
 228 -12 226 190 226 256 c 0xf4
 226 257 228 534 230 673 c 1
 156 676 94 685 94 707 c 0
 94 748 155 751 184 751 c 0
 227 751 236 782 236 820 c 0
 236 846 232 875 232 901 c 0xec
346 755 m 1
 415 754 486 743 486 701 c 0
 486 680 450 676 420 676 c 0
 410 676 382 673 349 672 c 1
 358 495 369 318 369 141 c 2
 369 92 l 1xf4
 573 92 591 480 591 612 c 0
 591 784 585 1231 353 1258 c 1
 340 1188 338 1116 338 1045 c 0xec
 338 948 342 852 346 755 c 1
EndSplineSet
EndChar

StartChar: degree
Encoding: 176 176 173
Width: 882
VWidth: 0
GlyphClass: 2
Flags: W
PickledData: "(dp1
S'org.pippin.gimp.org.kernagic'
p2
(dp3
S'lstem'
p4
I0
ssS'com.fontlab.hintData'
p5
(dp6
S'vhints'
p7
((dp8
S'position'
p9
I101
sS'width'
p10
I77
s(dp11
g9
I559
sg10
I68
stp12
sS'hhints'
p13
((dp14
g9
I438
sg10
I77
s(dp15
g9
I901
sg10
I69
stp16
ss."
HStem: 438 77<319.15 543.519> 901 69<320.601 552.111>
VStem: 174 77<581.049 829.402> 632 68<610.561 826.042>
LayerCount: 2
Fore
SplineSet
174 731 m 0
 174 867 265 970 406 970 c 0
 643 970 700 821 700 733 c 0
 700 649 652 438 407 438 c 0
 216 438 174 617 174 731 c 0
416 901 m 0
 286 901 251 773 251 665 c 0
 251 607 325 515 415 515 c 0
 597 515 632 668 632 729 c 0
 632 792 590 901 416 901 c 0
EndSplineSet
EndChar

StartChar: dieresis
Encoding: 168 168 174
Width: 792
VWidth: 0
GlyphClass: 2
Flags: W
PickledData: "(dp1
S'org.pippin.gimp.org.kernagic'
p2
(dp3
S'lstem'
p4
I0
ssS'com.fontlab.hintData'
p5
(dp6
S'vhints'
p7
((dp8
S'position'
p9
I105
sS'width'
p10
I141
s(dp11
g9
I385
sg10
I141
stp12
sS'hhints'
p13
((dp14
g9
I954
sg10
I141
stp15
ss."
HStem: 954 141<187.829 316.519 467.922 597.34>
VStem: 182 141<963.054 1089.7> 462 141<960.578 1091>
LayerCount: 2
Fore
SplineSet
241 954 m 0
 202 954 182 984 182 1021 c 0
 182 1061 211 1095 252 1095 c 0
 290 1095 323 1065 323 1026 c 0
 323 984 280 954 241 954 c 0
462 1023 m 0
 462 1062 496 1098 535 1098 c 0
 572 1098 603 1061 603 1025 c 0
 603 983 566 954 526 954 c 0
 490 954 462 988 462 1023 c 0
EndSplineSet
EndChar

StartChar: divide
Encoding: 247 247 175
Width: 900
VWidth: 0
GlyphClass: 2
Flags: W
PickledData: "(dp1
S'org.pippin.gimp.org.kernagic'
p2
(dp3
S'lstem'
p4
I0
ssS'com.fontlab.hintData'
p5
(dp6
S'vhints'
p7
((dp8
S'position'
p9
I270
sS'width'
p10
I141
stp11
sS'hhints'
p12
((dp13
g9
I369
sg10
I141
s(dp14
g9
I590
sg10
I111
s(dp15
g9
I789
sg10
I141
stp16
ss."
HStem: 369 141<376.297 502.906> 590 111<160.599 728.411> 789 141<375.002 505.422>
VStem: 371 141<374.829 503.519 794.922 924.34>
LayerCount: 2
Fore
SplineSet
512 428 m 0
 512 389 481 369 445 369 c 0
 405 369 371 398 371 439 c 0
 371 477 401 510 440 510 c 0
 482 510 512 467 512 428 c 0
443 789 m 0
 404 789 368 823 368 862 c 0
 368 899 405 930 441 930 c 0
 483 930 512 893 512 853 c 0
 512 817 478 789 443 789 c 0
158 655 m 0
 158 683 176 701 204 701 c 2
 505 701 l 2
 547 701 589 708 631 708 c 0
 673 708 730 701 730 647 c 0
 730 613 702 600 672 600 c 0
 528 600 383 590 240 590 c 0
 195 590 158 604 158 655 c 0
EndSplineSet
EndChar

StartChar: dollar
Encoding: 36 36 176
Width: 846
VWidth: 0
GlyphClass: 2
Flags: W
PickledData: "(dp1
S'org.pippin.gimp.org.kernagic'
p2
(dp3
S'lstem'
p4
I0
ssS'com.fontlab.hintData'
p5
(dp6
S'vhints'
p7
((dp8
S'position'
p9
I-1
sS'width'
p10
I99
s(dp11
g9
I200
sg10
I2
s(dp12
g9
I202
sg10
I70
s(dp13
g9
I225
sg10
I88
s(dp14
g9
I254
sg10
I95
s(dp15
g9
I419
sg10
I94
stp16
sS'hhints'
p17
((dp18
g9
I-45
sg10
I93
s(dp19
g9
I1456
sg10
I118
stp20
ss."
HStem: -45 93<249.799 414> 1471 103<444.104 656.356>
VStem: 166 99<1068.27 1376.04> 367 72<1185.1 1433 1559 1659.86> 392 88<506.024 647 757.024 830.25 937 1070.75> 421 95<-255.989 -43 113 325.651> 586 94<175.43 531.167>
LayerCount: 2
Fore
SplineSet
369 1535 m 1xea
 368 1562 367 1584 367 1608 c 0
 367 1646 379 1662 394 1662 c 0
 414 1662 439 1632 439 1586 c 2
 439 1559 l 1xf2
 477 1568 518 1574 564 1574 c 0
 612 1574 666 1545 685 1500 c 1
 650 1456 l 1
 605 1456 552 1471 499 1471 c 0
 480 1471 461 1469 443 1464 c 1
 472 822 l 1
 576 685 680 540 680 342 c 0
 680 218 632 59 516 -10 c 1
 516 -155 l 2
 516 -158 516 -162 516 -165 c 0
 516 -214 501 -258 457 -258 c 0
 423 -258 421 -222 421 -195 c 2
 421 -179 l 1xe6
 421 -179 420 -128 417 -43 c 1
 405 -45 393 -45 380 -45 c 0
 340 -45 221 -31 221 24 c 0
 221 52 235 79 267 79 c 0
 311 79 348 48 380 48 c 0
 392 48 403 49 414 52 c 1
 408 236 400 506 392 774 c 1
 282 924 166 1073 166 1245 c 0
 166 1350 233 1473 369 1535 c 1xea
387 937 m 1
 381 1122 376 1298 372 1433 c 1
 296 1385 265 1308 265 1258 c 0
 265 1137 319 1035 387 937 c 1
504 113 m 1
 561 183 586 291 586 345 c 0
 586 453 541 551 480 647 c 1xea
 504 113 l 1
EndSplineSet
EndChar

StartChar: dotaccent
Encoding: 729 729 177
Width: 612
VWidth: 0
GlyphClass: 2
Flags: W
PickledData: "(dp1
S'org.pippin.gimp.org.kernagic'
p2
(dp3
S'lstem'
p4
I0
ssS'com.fontlab.hintData'
p5
(dp6
S'vhints'
p7
((dp8
S'position'
p9
I103
sS'width'
p10
I150
stp11
sS'hhints'
p12
((dp13
g9
I102
sg10
I152
stp14
ss."
HStem: 102 152<230.707 363.769>
VStem: 222 150<109.168 245.635>
LayerCount: 2
Fore
SplineSet
222 175 m 0
 222 216 258 254 299 254 c 0
 338 254 372 215 372 177 c 0
 372 130 336 102 291 102 c 0
 253 102 222 138 222 175 c 0
EndSplineSet
EndChar

StartChar: dotlessi
Encoding: 305 305 178
Width: 774
VWidth: 0
GlyphClass: 2
Flags: W
PickledData: "(dp1
S'org.pippin.gimp.org.kernagic'
p2
(dp3
S'lstem'
p4
I0
ssS'com.fontlab.hintData'
p5
(dp6
S'vhints'
p7
((dp8
S'position'
p9
I174
sS'width'
p10
I112
stp11
sS'hhints'
p12
((dp13
g9
I16
sg10
I114
s(dp14
g9
I1254
sg10
I102
stp15
ss."
HStem: 0 21G<373 402.5> 16 114<259 320.624 439 594.724> 1254 102<158.706 311.779>
VStem: 307 112<131.752 1242>
LayerCount: 2
Fore
SplineSet
431 184 m 1xb0
 429 185 l 1
 429 166 428 147 439 131 c 1
 455 128 l 1
 470 128 491 130 514 130 c 0
 555 130 598 122 598 79 c 0
 598 43 565 16 530 16 c 0x70
 507 16 485 23 462 23 c 0
 446 23 421 0 384 0 c 0
 362 0 338 4 321 20 c 1
 313 19 304 18 296 18 c 0
 265 18 235 26 220 55 c 1
 220 78 231 100 252 110 c 1
 259 118 l 1
 317 118 l 1
 318 127 321 136 321 145 c 0
 321 290 307 435 307 580 c 0
 307 732 318 884 318 1036 c 0
 318 1109 315 1182 308 1254 c 1
 269 1256 l 2
 254 1257 238 1254 222 1254 c 0
 188 1254 158 1262 158 1309 c 0
 158 1353 220 1356 259 1356 c 2
 276 1356 l 2
 332 1356 539 1355 539 1273 c 0
 539 1263 531 1244 527 1235 c 1
 457 1230 l 1
 422 1242 l 1
 428 1186 430 1129 430 1072 c 0
 430 942 419 811 419 681 c 0
 419 536 434 391 434 246 c 1
 431 184 l 1xb0
EndSplineSet
EndChar

StartChar: e
Encoding: 101 101 179
Width: 720
VWidth: 0
GlyphClass: 2
Flags: W
PickledData: "(dp1
S'org.pippin.gimp.org.kernagic'
p2
(dp3
S'lstem'
p4
I0
ssS'com.fontlab.hintData'
p5
(dp6
S'vhints'
p7
((dp8
S'position'
p9
I72
sS'width'
p10
I122
s(dp11
g9
I75
sg10
I331
stp12
sS'hhints'
p13
((dp14
g9
I-27
sg10
I104
s(dp15
g9
I718
sg10
I107
stp16
ss."
HStem: -27 104<304.383 533.736> 718 107<306.098 479.724>
VStem: 190 122<77.0451 718 822.47 1233.18> 193 331<-16.2949 76.9902 1236.42 1306.95>
LayerCount: 2
Fore
SplineSet
524 1261 m 0xd0
 524 1229 491 1207 464 1197 c 1
 414 1214 362 1230 309 1236 c 1
 311 1207 312 1177 312 1148 c 0
 312 1050 303 952 303 854 c 0
 303 844 307 832 309 822 c 1
 326 822 354 825 382 825 c 0
 431 825 481 816 481 769 c 0
 481 742 457 714 416 714 c 0
 396 714 374 716 358 718 c 1
 306 718 l 1
 310 666 312 615 312 563 c 0
 312 440 303 315 303 192 c 0
 303 139 306 77 307 77 c 0
 341 77 400 82 458 82 c 0
 498 82 536 73 536 32 c 0
 536 -13 485 -27 448 -27 c 2
 275 -27 l 2
 239 -27 205 1 203 36 c 1
 203 90 l 2
 203 117 200 145 200 174 c 0
 200 261 190 349 190 436 c 0xe0
 190 635 204 835 204 1034 c 0
 204 1092 193 1149 193 1207 c 0
 193 1266 202 1352 279 1352 c 0
 321 1352 524 1323 524 1261 c 0xd0
EndSplineSet
EndChar

StartChar: eight
Encoding: 56 56 186
Width: 738
VWidth: 0
GlyphClass: 2
Flags: W
PickledData: "(dp1
S'org.pippin.gimp.org.kernagic'
p2
(dp3
S'lstem'
p4
I0
ssS'com.fontlab.hintData'
p5
(dp6
S'vhints'
p7
((dp8
S'position'
p9
I63
sS'width'
p10
I100
s(dp11
g9
I108
sg10
I95
s(dp12
g9
I285
sg10
I91
s(dp13
g9
I372
sg10
I92
stp14
sS'hhints'
p15
((dp16
g9
I-82
sg10
I88
s(dp17
g9
I1515
sg10
I92
stp18
ss."
HStem: -82 88<329.762 445.666> 1515 92<286 354.365>
VStem: 158 100<1207.12 1514.93> 203 95<82.5952 520.987> 380 91<1010.01 1513.4> 467 92<22.6514 496.353>
LayerCount: 2
Fore
SplineSet
562 90 m 0xe8
 562 80 560 71 559 61 c 2
 559 60 l 1
 522 -24 461 -82 365 -82 c 0
 235 -82 203 98 203 198 c 0xd4
 203 421 299 672 299 863 c 0
 299 1040 158 1225 158 1421 c 0
 158 1510 197 1607 300 1607 c 2
 343 1607 l 1
 468 1530 471 1466 471 1313 c 0
 471 1160 433 1010 399 862 c 1
 490 651 561 349 561 119 c 0
 561 109 562 99 562 90 c 0xe8
298 190 m 2
 298 188 l 2
 298 151 308 115 324 81 c 1
 324 71 l 1
 326 50 340 6 367 6 c 0
 445 6 467 74 467 140 c 0
 467 348 413 552 356 750 c 1
 311 604 298 345 298 190 c 2
307 1515 m 1
 286 1515 l 1
 286 1516 l 1
 261 1488 258 1449 258 1413 c 0
 258 1317 304 1101 335 1007 c 1
 363 1106 380 1209 380 1312 c 0xe8
 380 1342 364 1516 329 1516 c 1
 307 1515 l 1
EndSplineSet
EndChar

StartChar: ellipsis
Encoding: 8230 8230 187
Width: 1098
VWidth: 0
GlyphClass: 2
Flags: W
PickledData: "(dp1
S'org.pippin.gimp.org.kernagic'
p2
(dp3
S'lstem'
p4
I0
ssS'com.fontlab.hintData'
p5
(dp6
S'vhints'
p7
((dp8
S'position'
p9
I103
sS'width'
p10
I150
s(dp11
g9
I398
sg10
I150
s(dp12
g9
I693
sg10
I150
stp13
sS'hhints'
p14
((dp15
g9
I-32
sg10
I152
stp16
ss."
HStem: -32 152<182.707 315.769 477.707 610.769 772.707 905.769>
VStem: 174 150<-24.8322 111.635> 469 150<-24.8322 111.635> 764 150<-24.8322 111.635>
CounterMasks: 1 70
LayerCount: 2
Fore
SplineSet
764 41 m 0
 764 82 800 120 841 120 c 0
 880 120 914 81 914 43 c 0
 914 -4 878 -32 833 -32 c 0
 795 -32 764 4 764 41 c 0
469 41 m 0
 469 82 505 120 546 120 c 0
 585 120 619 81 619 43 c 0
 619 -4 583 -32 538 -32 c 0
 500 -32 469 4 469 41 c 0
174 41 m 0
 174 82 210 120 251 120 c 0
 290 120 324 81 324 43 c 0
 324 -4 288 -32 243 -32 c 0
 205 -32 174 4 174 41 c 0
EndSplineSet
EndChar

StartChar: emdash
Encoding: 8212 8212 189
Width: 1116
VWidth: 0
GlyphClass: 2
Flags: W
PickledData: "(dp1
S'org.pippin.gimp.org.kernagic'
p2
(dp3
S'lstem'
p4
I0
ssS'com.fontlab.hintData'
p5
(dp6
S'hhints'
p7
((dp8
S'position'
p9
I673
sS'width'
p10
I109
stp11
ss."
HStem: 673 109<104.5 1012.18>
LayerCount: 2
Fore
SplineSet
625 779 m 2
 647 779 709 782 777 782 c 0
 888 782 1016 773 1016 725 c 0
 1016 683 931 673 844 673 c 0
 771 673 698 680 671 680 c 2
 303 677 l 2
 285 677 256 674 225 674 c 0
 166 674 102 683 102 733 c 0
 102 761 120 779 148 779 c 2
 625 779 l 2
EndSplineSet
EndChar

StartChar: endash
Encoding: 8211 8211 190
Width: 972
VWidth: 0
GlyphClass: 2
Flags: W
PickledData: "(dp1
S'org.pippin.gimp.org.kernagic'
p2
(dp3
S'lstem'
p4
I0
ssS'com.fontlab.hintData'
p5
(dp6
S'hhints'
p7
((dp8
S'position'
p9
I636
sS'width'
p10
I105
stp11
ss."
HStem: 636 105<143.288 829.902>
LayerCount: 2
Fore
SplineSet
359 737 m 2
 388 737 468 741 554 741 c 0
 687 741 835 731 835 683 c 0
 835 654 815 636 787 636 c 0
 599 636 412 646 224 646 c 0
 193 646 142 649 142 691 c 0
 142 719 160 737 188 737 c 2
 359 737 l 2
EndSplineSet
EndChar

StartChar: eng
Encoding: 331 331 191
Width: 1062
VWidth: 0
GlyphClass: 2
Flags: W
PickledData: "(dp1
S'org.pippin.gimp.org.kernagic'
p2
(dp3
S'lstem'
p4
I0
ssS'com.fontlab.hintData'
p5
(dp6
S'vhints'
p7
((dp8
S'position'
p9
I64
sS'width'
p10
I112
s(dp11
g9
I644
sg10
I106
stp12
sS'hhints'
p13
((dp14
g9
I2
sg10
I21
s(dp15
g9
I1334
sg10
I20
s(dp16
g9
I1342
sg10
I20
stp17
ss."
HStem: 1342 20G<242 269> 1342 12G<242 269 281.5 354>
VStem: 182 112<66.7961 1145> 762 106<788.978 1342.12>
LayerCount: 2
Fore
SplineSet
721 189 m 1x70
 754 534 762 881 762 1228 c 0
 762 1244 759 1264 759 1283 c 0
 759 1315 767 1344 810 1344 c 0
 852 1344 868 1302 868 1264 c 2
 868 1109 l 1
 866 636 889 -512 573 -512 c 0
 533 -512 499 -493 499 -449 c 0
 499 -350 656 -454 681 -237 c 0
 690 -159 689 -80 697 -1 c 1
 638 136 348 1021 294 1145 c 1
 294 114 l 1
 301 99 315 83 315 66 c 0
 315 32 287 2 253 2 c 0
 194 2 186 84 186 127 c 0
 186 361 182 595 182 829 c 0
 182 956 194 1084 194 1211 c 0
 194 1274 215 1322 269 1362 c 1xb0
 269 1349 l 1
 274 1352 279 1354 284 1354 c 0
 424 1354 666 324 721 189 c 1x70
EndSplineSet
EndChar

StartChar: equal
Encoding: 61 61 193
Width: 882
VWidth: 0
GlyphClass: 2
Flags: W
PickledData: "(dp1
S'org.pippin.gimp.org.kernagic'
p2
(dp3
S'lstem'
p4
I0
ssS'com.fontlab.hintData'
p5
(dp6
S'vhints'
p7
((dp8
S'position'
p9
I57
sS'width'
p10
I572
stp11
sS'hhints'
p12
((dp13
g9
I579
sg10
I101
s(dp14
g9
I764
sg10
I108
stp15
ss."
HStem: 579 101<159.288 718.027> 764 108<161.605 727.718>
VStem: 158 572
LayerCount: 2
Fore
SplineSet
571 872 m 2
 640 872 730 866 730 818 c 0
 730 774 616 764 514 764 c 0
 435 764 362 770 359 770 c 0
 341 770 311 767 281 767 c 0
 222 767 158 776 158 826 c 0
 158 854 176 872 204 872 c 2
 571 872 l 2
511 680 m 2
 609 680 720 674 720 626 c 0
 720 597 700 579 672 579 c 0
 528 579 384 589 240 589 c 0
 209 589 158 592 158 634 c 0
 158 662 176 680 204 680 c 2
 511 680 l 2
EndSplineSet
EndChar

StartChar: eth
Encoding: 240 240 194
Width: 756
VWidth: 0
GlyphClass: 2
Flags: W
PickledData: "(dp1
S'org.pippin.gimp.org.kernagic'
p2
(dp3
S'lstem'
p4
I0
ssS'com.fontlab.hintData'
p5
(dp6
S'vhints'
p7
((dp8
S'position'
p9
I85
sS'width'
p10
I101
s(dp11
g9
I345
sg10
I95
stp12
sS'hhints'
p13
((dp14
g9
I-15
sg10
I87
s(dp15
g9
I1335
sg10
I20
s(dp16
g9
I1473
sg10
I109
stp17
ss."
HStem: -15 87<307.571 407.452> 1335 20G<554.5 579.5> 1473 109<221.52 322.273>
VStem: 182 101<83.7946 775.188> 442 95<248.077 872.441>
LayerCount: 2
Fore
SplineSet
351 72 m 0
 426 72 417 160 421 211 c 0
 433 370 442 518 442 681 c 0
 442 761 435 853 383 885 c 1
 284 859 284 472 284 390 c 0
 284 378 283 354 283 325 c 0
 283 228 290 72 351 72 c 0
590 1326 m 0
 590 1289 511 1272 485 1267 c 1
 529 1062 537 850 537 641 c 0
 537 522 528 402 528 283 c 0
 528 159 521 -15 356 -15 c 0
 195 -15 185 173 185 305 c 1
 185 305 182 340 182 400 c 0
 182 581 206 956 396 956 c 0
 404 956 413 955 422 954 c 1
 409 1053 395 1153 374 1251 c 1
 318 1245 261 1242 205 1242 c 0
 192 1242 188 1265 188 1272 c 0
 188 1319 322 1336 354 1340 c 1
 345 1374 326 1450 298 1473 c 1
 265 1478 216 1499 216 1539 c 0
 216 1565 246 1582 269 1582 c 0
 382 1582 437 1441 463 1351 c 1
 500 1353 536 1355 573 1355 c 0
 586 1355 590 1333 590 1326 c 0
EndSplineSet
EndChar

StartChar: exclam
Encoding: 33 33 195
Width: 594
VWidth: 0
GlyphClass: 2
Flags: W
PickledData: "(dp1
S'org.pippin.gimp.org.kernagic'
p2
(dp3
S'lstem'
p4
I0
ssS'com.fontlab.hintData'
p5
(dp6
S'vhints'
p7
((dp8
S'position'
p9
I41
sS'width'
p10
I169
s(dp11
g9
I88
sg10
I137
s(dp12
g9
I90
sg10
I94
stp13
sS'hhints'
p14
((dp15
g9
I-46
sg10
I171
s(dp16
g9
I1552
sg10
I20
stp17
ss."
HStem: -46 171<211.829 353.666> 1552 20G<311 346>
VStem: 198 169<-36.7426 112.311> 245 137<1047.78 1560.65> 247 94<310.522 971.374>
LayerCount: 2
Fore
SplineSet
367 26 m 0xe0
 367 -27 322 -46 266 -46 c 0
 241 -46 198 -20 198 33 c 0
 198 78 235 125 283 125 c 0
 338 125 367 77 367 26 c 0xe0
341 446 m 0xc8
 341 348 323 306 303 306 c 0
 277 306 247 375 247 482 c 0xc8
 247 596 255 713 255 821 c 0
 255 1045 245 1269 245 1493 c 0
 245 1537 290 1572 332 1572 c 0
 360 1572 382 1550 382 1522 c 0xd0
 382 1195 339 870 339 543 c 0
 339 511 341 478 341 446 c 0xc8
EndSplineSet
EndChar

StartChar: f
Encoding: 102 102 197
Width: 756
VWidth: 0
GlyphClass: 2
Flags: W
PickledData: "(dp1
S'org.pippin.gimp.org.kernagic'
p2
(dp3
S'lstem'
p4
I0
ssS'com.fontlab.hintData'
p5
(dp6
S'vhints'
p7
((dp8
S'position'
p9
I99
sS'width'
p10
I102
s(dp11
g9
I107
sg10
I113
stp12
sS'hhints'
p13
((dp14
g9
I640
sg10
I114
s(dp15
g9
I1243
sg10
I121
stp16
ss."
HStem: -18 21G<236 262.5> 640 114<316.165 450.551> 1243 121<335 464.449>
VStem: 214 102<764.755 1242.62> 222 113<765.031 1243>
LayerCount: 2
Fore
SplineSet
316 753 m 1xf0
 326 753 339 754 354 754 c 0
 398 754 453 747 453 700 c 0
 453 662 415 640 381 640 c 0
 358 640 322 645 300 652 c 1
 300 72 l 2
 300 6 278 -18 247 -18 c 0
 225 -18 199 -6 174 13 c 1
 203 333 197 655 214 975 c 1
 214 1025 l 1xf0
 219 1118 222 1210 222 1303 c 0
 222 1344 265 1364 301 1364 c 0
 355 1364 570 1358 570 1281 c 0
 570 1229 505 1223 466 1223 c 1
 433 1239 395 1243 359 1243 c 2
 335 1243 l 1
 335 1219 l 1xe8
 334 1082 316 945 316 808 c 2
 316 753 l 1xf0
EndSplineSet
EndChar

StartChar: five
Encoding: 53 53 198
Width: 792
VWidth: 0
GlyphClass: 2
Flags: W
PickledData: "(dp1
S'org.pippin.gimp.org.kernagic'
p2
(dp3
S'lstem'
p4
I0
ssS'com.fontlab.hintData'
p5
(dp6
S'vhints'
p7
((dp8
S'position'
p9
I27
sS'width'
p10
I72
s(dp11
g9
I335
sg10
I98
stp12
sS'hhints'
p13
((dp14
g9
I-37
sg10
I104
s(dp15
g9
I1488
sg10
I88
stp16
ss."
HStem: -37 104<284.598 398.294> 1488 88<269 407>
VStem: 197 72<1077.88 1486.75> 505 98<122.676 746.685>
LayerCount: 2
Fore
SplineSet
197 1008 m 0
 197 1043 208 1077 208 1112 c 0
 208 1256 180 1398 158 1540 c 1
 193 1576 l 1
 360 1576 l 2
 397 1576 445 1572 445 1524 c 2
 445 1513 l 1
 407 1482 l 1
 356 1482 l 1
 356 1488 l 1
 269 1488 l 1
 275 1325 293 1164 309 1002 c 1
 362 996 430 996 475 965 c 0
 577 895 603 553 603 434 c 0
 603 234 603 95 430 -36 c 1
 420 -36 408 -37 395 -37 c 0
 346 -37 283 -31 283 21 c 0
 283 54 318 67 346 67 c 0
 365 67 384 61 399 50 c 1
 473 75 505 259 505 328 c 0
 505 585 501 891 272 891 c 0
 204 891 197 955 197 1008 c 0
EndSplineSet
EndChar

StartChar: foundryicon
Encoding: 65539 -1 199
Width: 1134
VWidth: 0
GlyphClass: 2
Flags: W
PickledData: "(dp1
S'org.pippin.gimp.org.kernagic'
p2
(dp3
S'lstem'
p4
I0
ss."
LayerCount: 2
Fore
SplineSet
548 375 m 2
 536 375 l 1
 485 332 393 260 341 221 c 1
 317 201 237 115 210 115 c 0
 192 115 175 119 175 141 c 0
 175 160 184 168 190 186 c 1
 214 297 268 418 298 516 c 1
 298 516 300 518 300 520 c 1
 298 522 l 1
 239 604 157 668 81 735 c 0
 48 764 -34 791 -34 840 c 0
 -34 860 -19 870 1 870 c 0
 12 870 141 848 223 848 c 1
 413 840 l 1
 507 1075 l 1
 538 1122 552 1235 610 1235 c 0
 628 1235 659 1206 659 1188 c 0
 659 1110 694 971 712 895 c 1
 722 848 l 1
 780 844 853 842 925 842 c 0
 995 842 1054 848 1115 848 c 0
 1142 848 1169 838 1169 807 c 0
 1169 793 1091 750 1072 735 c 1
 994 664 922 570 825 522 c 1
 825 510 l 2
 825 457 853 389 866 344 c 1
 874 342 919 135 919 106 c 0
 919 86 907 72 886 72 c 0
 833 72 667 375 548 375 c 2
EndSplineSet
EndChar

StartChar: four
Encoding: 52 52 200
Width: 720
VWidth: 0
GlyphClass: 2
Flags: W
PickledData: "(dp1
S'org.pippin.gimp.org.kernagic'
p2
(dp3
S'lstem'
p4
I0
ssS'com.fontlab.hintData'
p5
(dp6
S'vhints'
p7
((dp8
S'position'
p9
I89
sS'width'
p10
I102
s(dp11
g9
I120
sg10
I94
s(dp12
g9
I269
sg10
I100
s(dp13
g9
I285
sg10
I89
s(dp14
g9
I287
sg10
I113
stp15
sS'hhints'
p16
((dp17
g9
I-38
sg10
I21
s(dp18
g9
I480
sg10
I96
s(dp19
g9
I507
sg10
I94
stp20
ss."
HStem: -38 21G<422 464> 480 96<284.003 360.828> 507 94<467.164 581.656>
VStem: 182 102<584.719 1104.6> 213 94<712.475 1542.12> 362 100<596 1022.94> 378 89<117.609 138.828 143.139 490.459 733.062 1170> 380 113<-33.0306 335.861 340.406 486.376>
LayerCount: 2
Fore
SplineSet
381 1160 m 0xd4
 381 1191 415 1206 434 1206 c 1
 466 1170 l 1
 466 1072 l 2
 466 913 466 753 462 596 c 1xd4
 477 597 499 601 521 601 c 0
 552 601 582 593 582 557 c 0
 582 513 536 507 500 507 c 0
 485 507 467 505 467 489 c 0xa2
 467 436 473 190 488 155 c 1
 486 143 484 130 484 117 c 0
 484 103 485 89 493 76 c 1
 493 39 l 2
 493 9 483 -38 445 -38 c 0
 399 -38 380 23 380 59 c 2
 380 66 l 1xa1
 387 90 391 115 391 140 c 0
 391 207 376 272 376 339 c 0
 376 369 378 398 378 428 c 0
 378 449 377 470 374 491 c 1
 337 489 299 480 262 480 c 1
 262 479 l 1
 231 479 206 493 182 512 c 1
 182 539 184 565 191 591 c 1
 184 628 182 666 182 706 c 0xd2
 182 844 213 991 213 1124 c 2
 213 1503 l 2
 213 1525 215 1543 252 1543 c 0
 281 1543 313 1524 313 1492 c 0
 313 1440 304 1386 304 1333 c 0
 304 1321 303 1308 303 1296 c 0
 303 1284 304 1271 307 1259 c 1
 307 1252 l 1xc8
 311 1216 313 1179 313 1143 c 0
 313 969 284 796 284 622 c 0
 284 607 285 591 287 576 c 1
 312 577 337 581 362 587 c 1
 363 780 381 983 381 1160 c 0xd4
EndSplineSet
EndChar

StartChar: fraction
Encoding: 8260 8260 201
Width: 756
VWidth: 0
GlyphClass: 2
Flags: W
PickledData: "(dp1
S'org.pippin.gimp.org.kernagic'
p2
(dp3
S'lstem'
p4
I0
ssS'com.fontlab.hintData'
p5
(dp6
S'vhints'
p7
((dp8
S'position'
p9
I37
sS'width'
p10
I441
stp11
sS'hhints'
p12
((dp13
g9
I1533
sg10
I20
stp14
ss."
HStem: -31 21G<193.5 249.5> 1533 20G<529.5 566>
VStem: 166 441
LayerCount: 2
Fore
SplineSet
166 30 m 0
 166 340 426 1099 495 1453 c 0
 501 1483 507 1553 552 1553 c 0
 580 1553 607 1533 607 1503 c 0
 607 1437 580 1374 565 1311 c 0
 486 972 408 632 334 292 c 0
 321 233 287 -31 212 -31 c 2
 204 -31 l 1
 183 -18 166 5 166 30 c 0
EndSplineSet
EndChar

StartChar: g
Encoding: 103 103 202
Width: 853
VWidth: 0
GlyphClass: 2
Flags: W
PickledData: "(dp1
S'org.pippin.gimp.org.kernagic'
p2
(dp3
S'lstem'
p4
I0
ssS'com.fontlab.hintData'
p5
(dp6
S'vhints'
p7
((dp8
S'position'
p9
I46
sS'width'
p10
I122
s(dp11
g9
I462
sg10
I123
s(dp12
g9
I462
sg10
I101
stp13
sS'hhints'
p14
((dp15
g9
I-16
sg10
I107
s(dp16
g9
I518
sg10
I105
s(dp17
g9
I1252
sg10
I102
stp18
ss."
HStem: -16 107<389.791 545.152> 518 105<430.531 586.555> 1252 102<388.473 560.395>
VStem: 172 122<233.721 1082.04> 588 123<413.388 518.998> 588 111<127.734 517.74>
LayerCount: 2
Fore
SplineSet
464 -16 m 0xf4
 174 -16 172 346 172 611 c 0
 172 615 172 618 172 622 c 0
 172 644 172 668 172 692 c 0
 172 968 184 1354 474 1354 c 0
 509 1354 561 1349 561 1302 c 0
 561 1268 527 1247 496 1247 c 0
 481 1247 467 1252 453 1252 c 0
 304 1252 294 732 294 629 c 0
 294 434 301 91 489 91 c 0
 583 91 588 316 588 417 c 0
 588 448 588 480 588 511 c 1
 573 519 557 519 540 519 c 0
 529 519 515 518 500 518 c 0
 465 518 429 524 429 565 c 0
 429 606 463 624 499 624 c 1
 499 623 l 1
 527 623 l 2
 591 623 711 619 711 560 c 0xf8
 711 509 689 462 689 411 c 0
 689 341 699 266 699 194 c 0
 699 50 578 -16 464 -16 c 0xf4
EndSplineSet
EndChar

StartChar: germandbls
Encoding: 223 223 207
Width: 810
VWidth: 0
GlyphClass: 2
Flags: W
PickledData: "(dp1
S'org.pippin.gimp.org.kernagic'
p2
(dp3
S'lstem'
p4
I0
ssS'com.fontlab.hintData'
p5
(dp6
S'vhints'
p7
((dp8
S'position'
p9
I73
sS'width'
p10
I100
s(dp11
g9
I78
sg10
I126
s(dp12
g9
I361
sg10
I100
s(dp13
g9
I421
sg10
I99
stp14
sS'hhints'
p15
((dp16
g9
I1473
sg10
I112
stp17
ss."
HStem: -47 21G<237.5 283.5> 1473 112<323.257 442.239>
VStem: 190 100<840.484 1445.06> 195 126<-44.4471 494.942> 478 100<1060.57 1443.53> 538 99<251.075 670.414>
LayerCount: 2
Fore
SplineSet
455 49 m 1xc4
 451 48 444 45 440 45 c 0
 421 45 391 57 391 81 c 0
 391 134 538 240 538 409 c 0xc4
 538 789 360 776 360 854 c 0
 360 898 478 1106 478 1274 c 0
 478 1321 457 1473 388 1473 c 0
 310 1473 290 1350 290 1294 c 0xe8
 290 878 321 463 321 46 c 0
 321 -2 312 -47 255 -47 c 0
 220 -47 195 -37 195 4 c 0xd0
 195 182 205 360 205 538 c 0
 205 775 190 1012 190 1249 c 0
 190 1375 222 1585 388 1585 c 0
 545 1585 578 1367 578 1249 c 0xe8
 578 1109 524 977 452 859 c 1
 605 744 637 635 637 444 c 0
 637 294 574 143 455 49 c 1xc4
EndSplineSet
EndChar

StartChar: grave
Encoding: 96 96 208
Width: 774
VWidth: 0
GlyphClass: 2
Flags: W
PickledData: "(dp1
S'org.pippin.gimp.org.kernagic'
p2
(dp3
S'lstem'
p4
I0
ssS'com.fontlab.hintData'
p5
(dp6
S'vhints'
p7
((dp8
S'position'
p9
I48
sS'width'
p10
I393
stp11
sS'hhints'
p12
((dp13
g9
I1543
sg10
I209
stp14
ss."
HStem: 1543 209
VStem: 254 393
LayerCount: 2
Fore
SplineSet
322 1752 m 0
 337 1752 647 1599 647 1557 c 0
 647 1549 641 1543 632 1543 c 0
 594 1543 254 1645 254 1672 c 0
 254 1699 286 1752 322 1752 c 0
EndSplineSet
EndChar

StartChar: greater
Encoding: 62 62 209
Width: 774
VWidth: 0
GlyphClass: 2
Flags: W
PickledData: "(dp1
S'org.pippin.gimp.org.kernagic'
p2
(dp3
S'lstem'
p4
I0
ssS'com.fontlab.hintData'
p5
(dp6
S'vhints'
p7
((dp8
S'position'
p9
I369
sS'width'
p10
I118
stp11
ss."
HStem: -23 21G<190.5 207.5>
VStem: 482 118<698 859.118>
LayerCount: 2
Fore
SplineSet
482 702 m 0
 482 908 227 1202 225 1411 c 1
 280 1446 l 1
 280 1444 l 1
 367 1404 597 788 600 698 c 1
 239 -19 l 1
 226 -19 214 -23 201 -23 c 0
 180 -23 158 -6 158 24 c 0
 158 116 482 654 482 702 c 0
EndSplineSet
EndChar

StartChar: guillemotleft
Encoding: 171 171 210
Width: 936
VWidth: 0
GlyphClass: 2
Flags: W
PickledData: "(dp1
S'org.pippin.gimp.org.kernagic'
p2
(dp3
S'lstem'
p4
I0
ssS'com.fontlab.hintData'
p5
(dp6
S'vhints'
p7
((dp8
S'position'
p9
I250
sS'width'
p10
I117
s(dp11
g9
I474
sg10
I151
stp12
ss."
HStem: -22 21G<777 801.5>
VStem: 383 117<612.14 835.988> 607 151<1255.47 1396.27>
LayerCount: 2
Fore
SplineSet
837 49 m 1
 835 19 820 -22 783 -22 c 0
 771 -22 755 -22 743 -18 c 0
 711 -8 423 612 383 698 c 1
 386 798 569 1125 607 1255 c 0
 618 1293 645 1447 706 1447 c 0
 708 1447 710 1446 713 1446 c 1
 758 1411 l 1
 731 1193 500 869 500 702 c 0
 500 679 774 135 811 69 c 1
 837 49 l 1
523 1440 m 1
 416 1193 343 929 229 687 c 1
 262 526 586 65 586 -13 c 0
 586 -45 548 -59 522 -59 c 0
 477 -59 118 607 118 697 c 0
 118 749 341 1261 379 1361 c 1
 383 1398 415 1456 440 1483 c 1
 440 1485 l 1
 446 1486 453 1489 459 1489 c 0
 488 1489 521 1473 523 1440 c 1
EndSplineSet
EndChar

StartChar: guillemotright
Encoding: 187 187 211
Width: 954
VWidth: 0
GlyphClass: 2
Flags: W
PickledData: "(dp1
S'org.pippin.gimp.org.kernagic'
p2
(dp3
S'lstem'
p4
I0
ssS'com.fontlab.hintData'
p5
(dp6
S'vhints'
p7
((dp8
S'position'
p9
I56
sS'width'
p10
I151
s(dp11
g9
I313
sg10
I118
stp12
ss."
HStem: -23 21G<137.5 162.5 406 441>
VStem: 180 151<1241.02 1399> 437 118<698 836.974>
LayerCount: 2
Fore
SplineSet
198 -19 m 1
 194 -19 l 2
 181 -19 169 -23 156 -23 c 0
 119 -23 103 19 102 49 c 1
 127 69 l 1
 163 136 437 680 437 702 c 0
 437 908 182 1202 180 1411 c 1
 225 1446 l 1
 235 1444 l 1
 309 1410 311 1324 331 1255 c 0
 369 1123 552 803 555 698 c 1
 198 -19 l 1
481 1490 m 0
 485 1490 492 1487 496 1486 c 1
 499 1486 l 1
 499 1484 l 1
 500 1485 l 1
 528 1457 557 1402 562 1363 c 1
 600 1264 822 751 822 700 c 0
 822 610 463 -56 419 -56 c 0
 393 -56 354 -43 354 -10 c 0
 354 68 678 528 712 689 c 1
 597 928 565 1211 416 1433 c 1
 419 1467 447 1490 481 1490 c 0
EndSplineSet
EndChar

StartChar: guilsinglleft
Encoding: 8249 8249 212
Width: 774
VWidth: 0
GlyphClass: 2
Flags: W
PickledData: "(dp1
S'org.pippin.gimp.org.kernagic'
p2
(dp3
S'lstem'
p4
I0
ssS'com.fontlab.hintData'
p5
(dp6
S'vhints'
p7
((dp8
S'position'
p9
I37
sS'width'
p10
I117
s(dp11
g9
I261
sg10
I151
stp12
ss."
HStem: -22 21G<550.5 576.5>
VStem: 158 117<609.156 835.988> 382 151<1255.47 1396.27>
LayerCount: 2
Fore
SplineSet
612 49 m 1
 610 19 595 -22 558 -22 c 0
 543 -22 529 -19 514 -18 c 1
 373 197 270 465 158 698 c 1
 161 798 344 1125 382 1255 c 0
 393 1293 420 1447 481 1447 c 0
 483 1447 485 1446 488 1446 c 1
 533 1411 l 1
 506 1193 275 869 275 702 c 0
 275 679 549 135 586 69 c 1
 612 49 l 1
EndSplineSet
EndChar

StartChar: guilsinglright
Encoding: 8250 8250 213
Width: 774
VWidth: 0
GlyphClass: 2
Flags: W
PickledData: "(dp1
S'org.pippin.gimp.org.kernagic'
p2
(dp3
S'lstem'
p4
I0
ssS'com.fontlab.hintData'
p5
(dp6
S'vhints'
p7
((dp8
S'position'
p9
I112
sS'width'
p10
I151
s(dp11
g9
I369
sg10
I118
stp12
ss."
HStem: -23 21G<185.5 210.5>
VStem: 228 151<1241.02 1399> 485 118<698 836.974>
LayerCount: 2
Fore
SplineSet
246 -19 m 1
 242 -19 l 2
 229 -19 217 -23 204 -23 c 0
 167 -23 151 19 150 49 c 1
 175 69 l 1
 211 136 485 680 485 702 c 0
 485 908 230 1202 228 1411 c 1
 273 1446 l 1
 283 1444 l 1
 357 1410 359 1324 379 1255 c 0
 417 1123 600 803 603 698 c 1
 246 -19 l 1
EndSplineSet
EndChar

StartChar: h
Encoding: 104 104 214
Width: 792
VWidth: 0
GlyphClass: 2
Flags: W
PickledData: "(dp1
S'org.pippin.gimp.org.kernagic'
p2
(dp3
S'lstem'
p4
I0
ssS'com.fontlab.hintData'
p5
(dp6
S'vhints'
p7
((dp8
S'position'
p9
I71
sS'width'
p10
I118
s(dp11
g9
I347
sg10
I119
stp12
sS'hhints'
p13
((dp14
g9
I632
sg10
I80
s(dp15
g9
I1335
sg10
I20
s(dp16
g9
I1354
sg10
I20
stp17
ss."
HStem: 0 21G<518 565> 632 80<305.198 471.391> 1335 20G<224 269 505 530.5> 1354 20G<505 530.5>
VStem: 185 118<17.887 651 713.636 1351.52> 461 119<913.22 1372.03> 478 141<14.6279 528.074>
LayerCount: 2
Fore
SplineSet
481 548 m 2xda
 481 556 l 1
 482 576 484 595 484 615 c 0
 484 621 472 628 472 634 c 2
 472 636 l 1
 459 633 447 632 435 632 c 0
 390 632 350 649 303 651 c 1
 303 626 303 601 303 576 c 0
 303 526 303 475 303 425 c 2
 303 416 l 2
 303 304 315 191 315 79 c 0
 315 44 297 5 257 5 c 0
 197 5 185 134 185 283 c 0
 185 391 191 509 191 595 c 0
 191 619 192 641 192 659 c 0
 192 677 191 692 188 702 c 1
 188 712 l 1
 191 752 196 792 196 832 c 0
 196 986 182 1140 182 1294 c 0
 182 1325 208 1355 240 1355 c 0xea
 298 1355 305 1276 305 1233 c 0
 305 1063 297 892 297 722 c 1
 334 712 372 712 409 712 c 2
 483 712 l 1
 487 719 488 729 488 738 c 0
 488 932 461 1125 461 1320 c 0
 461 1351 490 1374 520 1374 c 0
 541 1374 560 1362 580 1356 c 1xdc
 580 912 617 208 619 62 c 0
 619 20 582 0 548 0 c 0
 488 0 478 176 478 337 c 0
 478 419 481 498 481 548 c 2xda
EndSplineSet
EndChar

StartChar: hbar
Encoding: 295 295 215
Width: 810
VWidth: 0
GlyphClass: 2
Flags: W
PickledData: "(dp1
S'org.pippin.gimp.org.kernagic'
p2
(dp3
S'lstem'
p4
I0
ssS'com.fontlab.hintData'
p5
(dp6
S'vhints'
p7
((dp8
S'position'
p9
I71
sS'width'
p10
I118
s(dp11
g9
I347
sg10
I119
s(dp12
g9
I370
sg10
I100
s(dp13
g9
I382
sg10
I123
stp14
sS'hhints'
p15
((dp16
g9
I632
sg10
I80
s(dp17
g9
I1062
sg10
I75
s(dp18
g9
I1335
sg10
I20
s(dp19
g9
I1354
sg10
I20
stp20
ss."
HStem: 0 21G<543.5 574> 632 80<314.198 480.391> 1062 75<313 476> 1335 20G<233 278 514 539.5> 1354 20G<514 539.5>
VStem: 194 118<84.2507 416 425 649.885 713.875 1064.38 1137 1351.52> 470 119<1139.86 1372.03> 493 100<728.784 1060.89> 505 123<4.27088 521.633>
LayerCount: 2
Fore
SplineSet
497 738 m 0xe4
 497 847 488 957 481 1066 c 1
 455 1065 425 1065 394 1065 c 0
 367 1065 339 1064 312 1062 c 1
 309 949 306 835 306 722 c 1
 343 712 381 712 418 712 c 2
 492 712 l 1
 496 719 497 729 497 738 c 0xe4
608 1084 m 0
 608 1069 602 1063 593 1062 c 1xed
 602 650 626 178 628 62 c 0
 628 20 591 0 557 0 c 0
 530 0 506 13 505 38 c 0xec80
 501 165 494 366 494 548 c 1
 490 556 l 1
 491 576 493 595 493 615 c 0
 493 621 492 628 492 634 c 1
 481 636 l 1
 468 633 456 632 444 632 c 0
 399 632 359 649 312 651 c 1
 311 576 306 500 306 425 c 1
 312 416 l 1
 312 304 324 191 324 79 c 0
 324 44 306 5 266 5 c 0
 206 5 194 134 194 283 c 0
 194 391 200 509 200 595 c 0
 200 643 198 681 192 702 c 1
 197 712 l 1
 200 752 205 792 205 832 c 0
 205 909 201 986 198 1064 c 1
 178 1068 166 1076 166 1091 c 0
 166 1109 178 1121 195 1127 c 1
 192 1182 191 1238 191 1294 c 0
 191 1325 217 1355 249 1355 c 0xf5
 307 1355 314 1276 314 1233 c 0
 314 1201 314 1169 313 1137 c 1
 338 1138 368 1139 400 1139 c 0
 425 1139 451 1138 476 1137 c 1
 472 1198 470 1259 470 1320 c 0
 470 1351 499 1374 529 1374 c 0
 550 1374 569 1362 589 1356 c 1xee
 589 1280 590 1197 592 1110 c 1
 602 1103 608 1094 608 1084 c 0
EndSplineSet
EndChar

StartChar: hungarumlaut
Encoding: 733 733 217
Width: 954
VWidth: 0
GlyphClass: 2
Flags: W
PickledData: "(dp1
S'org.pippin.gimp.org.kernagic'
p2
(dp3
S'lstem'
p4
I0
ssS'com.fontlab.hintData'
p5
(dp6
S'hhints'
p7
((dp8
S'position'
p9
I0
sS'width'
p10
I440
stp11
ss."
HStem: 0 440<382 396>
LayerCount: 2
Fore
SplineSet
118 0 m 1
 118 13 l 1
 123 79 382 440 420 440 c 0
 445 440 468 424 468 402 c 0
 468 303 178 17 118 0 c 1
396 13 m 1
 382 13 376 26 376 40 c 0
 376 90 713 440 760 440 c 0
 790 440 815 416 822 392 c 1
 794 318 462 49 396 13 c 1
EndSplineSet
EndChar

StartChar: hyphen
Encoding: 45 45 218
AltUni2: 002015.ffffffff.0
Width: 792
VWidth: 0
GlyphClass: 2
Flags: W
PickledData: "(dp1
S'org.pippin.gimp.org.kernagic'
p2
(dp3
S'lstem'
p4
I0
ssS'com.fontlab.hintData'
p5
(dp6
S'vhints'
p7
((dp8
S'position'
p9
I145
sS'width'
p10
I442
stp11
sS'hhints'
p12
((dp13
g9
I656
sg10
I142
stp14
ss."
HStem: 656 142<213.467 576.522>
VStem: 174 442<697.994 754.885>
LayerCount: 2
Fore
SplineSet
616 739 m 0
 616 666 299 656 241 656 c 0
 208 656 174 680 174 715 c 0
 174 787 491 798 548 798 c 0
 581 798 616 775 616 739 c 0
EndSplineSet
EndChar

StartChar: i
Encoding: 105 105 219
Width: 774
VWidth: 0
GlyphClass: 2
Flags: W
PickledData: "(dp1
S'org.pippin.gimp.org.kernagic'
p2
(dp3
S'lstem'
p4
I0
ssS'com.fontlab.hintData'
p5
(dp6
S'vhints'
p7
((dp8
S'position'
p9
I174
sS'width'
p10
I112
stp11
sS'hhints'
p12
((dp13
g9
I18
sg10
I100
s(dp14
g9
I1254
sg10
I102
stp15
ss."
HStem: 18 100<223.891 320.998 428 595.574> 1254 102<158.706 311.779 422 583.134>
VStem: 307 112<128 1256>
LayerCount: 2
Fore
SplineSet
429 185 m 2
 429 166 428 144 428 128 c 1
 455 128 l 2
 470 128 491 130 514 130 c 0
 555 130 598 122 598 79 c 0
 598 43 565 16 530 16 c 2
 440 16 l 2
 394 16 347 16 321 20 c 1
 313 19 304 18 296 18 c 0
 241 18 223 40 223 64 c 0
 223 90 243 117 259 118 c 1
 317 118 l 1
 318 127 321 136 321 145 c 0
 321 290 307 435 307 580 c 0
 307 732 318 884 318 1036 c 0
 318 1109 315 1184 308 1256 c 1
 269 1256 l 2
 254 1256 238 1254 222 1254 c 0
 188 1254 158 1262 158 1309 c 0
 158 1353 220 1356 259 1356 c 2
 503 1356 l 2
 564 1356 586 1335 586 1313 c 0
 586 1288 559 1262 527 1262 c 2
 422 1262 l 1
 428 1199 430 1136 430 1072 c 0
 430 942 419 811 419 681 c 0
 419 536 429 391 429 246 c 2
 429 185 l 2
EndSplineSet
EndChar

StartChar: j
Encoding: 106 106 229
Width: 756
VWidth: 0
GlyphClass: 2
Flags: W
PickledData: "(dp1
S'org.pippin.gimp.org.kernagic'
p2
(dp3
S'lstem'
p4
I129
ssS'com.fontlab.hintData'
p5
(dp6
S'vhints'
p7
((dp8
S'position'
p9
I217
sS'width'
p10
I114
s(dp11
g9
I240
sg10
I112
stp12
sS'hhints'
p13
((dp14
g9
I1245
sg10
I94
stp15
ss."
HStem: 1245 94<168.124 325 439 599.779>
VStem: 325 114<799.883 1244.91> 348 112<-22.9195 628.319>
LayerCount: 2
Fore
SplineSet
460 164 m 2xa0
 460 46 437 -193 149 -193 c 0
 129 -193 125 -183 125 -168 c 0
 125 -158 127 -146 127 -134 c 0
 127 -106 238 -102 289 -46 c 0
 337 6 348 117 348 187 c 0xa0
 348 536 325 884 325 1233 c 2
 325 1242 l 1
 283 1246 168 1249 168 1292 c 0
 168 1322 211 1339 235 1339 c 0
 295 1339 600 1325 600 1293 c 0
 600 1262 572 1245 544 1245 c 2
 439 1245 l 1xc0
 439 963 460 664 460 382 c 2
 460 164 l 2xa0
EndSplineSet
EndChar

StartChar: k
Encoding: 107 107 231
Width: 864
VWidth: 0
GlyphClass: 2
Flags: W
PickledData: "(dp1
S'org.pippin.gimp.org.kernagic'
p2
(dp3
S'lstem'
p4
I0
ssS'com.fontlab.hintData'
p5
(dp6
S'vhints'
p7
((dp8
S'position'
p9
I66
sS'width'
p10
I110
s(dp11
g9
I105
sg10
I124
stp12
sS'hhints'
p13
((dp14
g9
I1337
sg10
I20
stp15
ss."
HStem: -35 21G<230 264 590.5 675> 1337 20G<269 299> 1337 20G<269 299>
VStem: 182 110<-27.628 683.082> 221 124<862.956 1353.94>
LayerCount: 2
Fore
SplineSet
688 1289 m 1xc8
 687 1284 496 976 468 919 c 1
 468 878 464 838 464 797 c 0
 464 678 590 252 652 149 c 0
 677 108 718 71 718 19 c 0
 718 -13 690 -35 660 -35 c 0
 521 -35 387 626 366 752 c 1
 310 641 292 519 292 396 c 2
 292 17 l 2
 292 -14 278 -31 250 -31 c 0
 210 -31 182 -7 182 34 c 2
 182 656 l 2xd0
 182 877 221 1097 221 1318 c 1
 232 1342 256 1357 282 1357 c 0
 316 1357 345 1328 345 1294 c 2
 345 1288 l 1
 319 1243 318 1038 318 915 c 2
 318 842 l 1
 357 912 556 1344 609 1344 c 0
 642 1344 688 1329 688 1289 c 1xc8
EndSplineSet
EndChar

StartChar: l
Encoding: 108 108 234
Width: 684
VWidth: 0
GlyphClass: 2
Flags: W
PickledData: "(dp1
S'org.pippin.gimp.org.kernagic'
p2
(dp3
S'lstem'
p4
I0
ssS'com.fontlab.hintData'
p5
(dp6
S'vhints'
p7
((dp8
S'position'
p9
I67
sS'width'
p10
I109
s(dp11
g9
I93
sg10
I91
stp12
sS'hhints'
p13
((dp14
g9
I-9
sg10
I87
s(dp15
g9
I1335
sg10
I20
stp16
ss."
HStem: -28 16G<231 260 471.5 514.5> -9 87<312.917 498.232> 1335 20G<240 289>
VStem: 190 109<83.2345 482.203> 216 91<525.094 1301.56>
LayerCount: 2
Fore
SplineSet
307 545 m 2xe8
 307 435 299 333 299 219 c 0
 299 154 308 78 368 78 c 0
 387 78 420 81 453 81 c 0
 507 81 563 72 563 21 c 0
 563 -11 528 -29 501 -33 c 1
 442 -14 380 -9 318 -9 c 1
 297 -21 272 -28 248 -28 c 0
 214 -28 190 7 190 39 c 0xf0
 190 344 216 649 216 954 c 2
 216 969 l 1
 210 1033 204 1097 204 1161 c 0
 204 1207 205 1355 275 1355 c 0
 303 1355 327 1332 327 1304 c 0
 327 1252 313 1200 313 1148 c 0
 313 984 319 820 319 656 c 1
 308 630 307 599 307 570 c 2
 307 545 l 2xe8
EndSplineSet
EndChar

StartChar: less
Encoding: 60 60 239
Width: 774
VWidth: 0
GlyphClass: 2
Flags: W
PickledData: "(dp1
S'org.pippin.gimp.org.kernagic'
p2
(dp3
S'lstem'
p4
I0
ssS'com.fontlab.hintData'
p5
(dp6
S'vhints'
p7
((dp8
S'position'
p9
I37
sS'width'
p10
I117
stp11
sS'hhints'
p12
((dp13
g9
I-22
sg10
I71
stp14
ss."
HStem: -22 71<569.766 589.784>
VStem: 158 117<599.547 839.5>
LayerCount: 2
Fore
SplineSet
158 698 m 1
 160 756 417 1447 481 1447 c 0
 483 1447 485 1446 488 1446 c 1
 533 1411 l 1
 506 1193 275 869 275 702 c 0
 275 679 549 115 586 49 c 1
 612 49 l 1
 610 19 595 -22 558 -22 c 0
 406 -22 216 577 158 698 c 1
EndSplineSet
EndChar

StartChar: logicalnot
Encoding: 172 172 240
Width: 1098
VWidth: 0
GlyphClass: 2
Flags: W
PickledData: "(dp1
S'org.pippin.gimp.org.kernagic'
p2
(dp3
S'lstem'
p4
I0
ssS'com.fontlab.hintData'
p5
(dp6
S'vhints'
p7
((dp8
S'position'
p9
I670
sS'width'
p10
I93
stp11
sS'hhints'
p12
((dp13
g9
I711
sg10
I124
s(dp14
g9
I733
sg10
I115
stp15
ss."
HStem: 711 124<128.949 517.653> 733 115<524.249 810.316>
VStem: 809 93<539.768 725.968>
LayerCount: 2
Fore
SplineSet
169 711 m 0xa0
 141 711 118 735 118 763 c 0
 118 822 229 835 336 835 c 0xa0
 415 835 491 828 519 828 c 0
 631 828 742 848 854 848 c 0
 886 848 921 824 921 790 c 0
 921 766 914 741 902 720 c 1
 902 658 907 596 926 537 c 1
 922 509 904 475 872 475 c 0
 818 475 809 536 809 592 c 0
 809 618 811 643 811 659 c 0
 811 682 810 705 806 727 c 1
 781 728 755 733 730 733 c 0x60
 543 733 356 711 169 711 c 0xa0
EndSplineSet
EndChar

StartChar: lslash
Encoding: 322 322 241
Width: 774
VWidth: 0
GlyphClass: 2
Flags: W
PickledData: "(dp1
S'org.pippin.gimp.org.kernagic'
p2
(dp3
S'lstem'
p4
I0
ssS'com.fontlab.hintData'
p5
(dp6
S'vhints'
p7
((dp8
S'position'
p9
I67
sS'width'
p10
I109
s(dp11
g9
I93
sg10
I97
stp12
sS'hhints'
p13
((dp14
g9
I-28
sg10
I106
s(dp15
g9
I-9
sg10
I87
s(dp16
g9
I1335
sg10
I20
stp17
ss."
HStem: -28 106<285 343 357.906 598.571> -9 87<339.64 535.232> 1335 20G<277 326>
VStem: 227 109<78.0553 481.72> 253 97<224.335 649.195 775 1301.56>
LayerCount: 2
Fore
SplineSet
552 771 m 0xa8
 552 723 471 714 356 686 c 1
 345 650 344 609 344 570 c 2
 344 545 l 2
 344 435 336 333 336 219 c 0
 336 154 341 78 343 78 c 0xb0
 376 78 433 81 490 81 c 0
 544 81 600 72 600 21 c 0
 600 -11 565 -29 538 -33 c 1
 479 -14 417 -9 355 -9 c 1x70
 334 -21 309 -28 285 -28 c 0
 251 -28 227 7 227 39 c 0xb0
 227 45 238 446 246 650 c 1
 196 626 157 618 137 618 c 0
 124 618 110 634 110 657 c 0
 110 697 174 721 249 736 c 1
 251 809 253 881 253 954 c 2
 253 969 l 1
 247 1033 241 1097 241 1161 c 0
 241 1207 242 1355 312 1355 c 0
 340 1355 364 1332 364 1304 c 0
 364 1252 350 1200 350 1148 c 0
 350 1024 354 899 355 775 c 1
 427 800 491 807 515 807 c 0
 533 807 552 793 552 771 c 0xa8
EndSplineSet
EndChar

StartChar: m
Encoding: 109 109 242
Width: 1206
VWidth: 0
GlyphClass: 2
Flags: W
PickledData: "(dp1
S'org.pippin.gimp.org.kernagic'
p2
(dp3
S'lstem'
p4
I0
ssS'com.fontlab.hintData'
p5
(dp6
S'vhints'
p7
((dp8
S'position'
p9
I58
sS'width'
p10
I123
s(dp11
g9
I795
sg10
I116
s(dp12
g9
I824
sg10
I133
s(dp13
g9
I825
sg10
I107
stp14
sS'hhints'
p15
((dp16
g9
I-40
sg10
I21
stp17
ss."
HStem: -40 21G<195.5 237>
VStem: 150 123<-38.2814 459.067> 887 116<836.203 1059> 916 133<-101.197 278.921> 917 107<25.0788 728.29>
LayerCount: 2
Fore
SplineSet
887 806 m 0xe0
 887 890 895 975 895 1059 c 1
 855 937 690 114 603 114 c 0
 549 114 518 149 518 202 c 0
 518 348 365 904 312 1065 c 1
 295 740 273 415 273 89 c 0
 273 69 276 47 276 28 c 0
 276 -10 266 -40 208 -40 c 0
 183 -40 150 -20 150 9 c 0
 150 427 213 843 213 1261 c 1
 206 1272 201 1288 201 1301 c 0
 201 1340 250 1351 280 1351 c 0
 347 1351 586 520 614 370 c 1
 655 505 821 1348 928 1348 c 0
 959 1348 1003 1329 1003 1292 c 0xe0
 1003 1002 1029 693 1029 423 c 0
 1029 351 1024 279 1024 207 c 2
 1024 206 l 2xc8
 1024 176 1040 23 1040 20 c 1
 1045 8 1049 -6 1049 -19 c 0
 1049 -58 1024 -107 980 -107 c 0
 921 -107 916 -21 916 21 c 0xd0
 916 108 917 196 917 283 c 0xc8
 917 461 887 643 887 806 c 0xe0
EndSplineSet
EndChar

StartChar: macron
Encoding: 175 175 243
Width: 792
VWidth: 0
GlyphClass: 2
Flags: W
PickledData: "(dp1
S'org.pippin.gimp.org.kernagic'
p2
(dp3
S'lstem'
p4
I0
ssS'com.fontlab.hintData'
p5
(dp6
S'vhints'
p7
((dp8
S'position'
p9
I104
sS'width'
p10
I442
stp11
sS'hhints'
p12
((dp13
g9
I700
sg10
I104
stp14
ss."
HStem: 700 104<177.103 613.981>
VStem: 174 442<717.664 787.638>
LayerCount: 2
Fore
SplineSet
616 749 m 0
 616 712 580 704 550 704 c 0
 530 704 469 700 402 700 c 0
 296 700 174 709 174 756 c 0
 174 797 235 800 264 800 c 0
 284 800 343 804 408 804 c 0
 506 804 616 795 616 749 c 0
EndSplineSet
EndChar

StartChar: minus
Encoding: 8722 8722 244
Width: 900
VWidth: 0
GlyphClass: 2
Flags: W
PickledData: "(dp1
S'org.pippin.gimp.org.kernagic'
p2
(dp3
S'lstem'
p4
I0
ssS'com.fontlab.hintData'
p5
(dp6
S'vhints'
p7
((dp8
S'position'
p9
I57
sS'width'
p10
I572
stp11
sS'hhints'
p12
((dp13
g9
I590
sg10
I111
stp14
ss."
HStem: 590 111<160.599 728.411>
VStem: 158 572<601.597 700.631>
LayerCount: 2
Fore
SplineSet
158 655 m 0
 158 683 176 701 204 701 c 2
 505 701 l 2
 547 701 589 708 631 708 c 0
 673 708 730 701 730 647 c 0
 730 613 702 600 672 600 c 0
 528 600 383 590 240 590 c 0
 195 590 158 604 158 655 c 0
EndSplineSet
EndChar

StartChar: multiply
Encoding: 215 215 245
Width: 828
VWidth: 0
GlyphClass: 2
Flags: W
PickledData: "(dp1
S'org.pippin.gimp.org.kernagic'
p2
(dp3
S'lstem'
p4
I0
ssS'com.fontlab.hintData'
p5
(dp6
S'vhints'
p7
((dp8
S'position'
p9
I88
sS'width'
p10
I338
stp11
sS'hhints'
p12
((dp13
g9
I399
sg10
I481
stp14
ss."
HStem: 399 481
VStem: 158 338<613 838.5>
LayerCount: 2
Fore
SplineSet
549 412 m 1
 526 434 418 557 403 562 c 1
 377 560 317 430 251 430 c 0
 221 430 189 460 189 490 c 0
 189 528 297 601 323 638 c 1
 277 681 158 755 158 823 c 0
 158 854 188 880 218 880 c 0
 244 880 375 748 407 721 c 1
 463 750 505 866 580 866 c 0
 608 866 634 839 634 811 c 0
 634 745 496 707 496 643 c 0
 496 583 655 539 655 473 c 0
 655 435 620 399 582 399 c 1
 549 412 l 1
EndSplineSet
EndChar

StartChar: n
Encoding: 110 110 246
Width: 1044
VWidth: 0
GlyphClass: 2
Flags: W
PickledData: "(dp1
S'org.pippin.gimp.org.kernagic'
p2
(dp3
S'lstem'
p4
I0
ssS'com.fontlab.hintData'
p5
(dp6
S'vhints'
p7
((dp8
S'position'
p9
I64
sS'width'
p10
I112
s(dp11
g9
I644
sg10
I106
stp12
sS'hhints'
p13
((dp14
g9
I2
sg10
I21
s(dp15
g9
I1334
sg10
I20
s(dp16
g9
I1342
sg10
I20
stp17
ss."
HStem: -6 21G<692.5 734> 1342 20G<242 269> 1342 12G<242 269 281.5 354>
VStem: 182 112<66.7961 1145> 762 106<788.978 1342.12>
LayerCount: 2
Fore
SplineSet
721 189 m 1xb8
 754 534 762 881 762 1228 c 0
 762 1244 759 1264 759 1283 c 0
 759 1315 767 1344 810 1344 c 0
 852 1344 868 1302 868 1264 c 2
 868 1109 l 1
 867 951 846 92 794 11 c 1
 771 4 746 -6 722 -6 c 0
 663 -6 672 55 653 93 c 0
 653 95 654 98 654 102 c 0
 654 219 350 1016 294 1145 c 1
 294 114 l 1
 301 99 315 83 315 66 c 0
 315 32 287 2 253 2 c 0
 194 2 186 84 186 127 c 0
 186 361 182 595 182 829 c 0
 182 956 194 1084 194 1211 c 0
 194 1274 215 1322 269 1362 c 1xd8
 269 1349 l 1
 274 1352 279 1354 284 1354 c 0
 424 1354 666 324 721 189 c 1xb8
EndSplineSet
EndChar

StartChar: nine
Encoding: 57 57 250
Width: 756
VWidth: 0
GlyphClass: 2
Flags: W
PickledData: "(dp1
S'org.pippin.gimp.org.kernagic'
p2
(dp3
S'lstem'
p4
I0
ssS'com.fontlab.hintData'
p5
(dp6
S'vhints'
p7
((dp8
S'position'
p9
I94
sS'width'
p10
I100
s(dp11
g9
I359
sg10
I68
s(dp12
g9
I366
sg10
I98
stp13
sS'hhints'
p14
((dp15
g9
I1527
sg10
I87
stp16
ss."
HStem: -34 21G<438.158 480> 1527 87<336.925 453.247>
VStem: 190 100<1089.75 1483.18> 455 68<284.357 643.586> 462 98<1013.41 1521.27>
LayerCount: 2
Fore
SplineSet
536 237 m 1xe8
 535 188 522 139 522 90 c 0
 522 78 523 64 523 49 c 0
 523 9 505 -34 455 -34 c 1
 423 4 l 1
 453 94 455 502 455 686 c 0xf0
 455 772 452 848 451 931 c 1
 302 965 190 1087 190 1243 c 0
 190 1370 217 1614 388 1614 c 0
 529 1614 560 1547 560 1420 c 0
 560 1026 536 631 536 237 c 1xe8
453 1009 m 1
 461 1148 462 1288 462 1427 c 0xe8
 462 1480 453 1527 389 1527 c 0
 308 1527 290 1306 290 1247 c 0
 290 1085 350 1067 453 1009 c 1
EndSplineSet
EndChar

StartChar: numbersign
Encoding: 35 35 252
Width: 882
VWidth: 0
GlyphClass: 2
Flags: W
PickledData: "(dp1
S'org.pippin.gimp.org.kernagic'
p2
(dp3
S'lstem'
p4
I0
ssS'com.fontlab.hintData'
p5
(dp6
S'vhints'
p7
((dp8
S'position'
p9
I220
sS'width'
p10
I94
s(dp11
g9
I273
sg10
I90
s(dp12
g9
I401
sg10
I106
s(dp13
g9
I496
sg10
I74
s(dp14
g9
I579
sg10
I101
stp15
sS'hhints'
p16
((dp17
g9
I571
sg10
I112
s(dp18
g9
I585
sg10
I100
s(dp19
g9
I945
sg10
I101
s(dp20
g9
I960
sg10
I94
s(dp21
g9
I1547
sg10
I20
stp22
ss."
HStem: 571 112<104.858 247 353.376 395> 586 113<353 531.608 641 744.65> 945 101<173 291> 960 94<398.194 565.545 678 744> 1547 20G<372.5 420.787 692 713>
VStem: 291 94<690.219 948> 344 90<1094.28 1520> 472 106<-39 368.584> 567 74<699.065 953.838> 650 101<1253.77 1565.31>
LayerCount: 2
Fore
SplineSet
747 637 m 1x5ac0
 748 637 l 1
 747 595 704 586 670 586 c 0
 668 586 666 586 664 586 c 2x5ac0
 634 587 l 1
 616 378 578 171 578 -39 c 1
 543 -81 l 1
 514 -81 472 -74 472 -37 c 0
 472 171 530 374 537 581 c 1
 490 585 442 585 395 585 c 1
 345 582 l 1
 333 488 320 -80 234 -80 c 0
 209 -80 176 -65 176 -36 c 0
 176 170 208 375 247 576 c 1
 229 574 208 571 187 571 c 0
 143 571 102 583 102 637 c 0
 102 676 152 683 198 683 c 0
 223 683 247 681 260 681 c 1
 275 769 284 859 291 948 c 1
 278 947 259 945 240 945 c 0
 194 945 143 955 143 1004 c 2
 143 1014 l 1
 173 1047 l 1
 194 1047 215 1046 236 1046 c 0xad40
 257 1046 278 1047 299 1049 c 1
 316 1185 344 1320 344 1457 c 0
 344 1468 343 1481 343 1494 c 0
 343 1530 349 1567 396 1567 c 2
 411 1567 l 1
 434 1520 l 1
 434 1365 399 1213 397 1058 c 1
 415 1054 433 1054 452 1054 c 0
 464 1054 476 1054 488 1054 c 0
 518 1054 547 1055 576 1062 c 1
 608 1219 625 1377 650 1535 c 1
 663 1552 681 1566 703 1566 c 0
 723 1566 751 1546 751 1525 c 0
 751 1369 682 1223 678 1067 c 1
 744 1067 l 1
 787 1020 l 1
 780 991 769 959 733 959 c 1
 666 962 l 1
 647 875 642 786 641 698 c 1
 648 698 655 699 662 699 c 0
 703 699 747 687 747 637 c 1x5ac0
353 686 m 1
 361 685 370 685 378 685 c 0
 430 685 483 685 534 691 c 1
 549 777 566 864 567 952 c 1
 536 959 503 960 471 960 c 0
 442 960 413 959 385 954 c 1x1cc0
 361 867 356 776 353 686 c 1
EndSplineSet
EndChar

StartChar: o
Encoding: 111 111 253
Width: 900
VWidth: 0
GlyphClass: 2
Flags: W
PickledData: "(dp1
S'org.pippin.gimp.org.kernagic'
p2
(dp3
S'lstem'
p4
I0
ssS'com.fontlab.hintData'
p5
(dp6
S'vhints'
p7
((dp8
S'position'
p9
I51
sS'width'
p10
I111
s(dp11
g9
I478
sg10
I106
stp12
sS'hhints'
p13
((dp14
g9
I-38
sg10
I85
s(dp15
g9
I1269
sg10
I109
stp16
ss."
HStem: -38 85<378.712 506.212> 1269 109<251.5 502.11>
VStem: 176 111<272.02 713.998 714 1196.13> 603 106<199.6 1011.19>
LayerCount: 2
Fore
SplineSet
709 798 m 2
 709 783 l 2
 709 706 713 628 713 551 c 0
 713 368 698 -38 440 -38 c 0
 207 -38 176 410 176 626 c 0
 176 658 178 677 178 704 c 0
 178 711 177 714 175 714 c 1
 175 751 l 2
 175 860 174 1378 329 1378 c 0
 615 1378 709 1114 709 798 c 2
407 1269 m 0
 309 1269 295 1141 295 1027 c 0
 295 981 297 937 297 906 c 0
 297 843 287 780 287 717 c 0
 287 613 298 47 432 47 c 0
 589 47 603 454 603 564 c 0
 603 723 577 882 576 1041 c 1
 576 1077 l 1
 573 1171 509 1269 407 1269 c 0
EndSplineSet
EndChar

StartChar: oe
Encoding: 339 339 258
Width: 1008
VWidth: 0
GlyphClass: 2
Flags: W
PickledData: "(dp1
S'org.pippin.gimp.org.kernagic'
p2
(dp3
S'lstem'
p4
I0
ssS'com.fontlab.hintData'
p5
(dp6
S'vhints'
p7
((dp8
S'position'
p9
I54
sS'width'
p10
I109
s(dp11
g9
I455
sg10
I140
s(dp12
g9
I498
sg10
I97
stp13
sS'hhints'
p14
((dp15
g9
I-38
sg10
I85
s(dp16
g9
I-27
sg10
I91
s(dp17
g9
I718
sg10
I79
s(dp18
g9
I1214
sg10
I138
s(dp19
g9
I1269
sg10
I79
stp20
ss."
HStem: -38 85<369.712 497.486> -27 91<699.543 917.969> 718 79<701.028 874.715> 1214 138<709.628 874.85> 1269 79<329.499 499.003>
VStem: 166 109<272.02 713.998 714 1137.17> 567 140<571.453 718 797.985 1204.82> 610 97<64.0502 127 1178 1251.24>
LayerCount: 2
Fore
SplineSet
707 1256 m 1x35
 707 1148 l 2x36
 707 1145 698 961 698 867 c 0
 698 840 701 818 704 797 c 1
 727 797 771 801 798 801 c 0
 839 801 876 792 876 769 c 0
 876 744 859 718 831 718 c 2
 701 718 l 1
 705 666 707 615 707 563 c 0
 707 440 698 315 698 192 c 0
 698 133 701 64 702 64 c 0
 736 64 795 69 853 69 c 0
 886 69 918 60 918 19 c 0
 918 -16 875 -27 843 -27 c 2
 670 -27 l 2x75
 634 -27 600 1 598 36 c 1
 598 127 l 1
 575 16 505 -38 431 -38 c 0
 198 -38 167 410 167 626 c 0
 167 658 169 677 169 704 c 0
 169 711 168 714 166 714 c 1
 166 751 l 2
 166 887 174 1348 405 1348 c 0xad
 500 1348 577 1269 610 1178 c 1
 610 1332 628 1352 674 1352 c 0
 716 1352 919 1323 919 1261 c 0
 919 1242 907 1214 879 1214 c 0
 823 1214 763 1250 707 1256 c 1x35
398 1269 m 0xae
 291 1269 275 1078 275 909 c 0
 275 835 278 765 278 717 c 0
 278 613 289 47 423 47 c 0
 580 47 594 454 594 564 c 0
 594 723 568 882 567 1041 c 1
 567 1077 l 1
 564 1171 500 1269 398 1269 c 0xae
EndSplineSet
EndChar

StartChar: ogonek
Encoding: 731 731 259
Width: 702
VWidth: 0
GlyphClass: 2
Flags: W
PickledData: "(dp1
S'org.pippin.gimp.org.kernagic'
p2
(dp3
S'lstem'
p4
I0
ssS'com.fontlab.hintData'
p5
(dp6
S'vhints'
p7
((dp8
S'position'
p9
I90
sS'width'
p10
I70
stp11
sS'hhints'
p12
((dp13
g9
I-366
sg10
I65
stp14
ss."
HStem: -366 65<326.224 433.156>
VStem: 254 70<-300.91 -147.67>
LayerCount: 2
Fore
SplineSet
501 -7 m 1
 430 -66 324 -145 324 -250 c 0
 324 -266 329 -301 351 -301 c 0
 382 -301 412 -286 437 -268 c 1
 451 -302 l 1
 451 -342 377 -366 345 -366 c 0
 286 -366 254 -313 254 -259 c 0
 254 -141 351 -38 446 20 c 1
 501 -7 l 1
EndSplineSet
EndChar

StartChar: one
Encoding: 49 49 263
Width: 774
VWidth: 0
GlyphClass: 2
Flags: W
PickledData: "(dp1
S'org.pippin.gimp.org.kernagic'
p2
(dp3
S'lstem'
p4
I0
ssS'com.fontlab.hintData'
p5
(dp6
S'vhints'
p7
((dp8
S'position'
p9
I152
sS'width'
p10
I85
s(dp11
g9
I214
sg10
I98
stp12
sS'hhints'
p13
((dp14
g9
I-9
sg10
I95
s(dp15
g9
I-8
sg10
I104
s(dp16
g9
I1479
sg10
I96
stp17
ss."
HStem: -9 95<239.602 336.985> -8 104<435 591.517> 1479 96<103.381 270.154>
VStem: 275 85<1033.58 1475.06> 337 98<96.1245 533.76>
LayerCount: 2
Fore
SplineSet
275 1308 m 0xb0
 275 1329 278 1356 278 1383 c 0
 278 1432 267 1479 207 1479 c 0
 194 1479 177 1477 160 1477 c 0
 130 1477 102 1483 102 1521 c 0
 102 1574 224 1575 267 1575 c 0
 300 1575 354 1574 372 1541 c 1
 366 1513 360 1484 360 1455 c 0xb0
 360 1329 391 1205 391 1079 c 0
 391 756 435 433 435 109 c 2
 435 96 l 1
 460 98 485 102 510 102 c 1
 510 103 l 1
 546 103 597 99 597 52 c 0
 597 -4 435 -8 364 -8 c 0x68
 334 -8 326 -9 303 -9 c 0
 262 -9 239 -3 239 47 c 0
 239 75 244 86 292 86 c 0
 316 86 337 93 337 120 c 0xa8
 337 519 275 923 275 1308 c 0xb0
EndSplineSet
EndChar

StartChar: ordfeminine
Encoding: 170 170 266
Width: 864
VWidth: 0
GlyphClass: 2
Flags: W
PickledData: "(dp1
S'org.pippin.gimp.org.kernagic'
p2
(dp3
S'lstem'
p4
I0
ssS'com.fontlab.hintData'
p5
(dp6
S'vhints'
p7
((dp8
S'position'
p9
I494
sS'width'
p10
I125
stp11
sS'hhints'
p12
((dp13
g9
I66
sg10
I94
s(dp14
g9
I1353
sg10
I20
stp15
ss."
HStem: 66 94<118.404 721.109> 1353 20G<381.5 535> 1353 20G<381.5 535>
VStem: 598 125<255.856 568.07>
LayerCount: 2
Fore
SplineSet
674 160 m 2x90
 709 160 724 144 724 124 c 0
 724 103 702 78 668 78 c 0
 638 78 607 78 579 76 c 1
 452 76 324 66 197 66 c 0
 153 66 118 89 118 110 c 0
 118 138 140 160 168 160 c 2
 674 160 l 2x90
555 645 m 1
 533 755 517 967 484 1184 c 1
 445 1019 390 777 374 678 c 1
 409 655 511 648 555 645 c 1
723 311 m 2
 723 309 l 2
 723 285 712 260 689 251 c 1
 640 251 598 260 598 319 c 0
 598 406 568 572 568 572 c 1
 366 602 l 1
 322 444 341 259 251 259 c 0
 221 259 186 281 186 314 c 0
 186 554 321 859 356 1100 c 1
 365 1169 363 1317 400 1373 c 1
 469 1373 l 2xd0
 601 1373 723 431 723 311 c 2
EndSplineSet
EndChar

StartChar: ordmasculine
Encoding: 186 186 267
Width: 900
VWidth: 0
GlyphClass: 2
Flags: W
PickledData: "(dp1
S'org.pippin.gimp.org.kernagic'
p2
(dp3
S'lstem'
p4
I0
ssS'com.fontlab.hintData'
p5
(dp6
S'vhints'
p7
((dp8
S'position'
p9
I49
sS'width'
p10
I113
s(dp11
g9
I479
sg10
I105
stp12
sS'hhints'
p13
((dp14
g9
I66
sg10
I94
s(dp15
g9
I269
sg10
I115
s(dp16
g9
I1269
sg10
I109
stp17
ss."
HStem: 66 94<142.404 745.109> 269 115<366.195 530.531> 1269 109<261.718 514.375>
VStem: 177 113<497.392 1230.61> 607 105<470.47 1148.35>
LayerCount: 2
Fore
SplineSet
712 908 m 2
 712 893 l 2
 712 816 716 738 716 661 c 0
 716 539 701 269 443 269 c 0
 210 269 179 584 179 736 c 0
 179 765 177 817 177 880 c 0
 177 1078 194 1378 332 1378 c 0
 618 1378 712 1164 712 908 c 2
410 1269 m 0
 312 1269 298 1157 298 1057 c 0
 298 1042 300 1027 300 1016 c 0
 300 953 290 890 290 827 c 0
 290 758 301 384 435 384 c 0
 592 384 606 612 606 674 c 0
 606 713 607 759 607 808 c 0
 607 1015 590 1269 410 1269 c 0
698 160 m 2
 733 160 748 144 748 124 c 0
 748 103 726 78 692 78 c 0
 662 78 631 76 603 76 c 0
 476 76 348 66 221 66 c 0
 177 66 142 89 142 110 c 0
 142 138 164 160 192 160 c 2
 698 160 l 2
EndSplineSet
EndChar

StartChar: oslash
Encoding: 248 248 268
Width: 882
VWidth: 0
GlyphClass: 2
Flags: W
PickledData: "(dp1
S'org.pippin.gimp.org.kernagic'
p2
(dp3
S'lstem'
p4
I0
ssS'com.fontlab.hintData'
p5
(dp6
S'vhints'
p7
((dp8
S'position'
p9
I103
sS'width'
p10
I111
s(dp11
g9
I530
sg10
I106
stp12
sS'hhints'
p13
((dp14
g9
I-38
sg10
I85
s(dp15
g9
I1269
sg10
I109
s(dp16
g9
I1540
sg10
I20
stp17
ss."
HStem: -38 85<367.466 498.212> 1269 109<243.5 475.586> 1540 20G<523.757 588>
VStem: 168 111<266.462 713.998 714 1196.13> 595 106<199.6 1011.19>
LayerCount: 2
Fore
SplineSet
257 -227 m 1
 295 32 l 1
 185 166 168 463 168 626 c 0
 168 658 170 677 170 704 c 0
 170 711 169 714 167 714 c 1
 167 751 l 2
 167 860 166 1378 321 1378 c 0
 388 1378 444 1364 491 1338 c 1
 527 1560 l 1
 588 1560 l 1
 548 1296 l 1
 659 1194 701 1008 701 798 c 2
 701 783 l 2
 701 706 705 628 705 551 c 0
 705 368 690 -38 432 -38 c 0
 402 -38 375 -31 351 -17 c 1
 307 -274 l 1
 257 -227 l 1
367 89 m 1
 383 63 402 47 424 47 c 0
 581 47 595 454 595 564 c 0
 595 723 569 882 568 1041 c 1
 568 1077 l 1
 567 1117 555 1158 533 1192 c 1
 367 89 l 1
323 215 m 1
 477 1247 l 1
 454 1261 428 1269 399 1269 c 0
 301 1269 287 1141 287 1027 c 0
 287 981 289 937 289 906 c 0
 289 843 279 780 279 717 c 0
 279 650 284 391 323 215 c 1
EndSplineSet
EndChar

StartChar: p
Encoding: 112 112 270
Width: 720
VWidth: 0
GlyphClass: 2
Flags: W
PickledData: "(dp1
S'org.pippin.gimp.org.kernagic'
p2
(dp3
S'lstem'
p4
I0
ssS'com.fontlab.hintData'
p5
(dp6
S'vhints'
p7
((dp8
S'position'
p9
I68
sS'width'
p10
I121
s(dp11
g9
I87
sg10
I99
s(dp12
g9
I312
sg10
I112
stp13
sS'hhints'
p14
((dp15
g9
I-39
sg10
I21
s(dp16
g9
I628
sg10
I85
s(dp17
g9
I1231
sg10
I111
stp18
ss."
HStem: -39 21G<227.6 279> 628 85<316 374.398> 1231 111<312 333.985 334 416.212>
VStem: 194 121<27.0923 642.032 713 1076.81> 213 99<714.702 1228.54> 438 112<776.535 1210.27>
LayerCount: 2
Fore
SplineSet
197 1270 m 1xec
 202 1297 219 1342 252 1342 c 2
 342 1342 l 2
 507 1342 550 1180 550 1044 c 0
 550 831 547 699 315 628 c 1
 315 409 l 2
 315 279 331 151 331 21 c 0
 331 -14 296 -39 262 -39 c 1
 219 -14 l 1
 197 85 194 186 194 287 c 0xf4
 194 409 202 530 202 652 c 1
 195 668 190 685 190 702 c 2
 190 709 l 1
 209 747 210 841 210 885 c 0
 210 944 213 1012 213 1080 c 0
 213 1147 211 1213 197 1270 c 1xec
334 1228 m 1
 334 1231 314 1231 312 1231 c 1
 312 1115 l 2xec
 312 982 315 849 316 716 c 1
 316 713 l 1
 435 729 438 969 438 1059 c 0
 438 1136 434 1228 334 1228 c 1
EndSplineSet
EndChar

StartChar: paragraph
Encoding: 182 182 271
Width: 1080
VWidth: 0
GlyphClass: 2
Flags: W
PickledData: "(dp1
S'org.pippin.gimp.org.kernagic'
p2
(dp3
S'lstem'
p4
I0
ssS'com.fontlab.hintData'
p5
(dp6
S'vhints'
p7
((dp8
S'position'
p9
I36
sS'width'
p10
I112
s(dp11
g9
I465
sg10
I121
s(dp12
g9
I486
sg10
I111
s(dp13
g9
I508
sg10
I116
s(dp14
g9
I680
sg10
I114
stp15
sS'hhints'
p16
((dp17
g9
I1098
sg10
I98
s(dp18
g9
I1738
sg10
I116
s(dp19
g9
I1769
sg10
I107
stp20
ss."
HStem: -8 9G<599 641.5 792.5 841.5> 1098 98<336.375 594> 1738 116<870 944.093> 1769 107<671.5 754.476>
VStem: 126 112<1293.64 1455> 555 121<-5.50609 510> 576 111<1246.66 1746.59> 598 116<536.297 1098 1196 1434.07> 770 114<706.848 1383.38>
LayerCount: 2
Fore
SplineSet
239 1454 m 1xca80
 238 1455 l 1
 238 1224 386 1196 581 1196 c 0
 585 1196 592 1199 596 1200 c 1
 596 1366 576 1531 576 1697 c 1
 578 1740 l 1
 551 1748 524 1748 496 1748 c 0
 349 1748 239 1591 239 1454 c 1xca80
870 1739 m 1
 871 1540 884 1341 884 1142 c 0
 884 850 872 557 872 265 c 0
 872 188 884 113 884 36 c 0
 884 4 857 -20 826 -20 c 0
 759 -20 751 52 751 103 c 0
 751 461 770 819 770 1177 c 0
 770 1326 755 1474 755 1623 c 0
 755 1642 758 1666 758 1689 c 0
 758 1731 748 1769 696 1769 c 0
 689 1769 687 1700 687 1689 c 0xda80
 687 1452 714 1217 714 980 c 0xd980
 714 674 676 370 676 64 c 0
 676 21 666 -8 617 -8 c 0
 581 -8 555 21 555 56 c 0xdc80
 555 359 598 661 598 964 c 0
 598 1009 595 1053 594 1098 c 1
 423 1098 185 1118 139 1321 c 0
 134 1342 135 1364 126 1384 c 1
 126 1747 291 1823 621 1854 c 1xe980
 638 1871 660 1876 683 1876 c 0xd980
 710 1876 737 1864 763 1859 c 1
 762 1858 l 1
 818 1865 l 1
 827 1854 l 1
 862 1852 950 1838 950 1790 c 0
 950 1759 922 1738 893 1738 c 0xe980
 885 1738 878 1739 870 1739 c 1
EndSplineSet
EndChar

StartChar: parenleft
Encoding: 40 40 272
Width: 684
VWidth: 0
GlyphClass: 2
Flags: W
PickledData: "(dp1
S'org.pippin.gimp.org.kernagic'
p2
(dp3
S'lstem'
p4
I0
ssS'com.fontlab.hintData'
p5
(dp6
S'vhints'
p7
((dp8
S'position'
p9
I52
sS'width'
p10
I102
stp11
ss."
VStem: 182 102<455.64 1245.71>
LayerCount: 2
Fore
SplineSet
526 -319 m 1
 524 -318 l 1
 515 -340 494 -361 468 -361 c 0
 276 -361 182 701 182 881 c 0
 182 1001 261 1651 403 1651 c 2
 412 1651 l 1
 448 1621 l 1
 447 1545 403 1484 375 1416 c 0
 311 1259 284 1048 284 879 c 0
 284 583 315 139 438 -130 c 0
 467 -193 509 -251 526 -319 c 1
EndSplineSet
EndChar

StartChar: parenright
Encoding: 41 41 273
Width: 810
VWidth: 0
GlyphClass: 2
Flags: W
PickledData: "(dp1
S'org.pippin.gimp.org.kernagic'
p2
(dp3
S'lstem'
p4
I0
ssS'com.fontlab.hintData'
p5
(dp6
S'vhints'
p7
((dp8
S'position'
p9
I285
sS'width'
p10
I103
stp11
ss."
VStem: 514 103<460.006 1230.58>
LayerCount: 2
Fore
SplineSet
617 817 m 1
 617 815 l 1
 616 651 478 -303 308 -303 c 0
 281 -303 254 -284 254 -255 c 0
 254 -217 321 -112 340 -71 c 0
 443 158 514 564 514 816 c 0
 514 993 490 1253 423 1416 c 0
 397 1480 349 1538 349 1610 c 2
 349 1621 l 1
 386 1650 l 1
 552 1650 615 954 617 817 c 1
EndSplineSet
EndChar

StartChar: percent
Encoding: 37 37 274
Width: 1296
VWidth: 0
GlyphClass: 2
Flags: W
PickledData: "(dp1
S'org.pippin.gimp.org.kernagic'
p2
(dp3
S'lstem'
p4
I0
ssS'com.fontlab.hintData'
p5
(dp6
S'vhints'
p7
((dp8
S'position'
p9
I46
sS'width'
p10
I99
s(dp11
g9
I350
sg10
I94
s(dp12
g9
I643
sg10
I98
s(dp13
g9
I658
sg10
I111
s(dp14
g9
I940
sg10
I100
stp15
sS'hhints'
p16
((dp17
g9
I2
sg10
I114
s(dp18
g9
I700
sg10
I100
s(dp19
g9
I733
sg10
I105
s(dp20
g9
I1449
sg10
I104
stp21
ss."
HStem: -8 21G<468.5 522.5> 2 114<897.403 1007.78> 700 100<302.496 418.316> 733 105<898.547 1006.24> 1449 104<306.402 405.591>
VStem: 158 99<843.274 1394.82> 462 94<1140 1383.74> 755 98<154.892 690.361> 770 111<1437 1533.66> 1052 100<163.189 687.24>
LayerCount: 2
Fore
SplineSet
1052 467 m 2x5f40
 1052 535 1040 733 944 733 c 0
 860 733 853 428 853 366 c 0
 853 329 888 116 928 116 c 0
 1047 116 1052 303 1052 386 c 2
 1052 467 l 2x5f40
334 1449 m 0
 296 1449 257 1210 257 1165 c 0
 257 1102 264 800 350 800 c 0x2e40
 458 800 462 1017 462 1092 c 0
 462 1179 462 1449 334 1449 c 0
769 1438 m 1
 770 1437 l 1
 771 1467 786 1536 827 1536 c 0
 855 1536 881 1517 881 1487 c 0
 881 1294 664 558 609 308 c 0
 594 241 566 -4 479 -8 c 1x8ec0
 458 4 440 27 440 52 c 0
 440 272 696 1167 769 1438 c 1
923 2 m 0x5f40
 787 2 755 270 755 370 c 0
 755 504 756 838 950 838 c 0
 1129 838 1152 612 1152 478 c 2
 1152 378 l 2
 1152 229 1115 2 923 2 c 0x5f40
556 1140 m 1
 555 1141 l 1
 503 999 618 700 353 700 c 0x2e40
 159 700 158 1025 158 1163 c 0
 158 1255 191 1553 327 1553 c 0
 532 1553 556 1300 556 1147 c 2
 556 1140 l 1
EndSplineSet
EndChar

StartChar: period
Encoding: 46 46 275
Width: 612
VWidth: 0
GlyphClass: 2
Flags: W
PickledData: "(dp1
S'org.pippin.gimp.org.kernagic'
p2
(dp3
S'lstem'
p4
I0
ssS'com.fontlab.hintData'
p5
(dp6
S'vhints'
p7
((dp8
S'position'
p9
I148
sS'width'
p10
I150
stp11
sS'hhints'
p12
((dp13
g9
I-32
sg10
I152
stp14
ss."
HStem: -32 152<230.707 363.769>
VStem: 222 150<-24.8322 111.635>
LayerCount: 2
Fore
SplineSet
222 41 m 0
 222 82 258 120 299 120 c 0
 338 120 372 81 372 43 c 0
 372 -4 336 -32 291 -32 c 0
 253 -32 222 4 222 41 c 0
EndSplineSet
EndChar

StartChar: periodcentered
Encoding: 183 183 276
Width: 612
VWidth: 0
GlyphClass: 2
Flags: W
PickledData: "(dp1
S'org.pippin.gimp.org.kernagic'
p2
(dp3
S'lstem'
p4
I0
ssS'com.fontlab.hintData'
p5
(dp6
S'vhints'
p7
((dp8
S'position'
p9
I74
sS'width'
p10
I150
stp11
sS'hhints'
p12
((dp13
g9
I633
sg10
I152
stp14
ss."
HStem: 633 152<230.707 363.769>
VStem: 222 150<640.168 776.635>
LayerCount: 2
Fore
SplineSet
222 706 m 0
 222 747 258 785 299 785 c 0
 338 785 372 746 372 708 c 0
 372 661 336 633 291 633 c 0
 253 633 222 669 222 706 c 0
EndSplineSet
EndChar

StartChar: plus
Encoding: 43 43 277
Width: 900
VWidth: 0
GlyphClass: 2
Flags: W
PickledData: "(dp1
S'org.pippin.gimp.org.kernagic'
p2
(dp3
S'lstem'
p4
I0
ssS'com.fontlab.hintData'
p5
(dp6
S'vhints'
p7
((dp8
S'position'
p9
I341
sS'width'
p10
I127
s(dp11
g9
I354
sg10
I133
stp12
sS'hhints'
p13
((dp14
g9
I602
sg10
I99
stp15
ss."
HStem: 602 99<158.461 359 486.406 729.089>
VStem: 359 127<391.577 598.692 701.11 963.367> 372 133<336.484 550.423>
LayerCount: 2
Fore
SplineSet
372 385 m 0xa0
 372 451 359 518 359 584 c 2
 359 599 l 1xc0
 331 599 285 590 245 590 c 0
 198 590 158 602 158 655 c 0
 158 682 175 708 204 708 c 0
 244 708 285 701 325 701 c 0
 341 701 356 702 372 705 c 1
 370 755 360 805 360 855 c 0
 360 900 367 968 426 968 c 0
 458 968 478 942 478 909 c 2
 478 884 l 1
 479 853 478 701 505 701 c 0xa0
 530 701 578 709 624 709 c 0
 679 709 730 697 730 647 c 0
 730 615 704 591 672 591 c 0
 631 591 592 602 551 602 c 0
 517 602 486 593 486 553 c 0xc0
 486 498 505 444 505 389 c 0
 505 353 470 333 438 333 c 0
 409 333 372 352 372 385 c 0xa0
EndSplineSet
EndChar

StartChar: plusminus
Encoding: 177 177 278
Width: 900
VWidth: 0
GlyphClass: 2
Flags: W
PickledData: "(dp1
S'org.pippin.gimp.org.kernagic'
p2
(dp3
S'lstem'
p4
I0
ssS'com.fontlab.hintData'
p5
(dp6
S'vhints'
p7
((dp8
S'position'
p9
I302
sS'width'
p10
I126
s(dp11
g9
I314
sg10
I134
s(dp12
g9
I320
sg10
I108
stp13
sS'hhints'
p14
((dp15
g9
I135
sg10
I111
s(dp16
g9
I602
sg10
I99
stp17
ss."
HStem: 135 111<160.599 728.411> 602 99<158.472 360 486.59 729.089>
VStem: 360 126<707.344 884 904 964.219> 372 134<336.688 550.423> 378 108<391.577 584 701.11 852.656>
LayerCount: 2
Fore
SplineSet
158 200 m 0xd0
 158 228 176 246 204 246 c 2
 506 246 l 2
 548 246 590 253 632 253 c 0
 674 253 730 246 730 192 c 0
 730 158 702 145 672 145 c 0
 528 145 383 135 240 135 c 0
 195 135 158 149 158 200 c 0xd0
372 385 m 0
 372 451 378 518 378 584 c 1xc8
 360 599 l 1xe0
 332 599 286 590 246 590 c 0
 199 590 158 602 158 655 c 0
 158 682 175 708 204 708 c 0
 244 708 286 701 326 701 c 0
 342 701 356 702 372 705 c 1xd0
 370 755 360 805 360 855 c 0
 360 900 367 968 426 968 c 0
 458 968 486 942 486 909 c 2
 486 904 l 1xe0
 478 884 l 1
 479 853 479 701 506 701 c 0xd0
 531 701 578 709 624 709 c 0
 679 709 730 697 730 647 c 0
 730 615 704 591 672 591 c 0
 631 591 593 602 552 602 c 0
 518 602 486 593 486 553 c 0xc8
 486 498 506 444 506 389 c 0
 506 353 470 333 438 333 c 0
 409 333 372 352 372 385 c 0
EndSplineSet
EndChar

StartChar: q
Encoding: 113 113 279
Width: 882
VWidth: 0
GlyphClass: 2
Flags: W
PickledData: "(dp1
S'org.pippin.gimp.org.kernagic'
p2
(dp3
S'lstem'
p4
I0
ssS'com.fontlab.hintData'
p5
(dp6
S'vhints'
p7
((dp8
S'position'
p9
I52
sS'width'
p10
I99
s(dp11
g9
I473
sg10
I109
stp12
sS'hhints'
p13
((dp14
g9
I-434
sg10
I108
s(dp15
g9
I1288
sg10
I81
stp16
ss."
HStem: -434 108<572.651 676.581> 1288 81<354.986 500.831>
VStem: 177 102<267.605 1135.81> 601 109<361.962 1153.35>
LayerCount: 2
Fore
SplineSet
630 -434 m 1
 630 -432 l 1
 577 -432 510 -427 472 -385 c 1
 472 -276 448 -169 427 -62 c 1
 204 -14 177 244 177 509 c 0
 177 592 180 676 180 754 c 0
 180 903 195 1369 411 1369 c 1
 441 1356 474 1353 504 1341 c 0
 698 1262 710 990 710 812 c 0
 710 635 707 30 527 -49 c 1
 527 -143 563 -235 583 -326 c 1
 624 -326 678 -333 678 -384 c 0
 678 -412 658 -434 630 -434 c 1
399 1288 m 0
 300 1288 279 785 279 699 c 0
 279 590 279 7 421 6 c 1
 440 14 461 18 481 18 c 0
 536 18 601 439 601 511 c 2
 601 869 l 2
 601 1004 587 1288 399 1288 c 0
EndSplineSet
EndChar

StartChar: question
Encoding: 63 63 280
Width: 702
VWidth: 0
GlyphClass: 2
Flags: W
PickledData: "(dp1
S'org.pippin.gimp.org.kernagic'
p2
(dp3
S'lstem'
p4
I0
ssS'com.fontlab.hintData'
p5
(dp6
S'vhints'
p7
((dp8
S'position'
p9
I63
sS'width'
p10
I105
s(dp11
g9
I131
sg10
I155
s(dp12
g9
I153
sg10
I100
s(dp13
g9
I268
sg10
I110
stp14
sS'hhints'
p15
((dp16
g9
I-8
sg10
I156
s(dp17
g9
I1447
sg10
I100
stp18
ss."
HStem: -8 156<272.498 406.104> 1447 100<303.885 381.169>
VStem: 194 119<1207.7 1445.1> 262 155<-1.32812 137.301> 284 100<229 698.255> 399 110<948.819 1441.41>
LayerCount: 2
Fore
SplineSet
262 68 m 0xd0
 262 107 302 148 342 148 c 0
 379 148 417 102 417 70 c 0
 417 15 382 -8 334 -8 c 0
 294 -8 262 31 262 68 c 0xd0
194 1359 m 0xe4
 194 1446 224 1547 334 1547 c 0
 494 1547 509 1388 509 1260 c 0
 509 945 384 823 384 366 c 0
 384 332 384 267 385 229 c 1
 324 229 353 223 334 223 c 0
 313 223 294 232 284 269 c 1xcc
 284 632 399 949 399 1258 c 0
 399 1297 397 1447 338 1447 c 0
 305 1447 299 1397 299 1356 c 0
 299 1341 305 1299 313 1245 c 0
 313 1241 276 1203 252 1203 c 0
 197 1203 194 1286 194 1340 c 0
 194 1347 194 1353 194 1359 c 0xe4
EndSplineSet
EndChar

StartChar: quotedbl
Encoding: 34 34 282
Width: 702
VWidth: 0
GlyphClass: 2
Flags: W
PickledData: "(dp1
S'org.pippin.gimp.org.kernagic'
p2
(dp3
S'lstem'
p4
I0
ssS'com.fontlab.hintData'
p5
(dp6
S'vhints'
p7
((dp8
S'position'
p9
I-40
sS'width'
p10
I91
s(dp11
g9
I146
sg10
I95
stp12
sS'hhints'
p13
((dp14
g9
I1193
sg10
I385
stp15
ss."
HStem: 1193 385<227.884 269.758 426.909 467.993>
VStem: 222 91<1232.31 1577.75> 408 95<1209.24 1575.8>
LayerCount: 2
Fore
SplineSet
437 1193 m 2
 424 1193 408 1435 408 1531 c 0
 408 1559 441 1578 469 1578 c 0
 488 1578 498 1556 503 1531 c 1
 500 1433 477 1193 444 1193 c 2
 437 1193 l 2
231 1193 m 2
 227 1193 222 1435 222 1531 c 0
 222 1559 245 1578 263 1578 c 0
 293 1578 308 1556 312 1525 c 0
 312 1521 313 1514 313 1511 c 0
 313 1407 278 1193 238 1193 c 2
 231 1193 l 2
EndSplineSet
EndChar

StartChar: quotedblbase
Encoding: 8222 8222 283
Width: 810
VWidth: 0
GlyphClass: 2
Flags: W
PickledData: "(dp1
S'org.pippin.gimp.org.kernagic'
p2
(dp3
S'lstem'
p4
I0
ssS'com.fontlab.hintData'
p5
(dp6
S'vhints'
p7
((dp8
S'position'
p9
I103
sS'width'
p10
I483
stp11
sS'hhints'
p12
((dp13
g9
I-370
sg10
I496
stp14
ss."
HStem: -370 496
VStem: 126 483
LayerCount: 2
Fore
SplineSet
588 126 m 0
 601 126 609 110 609 81 c 0
 609 -100 474 -370 417 -370 c 0
 402 -370 395 -354 395 -329 c 0
 395 -226 468 126 588 126 c 0
144 -371 m 1
 131 -368 126 -354 126 -333 c 0
 126 -285 198 116 295 116 c 0
 323 116 332 95 332 71 c 0
 332 -107 223 -371 144 -371 c 1
EndSplineSet
EndChar

StartChar: quotedblleft
Encoding: 8220 8220 284
Width: 792
VWidth: 0
GlyphClass: 2
Flags: W
PickledData: "(dp1
S'org.pippin.gimp.org.kernagic'
p2
(dp3
S'lstem'
p4
I0
ssS'com.fontlab.hintData'
p5
(dp6
S'vhints'
p7
((dp8
S'position'
p9
I69
sS'width'
p10
I463
stp11
sS'hhints'
p12
((dp13
g9
I1081
sg10
I496
stp14
ss."
HStem: 1081 496
VStem: 182 463
LayerCount: 2
Fore
SplineSet
203 1081 m 0
 190 1081 182 1097 182 1126 c 0
 182 1307 317 1577 374 1577 c 0
 389 1577 396 1561 396 1536 c 0
 396 1433 323 1081 203 1081 c 0
627 1578 m 1
 640 1575 645 1562 645 1541 c 0
 645 1493 573 1091 476 1091 c 0
 448 1091 438 1112 438 1136 c 0
 438 1314 548 1578 627 1578 c 1
EndSplineSet
EndChar

StartChar: quotedblright
Encoding: 8221 8221 285
Width: 810
VWidth: 0
GlyphClass: 2
Flags: W
PickledData: "(dp1
S'org.pippin.gimp.org.kernagic'
p2
(dp3
S'lstem'
p4
I0
ssS'com.fontlab.hintData'
p5
(dp6
S'vhints'
p7
((dp8
S'position'
p9
I69
sS'width'
p10
I473
stp11
sS'hhints'
p12
((dp13
g9
I1082
sg10
I496
stp14
ss."
HStem: 1082 496
VStem: 182 473
LayerCount: 2
Fore
SplineSet
634 1578 m 0
 647 1578 655 1562 655 1533 c 0
 655 1352 520 1082 463 1082 c 0
 448 1082 441 1098 441 1123 c 1
 501 1377 489 1578 634 1578 c 0
200 1081 m 1
 187 1084 182 1098 182 1119 c 0
 182 1167 254 1568 351 1568 c 0
 379 1568 388 1547 388 1523 c 0
 388 1345 279 1081 200 1081 c 1
EndSplineSet
EndChar

StartChar: quoteleft
Encoding: 8216 8216 286
Width: 630
VWidth: 0
GlyphClass: 2
Flags: W
PickledData: "(dp1
S'org.pippin.gimp.org.kernagic'
p2
(dp3
S'lstem'
p4
I0
ssS'com.fontlab.hintData'
p5
(dp6
S'vhints'
p7
((dp8
S'position'
p9
I70
sS'width'
p10
I214
stp11
sS'hhints'
p12
((dp13
g9
I1081
sg10
I496
stp14
ss."
HStem: 1081 496<341 347>
VStem: 206 214
LayerCount: 2
Fore
SplineSet
227 1081 m 0
 214 1081 206 1097 206 1126 c 0
 206 1307 341 1577 398 1577 c 0
 413 1577 420 1561 420 1536 c 0
 420 1433 347 1081 227 1081 c 0
EndSplineSet
EndChar

StartChar: quoteright
Encoding: 8217 8217 287
Width: 612
VWidth: 0
GlyphClass: 2
Flags: W
PickledData: "(dp1
S'org.pippin.gimp.org.kernagic'
p2
(dp3
S'lstem'
p4
I0
ssS'com.fontlab.hintData'
p5
(dp6
S'vhints'
p7
((dp8
S'position'
p9
I72
sS'width'
p10
I206
stp11
sS'hhints'
p12
((dp13
g9
I1081
sg10
I487
stp14
ss."
HStem: 1081 487<278 303>
VStem: 206 206
LayerCount: 2
Fore
SplineSet
224 1081 m 1
 211 1084 206 1098 206 1119 c 0
 206 1167 278 1568 375 1568 c 0
 403 1568 412 1547 412 1523 c 0
 412 1345 303 1081 224 1081 c 1
EndSplineSet
EndChar

StartChar: quotesinglbase
Encoding: 8218 8218 288
Width: 684
VWidth: 0
GlyphClass: 2
Flags: W
PickledData: "(dp1
S'org.pippin.gimp.org.kernagic'
p2
(dp3
S'lstem'
p4
I0
ssS'com.fontlab.hintData'
p5
(dp6
S'vhints'
p7
((dp8
S'position'
p9
I72
sS'width'
p10
I206
stp11
sS'hhints'
p12
((dp13
g9
I-333
sg10
I487
stp14
ss."
HStem: -333 487<326 351>
VStem: 254 206
LayerCount: 2
Fore
SplineSet
272 -333 m 1
 259 -330 254 -316 254 -295 c 0
 254 -247 326 154 423 154 c 0
 451 154 460 133 460 109 c 0
 460 -69 351 -333 272 -333 c 1
EndSplineSet
EndChar

StartChar: quotesingle
Encoding: 39 39 289
Width: 558
VWidth: 0
GlyphClass: 2
Flags: W
PickledData: "(dp1
S'org.pippin.gimp.org.kernagic'
p2
(dp3
S'lstem'
p4
I0
ssS'com.fontlab.hintData'
p5
(dp6
S'vhints'
p7
((dp8
S'position'
p9
I146
sS'width'
p10
I111
stp11
sS'hhints'
p12
((dp13
g9
I1193
sg10
I385
stp14
ss."
HStem: 1193 385<240.909 289.761>
VStem: 222 111<1232.31 1525>
LayerCount: 2
Fore
SplineSet
251 1193 m 2
 238 1193 222 1435 222 1531 c 0
 222 1559 255 1578 283 1578 c 0
 313 1578 328 1556 337 1531 c 1
 332 1525 l 1
 332 1521 333 1514 333 1511 c 0
 333 1407 298 1193 258 1193 c 2
 251 1193 l 2
EndSplineSet
EndChar

StartChar: r
Encoding: 114 114 290
Width: 720
VWidth: 0
GlyphClass: 2
Flags: W
PickledData: "(dp1
S'org.pippin.gimp.org.kernagic'
p2
(dp3
S'lstem'
p4
I0
ssS'com.fontlab.hintData'
p5
(dp6
S'vhints'
p7
((dp8
S'position'
p9
I63
sS'width'
p10
I104
s(dp11
g9
I98
sg10
I66
s(dp12
g9
I282
sg10
I102
stp13
sS'hhints'
p14
((dp15
g9
I1289
sg10
I76
stp16
ss."
HStem: -18 4G<224 307.364 483 559.5> 1289 76<286.004 367.812>
VStem: 182 104<831.08 1287.55> 217 66<68.2561 464> 401 102<876.383 1263.79>
LayerCount: 2
Fore
SplineSet
401 1098 m 0xe8
 401 1175 395 1287 293 1289 c 1
 291 1280 286 1269 286 1260 c 0
 286 1102 293 945 294 787 c 1
 366 824 401 1023 401 1098 c 0xe8
545 -35 m 0
 421 -35 359 573 310 686 c 1
 285 686 l 1
 285 615 283 540 283 464 c 0
 283 319 289 169 322 37 c 1
 299 -18 l 1
 242 -18 l 1
 215 12 l 1
 216 58 217 103 217 149 c 0xd8
 217 518 182 898 182 1268 c 0
 182 1314 193 1365 250 1365 c 0
 384 1365 503 1295 503 1149 c 2
 503 1005 l 2
 503 912 440 817 398 736 c 1
 444 533 470 296 557 107 c 0
 569 80 591 47 591 17 c 0
 591 -10 574 -35 545 -35 c 0
EndSplineSet
EndChar

StartChar: registered
Encoding: 174 174 294
Width: 1350
VWidth: 0
GlyphClass: 2
Flags: W
PickledData: "(dp1
S'org.pippin.gimp.org.kernagic'
p2
(dp3
S'lstem'
p4
I0
ssS'com.fontlab.hintData'
p5
(dp6
S'vhints'
p7
((dp8
S'position'
p9
I102
sS'width'
p10
I120
s(dp11
g9
I365
sg10
I114
s(dp12
g9
I390
sg10
I118
s(dp13
g9
I390
sg10
I97
s(dp14
g9
I424
sg10
I129
s(dp15
g9
I695
sg10
I122
s(dp16
g9
I1001
sg10
I113
stp17
sS'hhints'
p18
((dp19
g9
I-190
sg10
I106
s(dp20
g9
I1525
sg10
I110
s(dp21
g9
I1832
sg10
I106
stp22
ss."
HStem: -190 106<620 795.308> 1525 110<550.201 715.769> 1832 106<541.117 801.249>
VStem: 158 120<504.971 1362.54> 421 114<1132.74 1510.74> 446 118<338.38 889.501> 446 97<1004.03 1404.98> 480 129<148.406 676.777> 751 122<1110.78 1493.18> 1057 113<364.15 1254.39>
LayerCount: 2
Fore
SplineSet
692 -190 m 0xf0c0
 191 -190 158 358 158 757 c 2
 158 917 l 2
 158 1292 192 1938 688 1938 c 0
 813 1938 927 1851 998 1755 c 1
 1122 1679 1170 968 1170 807 c 0
 1170 470 1169 -190 692 -190 c 0xf0c0
930 1655 m 0
 900 1716 772 1832 703 1832 c 0
 301 1832 278 1241 278 954 c 0
 278 747 280 179 418 27 c 0
 454 -13 500 -31 541 -64 c 1
 601 -76 l 1
 620 -84 l 1
 1037 -79 1056 396 1056 706 c 0
 1056 759 1057 812 1057 866 c 0
 1057 1136 1047 1416 930 1655 c 0
951 199 m 0
 951 175 917 143 894 143 c 0
 772 143 670 797 624 914 c 1
 569 891 l 1
 567 859 564 828 564 796 c 0xf4c0
 564 600 609 406 609 210 c 0
 609 174 593 143 553 143 c 0
 517 143 480 169 480 208 c 0xf1c0
 480 224 481 240 481 256 c 0
 481 327 479 399 472 470 c 0
 465 539 446 606 446 676 c 2xf4c0
 446 1075 l 2xf2c0
 446 1202 421 1327 421 1454 c 0xf8c0
 421 1603 503 1635 637 1635 c 0
 844 1635 873 1433 873 1270 c 0
 873 1023 743 1007 732 969 c 1
 735 888 880 425 914 314 c 1
 921 314 l 1
 921 271 951 239 951 199 c 0
643 1525 m 0
 553 1525 535 1475 535 1407 c 0xf8c0
 535 1364 543 1312 543 1263 c 0xf2c0
 543 1175 544 1086 566 1000 c 1
 687 1049 751 1142 751 1272 c 2
 751 1280 l 2
 751 1359 749 1525 643 1525 c 0
EndSplineSet
EndChar

StartChar: ring
Encoding: 730 730 295
Width: 882
VWidth: 0
GlyphClass: 2
Flags: W
PickledData: "(dp1
S'org.pippin.gimp.org.kernagic'
p2
(dp3
S'lstem'
p4
I0
ssS'com.fontlab.hintData'
p5
(dp6
S'vhints'
p7
((dp8
S'position'
p9
I80
sS'width'
p10
I76
s(dp11
g9
I538
sg10
I68
stp12
sS'hhints'
p13
((dp14
g9
I102
sg10
I77
s(dp15
g9
I565
sg10
I69
stp16
ss."
HStem: 102 77<318.189 542.696> 565 69<320.485 552.111>
VStem: 174 76<245.049 490.722> 632 68<277.643 490.042>
LayerCount: 2
Fore
SplineSet
174 395 m 0
 174 531 265 634 406 634 c 0
 643 634 700 485 700 397 c 0
 700 313 651 102 406 102 c 0
 215 102 174 281 174 395 c 0
416 565 m 0
 286 565 250 437 250 329 c 0
 250 271 324 179 414 179 c 0
 596 179 632 332 632 393 c 0
 632 456 590 565 416 565 c 0
EndSplineSet
EndChar

StartChar: s
Encoding: 115 115 296
Width: 720
VWidth: 0
GlyphClass: 2
Flags: W
PickledData: "(dp1
S'org.pippin.gimp.org.kernagic'
p2
(dp3
S'lstem'
p4
I0
ssS'com.fontlab.hintData'
p5
(dp6
S'vhints'
p7
((dp8
S'position'
p9
I50
sS'width'
p10
I100
s(dp11
g9
I295
sg10
I100
stp12
sS'hhints'
p13
((dp14
g9
I-23
sg10
I94
s(dp15
g9
I1261
sg10
I120
stp16
ss."
HStem: -23 94<282 372.991> 1261 120<323.681 465.031>
VStem: 191 100<886.855 1239.35> 436 100<147.571 556.658>
LayerCount: 2
Fore
SplineSet
291 1075 m 0
 291 811 536 689 536 342 c 0
 536 191 466 -19 282 -23 c 1
 282 -28 l 1
 238 -22 196 3 190 51 c 1
 213 86 l 1
 241 82 269 71 298 71 c 0
 409 71 436 286 436 367 c 0
 436 631 191 790 191 1086 c 0
 191 1194 240 1381 376 1381 c 0
 420 1381 477 1349 477 1300 c 0
 477 1273 450 1261 427 1261 c 0
 413 1261 396 1266 384 1273 c 1
 316 1271 291 1127 291 1075 c 0
EndSplineSet
EndChar

StartChar: section
Encoding: 167 167 302
Width: 720
VWidth: 0
GlyphClass: 2
Flags: W
PickledData: "(dp1
S'org.pippin.gimp.org.kernagic'
p2
(dp3
S'lstem'
p4
I0
ssS'com.fontlab.hintData'
p5
(dp6
S'vhints'
p7
((dp8
S'position'
p9
I80
sS'width'
p10
I100
s(dp11
g9
I113
sg10
I82
s(dp12
g9
I325
sg10
I100
s(dp13
g9
I340
sg10
I100
stp14
sS'hhints'
p15
((dp16
g9
I1
sg10
I120
stp17
ss."
HStem: 1 120<244.969 392.011>
VStem: 174 100<647.631 923.368> 207 82<1120.98 1340.9> 419 100<135.063 400.062> 434 100<554.16 803.38>
LayerCount: 2
Fore
SplineSet
434 649 m 0xc8
 434 754 372 840 318 925 c 1
 290 890 274 840 274 795 c 0
 274 701 331 622 385 549 c 1
 413 573 434 612 434 649 c 0xc8
534 634 m 0
 534 566 502 502 445 465 c 1
 487 399 519 326 519 246 c 0
 519 139 457 1 334 1 c 0
 290 1 233 33 233 82 c 0
 233 109 260 121 283 121 c 0
 297 121 314 116 326 109 c 1
 388 110 419 206 419 257 c 0
 419 457 174 550 174 820 c 0xd0
 174 895 204 972 265 1018 c 1
 226 1099 207 1186 207 1275 c 0
 207 1385 262 1443 374 1443 c 0
 401 1443 475 1430 475 1392 c 0
 475 1308 289 1405 289 1277 c 0xa0
 289 1046 534 943 534 634 c 0
EndSplineSet
EndChar

StartChar: semicolon
Encoding: 59 59 303
Width: 630
VWidth: 0
GlyphClass: 2
Flags: W
PickledData: "(dp1
S'org.pippin.gimp.org.kernagic'
p2
(dp3
S'lstem'
p4
I0
ssS'com.fontlab.hintData'
p5
(dp6
S'vhints'
p7
((dp8
S'position'
p9
I179
sS'width'
p10
I149
stp11
sS'hhints'
p12
((dp13
g9
I952
sg10
I152
stp14
ss."
HStem: -28 21G<220 273> 952 152<282.913 414.769>
VStem: 274 149<959.168 1095.59>
LayerCount: 2
Fore
SplineSet
339 359 m 0
 389 359 410 315 410 251 c 0
 410 159 318 -28 228 -28 c 0
 212 -28 198 -18 198 -1 c 0
 198 11 204 28 223 44 c 1
 287 138 261 359 339 359 c 0
274 1025 m 0
 274 1065 309 1104 350 1104 c 0
 389 1104 423 1065 423 1027 c 0
 423 980 387 952 342 952 c 0
 304 952 274 988 274 1025 c 0
EndSplineSet
EndChar

StartChar: seven
Encoding: 55 55 304
Width: 684
VWidth: 0
GlyphClass: 2
Flags: W
PickledData: "(dp1
S'org.pippin.gimp.org.kernagic'
p2
(dp3
S'lstem'
p4
I0
ssS'com.fontlab.hintData'
p5
(dp6
S'vhints'
p7
((dp8
S'position'
p9
I75
sS'width'
p10
I119
stp11
sS'hhints'
p12
((dp13
g9
I1498
sg10
I84
stp14
ss."
HStem: -11 21G<195.714 243> 1498 84<175.584 400>
VStem: 179 119<24 118.765>
LayerCount: 2
Fore
SplineSet
297 119 m 1
 298 114 298 108 298 101 c 0
 298 55 268 -11 218 -11 c 1
 179 24 l 1
 179 80 202 129 216 182 c 0
 323 587 391 1070 400 1494 c 1
 384 1496 368 1498 352 1498 c 0
 309 1498 265 1493 222 1489 c 1
 200 1499 174 1522 174 1549 c 0
 174 1580 314 1582 362 1582 c 2
 400 1582 l 2
 446 1582 490 1578 504 1523 c 1
 432 1169 412 448 297 119 c 1
EndSplineSet
EndChar

StartChar: six
Encoding: 54 54 305
Width: 774
VWidth: 0
GlyphClass: 2
Flags: W
PickledData: "(dp1
S'org.pippin.gimp.org.kernagic'
p2
(dp3
S'lstem'
p4
I0
ssS'com.fontlab.hintData'
p5
(dp6
S'vhints'
p7
((dp8
S'position'
p9
I95
sS'width'
p10
I100
s(dp11
g9
I378
sg10
I96
stp12
sS'hhints'
p13
((dp14
g9
I-14
sg10
I87
s(dp15
g9
I1475
sg10
I111
stp16
ss."
HStem: -14 87<373.439 465.75> 1475 111<366.162 454.896>
VStem: 193 101<341.595 880.633 949 1318.58> 477 96<74.2303 658.876>
LayerCount: 2
Fore
SplineSet
194 880 m 0
 194 1030 193 1586 414 1586 c 0
 434 1586 462 1567 462 1545 c 0
 462 1505 417 1482 384 1475 c 1
 327 1419 299 1044 295 949 c 1
 306 951 317 952 327 952 c 0
 563 952 573 396 573 236 c 0
 573 114 563 -14 408 -14 c 0
 211 -14 193 414 193 706 c 0
 193 774 194 834 194 880 c 0
424 73 m 0
 476 73 477 177 477 212 c 0
 477 320 457 860 339 882 c 1
 297 853 294 814 294 770 c 0
 294 635 299 73 424 73 c 0
EndSplineSet
EndChar

StartChar: slash
Encoding: 47 47 306
Width: 774
VWidth: 0
GlyphClass: 2
Flags: W
PickledData: "(dp1
S'org.pippin.gimp.org.kernagic'
p2
(dp3
S'lstem'
p4
I0
ssS'com.fontlab.hintData'
p5
(dp6
S'vhints'
p7
((dp8
S'position'
p9
I423
sS'width'
p10
I57
stp11
sS'hhints'
p12
((dp13
g9
I1547
sg10
I20
stp14
ss."
HStem: -54 21G<184 194> 1547 20G<573.5 586>
VStem: 558 57<1460.54 1565.57>
LayerCount: 2
Fore
SplineSet
558 1553 m 0
 561 1562 569 1567 578 1567 c 0
 594 1567 615 1552 615 1520 c 0
 615 1515 614 1509 613 1503 c 0
 578 1324 308 181 210 -31 c 1
 207 -46 198 -54 190 -54 c 0
 178 -54 166 -38 166 -9 c 0
 166 2 168 15 172 30 c 0
 209 153 482 1303 558 1553 c 0
EndSplineSet
EndChar

StartChar: sterling
Encoding: 163 163 308
Width: 954
VWidth: 0
GlyphClass: 2
Flags: W
PickledData: "(dp1
S'org.pippin.gimp.org.kernagic'
p2
(dp3
S'lstem'
p4
I0
ssS'com.fontlab.hintData'
p5
(dp6
S'vhints'
p7
((dp8
S'position'
p9
I78
sS'width'
p10
I99
s(dp11
g9
I227
sg10
I97
stp12
sS'hhints'
p13
((dp14
g9
I2
sg10
I21
s(dp15
g9
I27
sg10
I98
s(dp16
g9
I894
sg10
I72
s(dp17
g9
I1359
sg10
I21
s(dp18
g9
I1535
sg10
I97
stp19
ss."
HStem: 27 98<374.032 766.59> 894 72<118.197 195 309 544.925> 1359 21G<460.5 529.5> 1359 21G<460.5 529.5> 1535 97<312.083 417.654>
VStem: 170 99<980.036 1491.81> 319 97<178.522 648.799>
LayerCount: 2
Fore
SplineSet
744 146 m 0xee
 775 146 799 123 799 96 c 0
 799 59 750 27 651 27 c 0
 542 27 474 57 370 68 c 1
 370 71 l 1
 333 70 221 21 186 2 c 1
 186 6 l 1
 161 8 128 23 128 53 c 0
 128 123 215 125 257 158 c 0
 304 194 319 325 319 382 c 0
 319 559 253 725 212 894 c 1
 132 894 118 906 118 918 c 2
 118 924 l 2
 118 943 121 966 195 966 c 1
 192 1057 170 1147 170 1238 c 0
 170 1329 189 1632 355 1632 c 2
 380 1632 l 2
 460 1632 547 1474 547 1403 c 0
 547 1380 544 1359 515 1359 c 0
 406 1359 455 1535 361 1535 c 0
 294 1535 269 1340 269 1270 c 2
 269 1243 l 2
 269 1154 270 1062 288 976 c 1
 357 976 424 979 493 979 c 0
 519 979 545 957 545 928 c 0
 545 909 452 910 309 900 c 1
 340 728 416 554 416 378 c 0
 416 305 390 238 369 169 c 1
 459 162 544 125 634 125 c 0
 673 125 707 146 744 146 c 0xee
EndSplineSet
EndChar

StartChar: t
Encoding: 116 116 309
Width: 702
VWidth: 0
GlyphClass: 2
Flags: W
PickledData: "(dp1
S'org.pippin.gimp.org.kernagic'
p2
(dp3
S'lstem'
p4
I145
ssS'com.fontlab.hintData'
p5
(dp6
S'vhints'
p7
((dp8
S'position'
p9
I197
sS'width'
p10
I100
s(dp11
g9
I253
sg10
I112
stp12
sS'hhints'
p13
((dp14
g9
I1237
sg10
I104
s(dp15
g9
I1255
sg10
I105
stp16
ss."
HStem: 1237 104<388.453 547.562> 1255 105<113.447 282.646>
VStem: 283 100<820.949 1250.72> 339 112<33 503.359>
LayerCount: 2
Fore
SplineSet
339 190 m 0x90
 339 213 341 237 342 260 c 1
 330 299 285 1154 283 1255 c 1
 241 1256 109 1255 109 1316 c 0
 109 1344 151 1360 174 1360 c 0x60
 267 1360 359 1341 452 1341 c 0
 462 1341 473 1342 485 1342 c 0
 517 1342 549 1336 549 1293 c 0
 549 1257 513 1237 481 1237 c 0
 449 1237 418 1247 387 1251 c 1
 386 1245 383 1237 383 1230 c 0xa0
 383 841 451 456 451 67 c 0
 451 34 414 6 381 6 c 1
 343 33 l 1
 343 85 339 138 339 190 c 0x90
EndSplineSet
EndChar

StartChar: thorn
Encoding: 254 254 313
Width: 756
VWidth: 0
GlyphClass: 2
Flags: W
PickledData: "(dp1
S'org.pippin.gimp.org.kernagic'
p2
(dp3
S'lstem'
p4
I0
ssS'com.fontlab.hintData'
p5
(dp6
S'vhints'
p7
((dp8
S'position'
p9
I64
sS'width'
p10
I117
s(dp11
g9
I86
sg10
I117
s(dp12
g9
I337
sg10
I106
stp13
ss."
HStem: -11 21G<237 280.5> 1528 20G<213.5 264>
VStem: 184 117<723.339 1129 1223.84 1542.82> 206 117<-7.20312 465.766> 457 106<678.276 1025.73>
LayerCount: 2
Fore
SplineSet
457 828 m 0xc8
 457 998 433 1027 304 1129 c 1
 298 1129 l 1
 298 943 302 757 302 571 c 1
 396 635 457 710 457 828 c 0xc8
184 1178 m 1xe8
 182 1487 l 2
 182 1522 194 1548 233 1548 c 0
 295 1548 308 1463 308 1380 c 0
 308 1318 301 1258 301 1233 c 1xe8
 482 1207 563 1008 563 845 c 0
 563 670 465 540 307 472 c 1
 308 339 323 207 323 74 c 0
 323 29 306 -11 255 -11 c 0
 219 -11 206 28 206 58 c 0xd8
 206 432 184 805 184 1178 c 1xe8
EndSplineSet
EndChar

StartChar: three
Encoding: 51 51 314
Width: 774
VWidth: 0
GlyphClass: 2
Flags: W
PickledData: "(dp1
S'org.pippin.gimp.org.kernagic'
p2
(dp3
S'lstem'
p4
I0
ssS'com.fontlab.hintData'
p5
(dp6
S'vhints'
p7
((dp8
S'position'
p9
I290
sS'width'
p10
I102
s(dp11
g9
I368
sg10
I103
stp12
sS'hhints'
p13
((dp14
g9
I-20
sg10
I84
s(dp15
g9
I1360
sg10
I21
s(dp16
g9
I1477
sg10
I96
stp17
ss."
HStem: -20 84<284.565 448.444> 1360 21G<155 212.5> 1360 21G<155 212.5> 1477 96<249.05 361.64>
VStem: 413 102<1020.98 1419.96> 491 103<100.329 698.896>
LayerCount: 2
Fore
SplineSet
515 1124 m 0xd8
 515 1040 466 993 423 927 c 1
 561 844 594 509 594 361 c 0
 594 213 581 -20 382 -20 c 0
 325 -20 231 5 231 76 c 0
 231 101 233 110 265 110 c 0
 307 110 297 64 366 64 c 0
 481 64 491 207 491 294 c 0xd4
 491 482 489 694 366 849 c 1
 360 847 353 847 345 847 c 0
 315 847 282 859 282 889 c 0
 283 950 413 1016 413 1150 c 0
 413 1216 399 1477 306 1477 c 0
 230 1477 254 1360 171 1360 c 0
 139 1360 115 1387 110 1416 c 1
 144 1501 213 1573 310 1573 c 0
 481 1573 515 1292 515 1124 c 0xd8
EndSplineSet
EndChar

StartChar: tilde
Encoding: 732 732 316
Width: 828
VWidth: 0
GlyphClass: 2
Flags: W
PickledData: "(dp1
S'org.pippin.gimp.org.kernagic'
p2
(dp3
S'lstem'
p4
I0
ssS'com.fontlab.hintData'
p5
(dp6
S'vhints'
p7
((dp8
S'position'
p9
I99
sS'width'
p10
I477
stp11
sS'hhints'
p12
((dp13
g9
I1038
sg10
I103
s(dp14
g9
I1125
sg10
I99
stp15
ss."
HStem: 1038 103<407.897 539.589> 1125 99<276.794 380.75>
VStem: 174 477<1099 1139>
LayerCount: 2
Fore
SplineSet
584 1223 m 0xa0
 631 1223 651 1194 651 1170 c 0
 651 1099 590 1038 519 1038 c 0xa0
 360 1038 382 1125 301 1125 c 1
 253 1107 302 1065 248 1046 c 1
 211 1046 174 1063 174 1105 c 0
 174 1167 227 1224 322 1224 c 0x60
 371 1224 453 1141 495 1141 c 0
 554 1141 524 1223 584 1223 c 0xa0
EndSplineSet
EndChar

StartChar: trademark
Encoding: 8482 8482 317
Width: 1098
VWidth: 0
GlyphClass: 2
Flags: W
PickledData: "(dp1
S'org.pippin.gimp.org.kernagic'
p2
(dp3
S'lstem'
p4
I0
ssS'com.fontlab.hintData'
p5
(dp6
S'vhints'
p7
((dp8
S'position'
p9
I218
sS'width'
p10
I106
s(dp11
g9
I457
sg10
I125
s(dp12
g9
I832
sg10
I112
s(dp13
g9
I958
sg10
I1
stp14
sS'hhints'
p15
((dp16
g9
I1475
sg10
I120
s(dp17
g9
I1475
sg10
I99
stp18
ss."
HStem: 1475 120<304.859 424> 1475 99<44 196.141>
VStem: 195 106<658.456 718.667 721.531 1482.69> 434 125<630.754 1253.11> 809 112<791.719 1139> 935 1<786 793>
LayerCount: 2
Fore
SplineSet
205 787 m 2xbc
 205 924 195 1061 195 1198 c 0
 195 1266 201 1332 201 1400 c 0
 201 1428 200 1456 197 1484 c 1
 179 1482 140 1475 103 1475 c 0
 61 1475 21 1484 21 1520 c 2
 21 1533 l 1
 44 1574 l 1x7c
 149 1583 254 1595 359 1595 c 0
 381 1595 402 1591 424 1591 c 1
 463 1552 l 1
 463 1547 l 1
 466 1574 511 1616 538 1616 c 0
 565 1616 583 1594 599 1575 c 1
 596 1565 595 1554 595 1542 c 0
 595 1433 681 1229 694 1129 c 1
 741 1259 777 1393 807 1528 c 0
 818 1576 823 1639 887 1639 c 0
 916 1639 943 1617 943 1587 c 0
 943 1442 921 1298 921 1153 c 0
 921 1031 935 908 935 786 c 1
 936 793 l 1
 936 785 l 2
 936 728 934 625 859 625 c 0
 830 625 805 642 805 673 c 0
 805 752 817 829 817 908 c 0
 817 985 811 1062 809 1139 c 1
 797 1102 778 1077 778 1036 c 1
 773 1027 l 1
 769 981 747 845 685 845 c 0
 597 845 572 1174 551 1254 c 1
 547 1168 547 1082 547 996 c 0
 547 928 559 861 559 793 c 0
 559 742 557 621 482 621 c 0
 443 621 434 658 434 690 c 0
 434 764 447 836 447 910 c 0
 447 1002 445 1095 445 1189 c 0
 445 1303 448 1417 460 1529 c 1
 450 1486 400 1485 364 1485 c 1
 306 1487 l 1
 302 1448 301 1408 301 1369 c 0
 301 1206 314 1044 314 881 c 0
 314 827 313 773 309 719 c 1
 311 712 317 698 317 691 c 0
 317 654 278 637 248 629 c 1
 194 657 l 1
 204 688 205 723 205 757 c 2
 205 787 l 2xbc
EndSplineSet
EndChar

StartChar: two
Encoding: 50 50 318
Width: 774
VWidth: 0
GlyphClass: 2
Flags: W
PickledData: "(dp1
S'org.pippin.gimp.org.kernagic'
p2
(dp3
S'lstem'
p4
I0
ssS'com.fontlab.hintData'
p5
(dp6
S'vhints'
p7
((dp8
S'position'
p9
I382
sS'width'
p10
I98
stp11
sS'hhints'
p12
((dp13
g9
I4
sg10
I103
stp14
ss."
HStem: -15 21G<207 277> 4 103<283.5 561.531>
VStem: 494 98<854.226 1465.89>
LayerCount: 2
Fore
SplineSet
279 86 m 1xa0
 356 99 443 107 521 107 c 1
 546 89 564 70 564 49 c 0
 564 35 556 20 537 4 c 1x60
 433 4 329 -15 225 -15 c 0
 189 -15 150 7 150 47 c 2
 150 55 l 1
 208 125 226 218 263 299 c 0
 405 614 494 886 494 1236 c 0
 494 1305 490 1492 396 1500 c 1
 340 1470 366 1327 290 1327 c 0
 252 1327 240 1357 240 1390 c 0
 240 1465 280 1586 372 1586 c 1
 372 1587 l 1
 591 1587 592 1357 592 1201 c 0
 592 772 386 409 279 86 c 1xa0
EndSplineSet
EndChar

StartChar: u
Encoding: 117 117 319
Width: 882
VWidth: 0
GlyphClass: 2
Flags: W
PickledData: "(dp1
S'org.pippin.gimp.org.kernagic'
p2
(dp3
S'lstem'
p4
I0
ssS'com.fontlab.hintData'
p5
(dp6
S'vhints'
p7
((dp8
S'position'
p9
I68
sS'width'
p10
I92
s(dp11
g9
I465
sg10
I118
stp12
sS'hhints'
p13
((dp14
g9
I-31
sg10
I122
s(dp15
g9
I1369
sg10
I20
stp16
ss."
HStem: -31 122<347.062 495.636>
VStem: 196 92<247.796 1342.92> 593 118<915.672 1386.63>
LayerCount: 2
Fore
SplineSet
426 -31 m 0
 221 -31 196 257 196 473 c 1
 191 693 191 821 191 1013 c 0
 191 1114 185 1203 182 1306 c 1
 196 1337 211 1349 226 1349 c 0
 259 1349 288 1287 288 1232 c 2
 288 675 l 2
 288 530 317 386 317 241 c 0
 317 177 332 91 447 91 c 0
 584 91 593 862 593 1192 c 2
 593 1307 l 2
 593 1319 592 1330 592 1341 c 0
 592 1369 599 1389 648 1389 c 0
 708 1389 711 1336 711 1290 c 0
 711 1221 697 1151 697 1084 c 0
 697 1027 688 970 688 913 c 0
 688 901 690 890 690 878 c 0
 690 676 691 -31 426 -31 c 0
EndSplineSet
EndChar

StartChar: underscore
Encoding: 95 95 327
Width: 1098
VWidth: 0
GlyphClass: 2
Flags: W
PickledData: "(dp1
S'org.pippin.gimp.org.kernagic'
p2
(dp3
S'lstem'
p4
I0
ssS'com.fontlab.hintData'
p5
(dp6
S'hhints'
p7
((dp8
S'position'
p9
I-94
sS'width'
p10
I94
stp11
ss."
HStem: -94 94<254.404 1107.11>
LayerCount: 2
Fore
SplineSet
1060 2 m 0
 1095 2 1110 -16 1110 -36 c 0
 1110 -57 1088 -82 1054 -82 c 0
 1024 -82 993 -82 965 -84 c 1
 754 -84 544 -94 333 -94 c 0
 289 -94 254 -71 254 -50 c 0
 254 -22 276 0 304 0 c 2
 963 0 l 2
 995 0 1028 2 1060 2 c 0
EndSplineSet
EndChar

StartChar: uni00AD
Encoding: 173 173 328
Width: 792
VWidth: 0
GlyphClass: 2
Flags: W
PickledData: "(dp1
S'org.pippin.gimp.org.kernagic'
p2
(dp3
S'lstem'
p4
I0
ssS'com.fontlab.hintData'
p5
(dp6
S'vhints'
p7
((dp8
S'position'
p9
I102
sS'width'
p10
I442
stp11
sS'hhints'
p12
((dp13
g9
I656
sg10
I142
stp14
ss."
HStem: 656 142<213.467 576.522>
VStem: 174 442<697.994 754.885>
LayerCount: 2
Fore
SplineSet
616 739 m 0
 616 666 299 656 241 656 c 0
 208 656 174 680 174 715 c 0
 174 787 491 798 548 798 c 0
 581 798 616 775 616 739 c 0
EndSplineSet
EndChar

StartChar: uni00B5
Encoding: 181 181 331
AltUni2: 0003bc.ffffffff.0
Width: 882
VWidth: 0
GlyphClass: 2
Flags: W
PickledData: "(dp1
S'org.pippin.gimp.org.kernagic'
p2
(dp3
S'lstem'
p4
I0
ssS'com.fontlab.hintData'
p5
(dp6
S'vhints'
p7
((dp8
S'position'
p9
I68
sS'width'
p10
I92
s(dp11
g9
I75
sg10
I111
s(dp12
g9
I439
sg10
I123
s(dp13
g9
I465
sg10
I118
stp14
sS'hhints'
p15
((dp16
g9
I-31
sg10
I62
s(dp17
g9
I1335
sg10
I20
s(dp18
g9
I1369
sg10
I20
stp19
ss."
HStem: -31 62<366.307 481.341> 1335 20G<195.02 239>
VStem: 196 92<247.796 1301.64> 203 111<-245.401 11 70.7803 692.406> 567 123<417.506 1014.43> 593 118<915.672 1386.63>
LayerCount: 2
Fore
SplineSet
648 1389 m 0xc4
 708 1389 711 1336 711 1290 c 0xc4
 711 1221 697 1151 697 1084 c 0
 697 1027 688 970 688 913 c 0
 688 901 690 890 690 878 c 0
 690 874 690 869 689 865 c 0
 647 665 721 -31 426 -31 c 0
 378 -31 340 -15 310 11 c 1
 312 -48 314 -107 314 -166 c 0
 314 -211 300 -248 249 -248 c 0
 221 -248 203 -230 203 -202 c 2
 203 99 l 2xd8
 203 215 196 356 196 475 c 2
 196 484 l 2
 196 697 207 824 207 1013 c 0
 207 1114 202 1213 182 1306 c 1
 204 1355 l 1
 274 1355 288 1289 288 1232 c 2
 288 675 l 2
 288 530 317 386 317 241 c 0
 317 152 332 31 447 31 c 0
 539 31 567 480 567 559 c 1xe8
 581 808 593 1057 593 1307 c 0
 593 1319 592 1330 592 1341 c 0
 592 1369 599 1389 648 1389 c 0xc4
EndSplineSet
EndChar

StartChar: uni0237
Encoding: 567 567 373
Width: 792
VWidth: 0
GlyphClass: 2
Flags: W
PickledData: "(dp1
S'org.pippin.gimp.org.kernagic'
p2
(dp3
S'lstem'
p4
I0
ssS'com.fontlab.hintData'
p5
(dp6
S'vhints'
p7
((dp8
S'position'
p9
I222
sS'width'
p10
I109
s(dp11
g9
I240
sg10
I112
stp12
sS'hhints'
p13
((dp14
g9
I1205
sg10
I154
s(dp15
g9
I1242
sg10
I117
stp16
ss."
HStem: 1205 154<464.64 537.22> 1242 117<200.237 348>
VStem: 353 109<791.681 1225> 371 112<-18.6931 628.319>
LayerCount: 2
Fore
SplineSet
483 158 m 1x90
 407 33 495 -254 237 -254 c 2
 213 -254 l 1
 152 -193 l 1
 150 -174 l 1
 150 -133 277 -64 312 -46 c 1
 358 8 371 117 371 187 c 0x90
 371 536 353 884 353 1233 c 1
 348 1242 l 1
 306 1247 191 1252 191 1312 c 0
 191 1342 234 1359 258 1359 c 0x60
 318 1359 623 1327 623 1253 c 0
 623 1222 595 1205 567 1205 c 0
 532 1205 498 1219 463 1225 c 1
 462 1208 l 1xa0
 462 933 483 657 483 382 c 2
 483 158 l 1x90
EndSplineSet
EndChar

StartChar: uni0307
Encoding: 775 775 374
Width: 612
VWidth: 0
GlyphClass: 2
Flags: W
PickledData: "(dp1
S'org.pippin.gimp.org.kernagic'
p2
(dp3
S'lstem'
p4
I0
ssS'com.fontlab.hintData'
p5
(dp6
S'vhints'
p7
((dp8
S'position'
p9
I120
sS'width'
p10
I150
stp11
sS'hhints'
p12
((dp13
g9
I1390
sg10
I152
stp14
ss."
HStem: 1390 152<262.707 395.769>
VStem: 254 150<1397.17 1533.64>
LayerCount: 2
Fore
SplineSet
254 1463 m 0
 254 1504 290 1542 331 1542 c 0
 370 1542 404 1503 404 1465 c 0
 404 1418 368 1390 323 1390 c 0
 285 1390 254 1426 254 1463 c 0
EndSplineSet
EndChar

StartChar: uni030F
Encoding: 783 783 375
Width: 882
VWidth: 0
GlyphClass: 2
Flags: W
PickledData: "(dp1
S'org.pippin.gimp.org.kernagic'
p2
(dp3
S'lstem'
p4
I0
ssS'com.fontlab.hintData'
p5
(dp6
S'vhints'
p7
((dp8
S'position'
p9
I198
sS'width'
p10
I592
stp11
sS'hhints'
p12
((dp13
g9
I-8
sg10
I398
stp14
ss."
HStem: -8 398
VStem: 150 592
LayerCount: 2
Fore
SplineSet
484 8 m 1
 421 67 191 279 169 304 c 1
 150 338 l 1
 157 364 181 390 210 390 c 0
 246 390 504 76 504 32 c 0
 504 19 498 8 484 8 c 1
468 331 m 0
 468 347 497 360 520 360 c 0
 548 360 738 66 742 13 c 1
 729 -8 l 1
 682 37 468 254 468 331 c 0
EndSplineSet
EndChar

StartChar: uni0311
Encoding: 785 785 376
Width: 738
VWidth: 0
GlyphClass: 2
Flags: W
PickledData: "(dp1
S'org.pippin.gimp.org.kernagic'
p2
(dp3
S'lstem'
p4
I0
ssS'com.fontlab.hintData'
p5
(dp6
S'vhints'
p7
((dp8
S'position'
p9
I350
sS'width'
p10
I112
stp11
sS'hhints'
p12
((dp13
g9
I1047
sg10
I95
stp14
ss."
HStem: 1047 95<306.932 412.325>
VStem: 427 112<877.045 960.662>
LayerCount: 2
Fore
SplineSet
530 961 m 1
 532 954 539 934 539 928 c 0
 539 899 513 876 485 876 c 0
 434 876 427 910 427 953 c 0
 427 975 407 1047 380 1047 c 2
 337 1047 l 1
 281 1008 299 867 228 867 c 1
 190 899 l 1
 190 1010 229 1142 363 1142 c 0
 472 1142 498 1064 535 978 c 1
 532 973 532 967 530 961 c 1
EndSplineSet
EndChar

StartChar: uni0326
Encoding: 806 806 377
Width: 684
VWidth: 0
GlyphClass: 2
Flags: W
PickledData: "(dp1
S'org.pippin.gimp.org.kernagic'
p2
(dp3
S'lstem'
p4
I0
ssS'com.fontlab.hintData'
p5
(dp6
S'vhints'
p7
((dp8
S'position'
p9
I117
sS'width'
p10
I241
stp11
sS'hhints'
p12
((dp13
g9
I-550
sg10
I376
stp14
ss."
HStem: -550 376<320 322>
VStem: 254 241
LayerCount: 2
Fore
SplineSet
288 -550 m 0
 264 -550 254 -544 254 -527 c 1
 254 -527 320 -174 439 -174 c 1
 453 -185 495 -183 495 -215 c 0
 495 -317 322 -550 288 -550 c 0
EndSplineSet
EndChar

StartChar: v
Encoding: 118 118 396
Width: 864
VWidth: 0
GlyphClass: 2
Flags: W
PickledData: "(dp1
S'org.pippin.gimp.org.kernagic'
p2
(dp3
S'lstem'
p4
I0
ssS'com.fontlab.hintData'
p5
(dp6
S'vhints'
p7
((dp8
S'position'
p9
I531
sS'width'
p10
I93
stp11
sS'hhints'
p12
((dp13
g9
I1376
sg10
I20
stp14
ss."
HStem: -24 21G<385.484 498> 1346 20G<171.5 252.5> 1346 20G<171.5 252.5>
VStem: 637 93<1129.18 1395.94>
LayerCount: 2
Fore
SplineSet
449 247 m 1xd0
 526 630 574 1019 637 1396 c 1
 683 1396 l 2
 706 1396 730 1377 730 1351 c 0
 730 1170 650 998 621 821 c 0
 594 658 586 -24 410 -24 c 1
 372 7 l 1
 372 377 282 754 190 1110 c 0
 177 1161 134 1274 134 1319 c 0
 134 1345 159 1366 184 1366 c 0
 321 1366 426 404 449 247 c 1xd0
EndSplineSet
EndChar

StartChar: w
Encoding: 119 119 397
Width: 990
VWidth: 0
GlyphClass: 2
Flags: W
PickledData: "(dp1
S'org.pippin.gimp.org.kernagic'
p2
(dp3
S'lstem'
p4
I0
ssS'com.typemytype.robofont.layerData'
p5
(dp6
sS'com.fontlab.hintData'
p7
(dp8
S'vhints'
p9
((dp10
S'position'
p11
I31
sS'width'
p12
I125
s(dp13
g11
I334
sg12
I116
s(dp14
g11
I515
sg12
I138
s(dp15
g11
I610
sg12
I106
s(dp16
g11
I641
sg12
I103
stp17
sS'hhints'
p18
((dp19
g11
I1357
sg12
I20
stp20
ss."
HStem: -43 45G<267 394 655 710.5> 1357 20G<769.5 806.5> 1357 20G<769.5 806.5>
VStem: 126 125<995.393 1323.99> 429 116<962.833 1186> 610 138<-14.3979 296.487> 705 106<538.901 1287.17> 736 108<846.191 1376.48>
LayerCount: 2
Fore
SplineSet
748 139 m 0xdc
 748 128 748 116 748 102 c 0
 748 48 742 -19 679 -19 c 0
 631 -19 610 19 610 57 c 0xdc
 610 340 548 648 504 942 c 1
 500 903 497 865 497 826 c 0
 497 700 448 -43 340 -43 c 0
 194 -43 193 1142 126 1293 c 1
 137 1316 160 1329 185 1329 c 0
 245 1329 251 1238 251 1195 c 0
 251 888 331 589 342 283 c 1
 385 573 429 884 429 1186 c 1
 484 1210 l 1
 514 1210 545 1194 545 1160 c 2
 545 1143 l 1
 626 871 626 586 667 307 c 1
 697 531 705 758 705 984 c 0xda
 705 1087 736 1189 736 1292 c 1
 731 1305 729 1316 729 1327 c 0
 729 1357 747 1377 792 1377 c 0
 821 1377 844 1360 844 1329 c 0
 844 1319 844 1308 844 1298 c 0xd9
 844 1280 843 1262 839 1245 c 1
 839 1234 l 1
 819 1173 811 1109 811 1046 c 2
 811 896 l 2xda
 811 644 748 371 748 139 c 0xdc
EndSplineSet
EndChar

StartChar: x
Encoding: 120 120 402
Width: 738
VWidth: 0
GlyphClass: 2
Flags: W
PickledData: "(dp1
S'org.pippin.gimp.org.kernagic'
p2
(dp3
S'lstem'
p4
I0
ssS'com.fontlab.hintData'
p5
(dp6
S'vhints'
p7
((dp8
S'position'
p9
I65
sS'width'
p10
I115
s(dp11
g9
I181
sg10
I103
s(dp12
g9
I268
sg10
I94
stp13
sS'hhints'
p14
((dp15
g9
I3
sg10
I21
s(dp16
g9
I1337
sg10
I20
stp17
ss."
HStem: -7 21G<244.5 279> 1337 20G<449 505.833> 1337 20G<449 505.833>
VStem: 196 115<-4.74931 299.403> 312 103<436.437 888.828> 399 94<918.495 1306.6>
LayerCount: 2
Fore
SplineSet
365 894 m 1xd8
 380 981 399 1069 399 1158 c 0
 399 1181 398 1204 398 1225 c 0
 398 1286 408 1335 490 1357 c 1
 528 1309 l 1
 493 1258 493 1193 493 1133 c 2
 493 1109 l 1xd4
 461 1021 415 741 415 646 c 0
 415 475 563 175 563 54 c 0
 563 24 536 3 508 3 c 0
 424 3 379 353 362 433 c 1
 342 320 344 203 310 93 c 1
 311 86 311 78 311 69 c 0
 311 33 300 -7 258 -7 c 0
 231 -7 196 8 196 40 c 0
 196 253 312 447 312 660 c 0
 312 733 218 1172 185 1219 c 1
 185 1241 l 1
 172 1254 166 1274 166 1292 c 0
 166 1322 203 1334 227 1334 c 0
 301 1334 347 979 365 894 c 1xd8
EndSplineSet
EndChar

StartChar: y
Encoding: 121 121 403
Width: 774
VWidth: 0
GlyphClass: 2
Flags: W
PickledData: "(dp1
S'org.pippin.gimp.org.kernagic'
p2
(dp3
S'lstem'
p4
I0
ssS'com.fontlab.hintData'
p5
(dp6
S'vhints'
p7
((dp8
S'position'
p9
I230
sS'width'
p10
I125
s(dp11
g9
I254
sg10
I101
stp12
sS'hhints'
p13
((dp14
g9
I1342
sg10
I20
stp15
ss."
HStem: -28 21G<410.5 455> 1342 20G<515 572> 1342 20G<515 572>
VStem: 366 125<368.688 830.058> 390 101<19.2493 716.172>
LayerCount: 2
Fore
SplineSet
491 109 m 2xc8
 491 53 486 -28 424 -28 c 0
 397 -28 377 -6 367 17 c 1
 390 62 390 300 390 364 c 0xc8
 390 464 370 564 366 664 c 1
 366 717 l 1
 326 825 166 1202 166 1288 c 2
 166 1299 l 1
 212 1333 l 1
 291 1331 374 951 400 877 c 1
 430 954 470 1362 560 1362 c 0
 584 1362 610 1346 610 1319 c 0
 610 1118 495 932 491 726 c 1xd0
 491 109 l 2xc8
EndSplineSet
EndChar

StartChar: yen
Encoding: 165 165 407
Width: 990
VWidth: 0
GlyphClass: 2
Flags: W
PickledData: "(dp1
S'org.pippin.gimp.org.kernagic'
p2
(dp3
S'lstem'
p4
I0
ssS'com.fontlab.hintData'
p5
(dp6
S'vhints'
p7
((dp8
S'position'
p9
I422
sS'width'
p10
I117
stp11
sS'hhints'
p12
((dp13
g9
I762
sg10
I113
s(dp14
g9
I776
sg10
I119
s(dp15
g9
I948
sg10
I108
stp16
ss."
HStem: -8 21G<456 500.5> 762 113<168 448> 776 119<172.501 448 574 872.768> 948 108<198 456.406 580 885.186>
VStem: 457 117<320.489 773 887 950>
LayerCount: 2
Fore
SplineSet
53 1764 m 1xd8
 56 1759 l 1
 72 1766 89 1774 106 1774 c 0
 205 1774 450 1293 507 1207 c 1
 544 1302 663 1832 760 1832 c 0
 790 1832 818 1809 818 1778 c 1
 816 1768 l 1
 755 1589 691 1422 644 1238 c 0
 628 1176 595 1121 580 1059 c 1
 605 1056 l 1
 633 1056 699 1066 760 1066 c 0
 827 1066 887 1054 887 1005 c 0
 887 955 815 948 774 948 c 2
 765 948 l 1
 574 950 l 1
 574 887 l 1
 599 887 660 895 722 895 c 0
 802 895 882 881 882 820 c 0
 882 789 851 766 822 766 c 2
 714 766 l 1
 735 776 l 1
 569 776 l 1xb8
 568 564 538 354 538 142 c 0
 538 128 539 111 539 94 c 0
 539 45 531 -8 470 -8 c 0
 442 -8 405 6 405 40 c 2
 405 45 l 1
 432 112 448 663 448 773 c 1
 441 773 l 2
 378 773 314 762 251 762 c 2
 237 762 l 1
 206 763 l 1
 182 776 163 798 152 823 c 1
 168 875 l 1
 264 875 361 878 457 883 c 1
 459 907 459 930 459 954 c 1
 458 958 l 1
 431 957 366 948 305 948 c 0
 236 948 173 960 173 1010 c 2
 173 1017 l 1
 198 1056 l 1
 251 1056 303 1052 356 1052 c 0
 390 1052 424 1054 458 1059 c 1
 458 1071 l 1
 278 1251 246 1535 53 1705 c 1
 53 1764 l 1xd8
EndSplineSet
EndChar

StartChar: z
Encoding: 122 122 409
Width: 738
VWidth: 0
GlyphClass: 2
Flags: W
PickledData: "(dp1
S'org.pippin.gimp.org.kernagic'
p2
(dp3
S'lstem'
p4
I0
ssS'com.fontlab.hintData'
p5
(dp6
S'vhints'
p7
((dp8
S'position'
p9
I41
sS'width'
p10
I409
stp11
sS'hhints'
p12
((dp13
g9
I18
sg10
I87
s(dp14
g9
I1244
sg10
I115
stp15
ss."
HStem: -4 21G<207.5 234.5> 18 87<283.039 485.965> 1244 115<253.009 469>
VStem: 166 409
LayerCount: 2
Fore
SplineSet
469 1256 m 1
 413 1254 358 1244 302 1244 c 0
 272 1244 249 1272 249 1301 c 0
 249 1356 409 1359 474 1359 c 0
 513 1359 575 1355 575 1302 c 0
 575 1172 498 1059 478 933 c 0
 433 653 314 264 282 105 c 1
 317 105 l 2
 346 105 374 111 403 111 c 1
 403 112 l 1
 438 112 486 109 486 62 c 0
 486 25 445 12 415 12 c 0
 375 12 334 18 294 18 c 0
 267 18 248 -4 221 -4 c 0
 194 -4 166 15 166 42 c 0
 166 339 373 878 469 1256 c 1
EndSplineSet
EndChar

StartChar: zero
Encoding: 48 48 413
Width: 828
VWidth: 0
GlyphClass: 2
Flags: W
PickledData: "(dp1
S'org.pippin.gimp.org.kernagic'
p2
(dp3
S'lstem'
p4
I0
ssS'com.fontlab.hintData'
p5
(dp6
S'vhints'
p7
((dp8
S'position'
p9
I98
sS'width'
p10
I98
s(dp11
g9
I471
sg10
I95
stp12
sS'hhints'
p13
((dp14
g9
I7
sg10
I93
s(dp15
g9
I1543
sg10
I20
stp16
ss."
HStem: 7 93<390.824 487.253> 1543 20G<279.5 495>
VStem: 176 98<726.691 1484.36> 549 95<191.177 977.111>
LayerCount: 2
Fore
SplineSet
549 568 m 0
 549 848 527 1490 327 1518 c 1
 282 1481 274 1451 274 1395 c 0
 274 1260 282 1125 282 990 c 0
 282 923 303 857 303 790 c 0
 303 685 311 100 443 100 c 0
 530 100 549 497 549 568 c 0
176 1222 m 0
 176 1408 209 1563 350 1563 c 0
 640 1563 644 798 644 521 c 0
 644 373 636 7 424 7 c 0
 185 7 176 841 176 1158 c 0
 176 1183 176 1204 176 1222 c 0
EndSplineSet
EndChar
